<svg width="890" height="749" viewBox="0 0 890 749" fill="none" xmlns="http://www.w3.org/2000/svg">
<path d="M76.2605 568.983C31.9806 551.682 4.70893 503.883 0.896753 456.377C-2.91542 408.872 12.9198 361.953 34.0334 319.139C89.7498 206.24 183.881 112.695 297.074 57.5651C410.266 2.43522 541.932 -13.6932 665.095 12.1123C716.12 22.9623 766.558 41.1434 805.852 75.1597C868.02 129.117 893.826 216.504 888.547 298.612C883.269 380.72 850.719 458.723 812.304 531.741C783.272 587.164 749.549 641.414 702.924 683.055C656.298 724.696 594.716 752.847 532.255 748.155C402.641 738.185 314.082 596.255 185.054 580.713C148.692 576.314 110.277 582.179 75.9673 568.983H76.2605Z" fill="url(#paint0_linear_203_2)"/>
<path d="M174.496 491.274C141.946 478.664 122.005 443.475 119.072 408.579C116.14 373.683 127.87 339.373 143.412 307.996C184.173 225.301 253.085 156.682 336.073 116.214C419.061 75.7465 515.539 64.0167 605.858 83.0775C643.1 90.9951 680.342 104.484 709.08 129.41C754.826 168.998 773.594 232.925 769.781 293.334C765.969 353.742 741.923 410.631 713.772 464.002C692.365 504.47 667.732 544.351 633.716 574.848C599.407 605.346 554.54 626.166 508.794 622.647C413.783 615.316 348.976 511.507 254.258 499.778C227.573 496.552 199.421 500.951 174.202 490.98L174.496 491.274Z" fill="url(#paint1_linear_203_2)"/>
<g style="mix-blend-mode:multiply" opacity="0.7">
<path opacity="0.01" fill-rule="evenodd" clip-rule="evenodd" d="M524.63 428.812V568.69C524.63 570.743 526.389 572.209 528.149 572.209H580.053C582.106 572.209 583.572 570.449 583.572 568.69V426.466H621.107C622.867 426.466 624.626 425 624.626 423.241L628.145 380.427C628.145 378.374 626.679 376.615 624.626 376.615H583.279V346.118C583.279 339.08 589.144 333.215 596.181 333.215H625.213C627.265 333.215 628.732 331.455 628.732 329.696V286.882C628.732 284.829 626.972 283.363 625.213 283.363H576.241C547.503 283.363 524.043 306.823 524.043 335.561V376.908H497.945C495.892 376.908 494.426 378.668 494.426 380.427V423.241C494.426 425.294 496.185 426.76 497.945 426.76H524.043V429.106L524.63 428.812Z" fill="#FCFCFD"/>
<path opacity="0.03" fill-rule="evenodd" clip-rule="evenodd" d="M523.458 427.641V567.518C523.458 569.571 525.218 571.037 526.977 571.037H578.881C580.934 571.037 582.4 569.278 582.4 567.518V425.295H619.935C621.695 425.295 623.454 423.828 623.454 422.069L626.973 379.255C626.973 377.203 625.507 375.443 623.454 375.443H582.107V344.946C582.107 337.908 587.972 332.043 595.01 332.043H624.041C626.094 332.043 627.56 330.284 627.56 328.524V285.71C627.56 283.658 625.8 282.191 624.041 282.191H575.069C546.331 282.191 522.872 305.651 522.872 334.389V375.736H496.773C494.72 375.736 493.254 377.496 493.254 379.255V422.069C493.254 424.122 495.013 425.588 496.773 425.588H522.872V427.934L523.458 427.641Z" fill="#FAFAFB"/>
<path opacity="0.04" fill-rule="evenodd" clip-rule="evenodd" d="M521.989 426.174V566.052C521.989 568.104 523.749 569.571 525.508 569.571H577.412C579.465 569.571 580.931 567.811 580.931 566.052V423.828H618.467C620.226 423.828 621.986 422.362 621.986 420.603L625.504 377.789C625.504 375.736 624.038 373.977 621.986 373.977H580.638V343.479C580.638 336.441 586.503 330.577 593.541 330.577H622.572C624.625 330.577 626.091 328.817 626.091 327.058V284.244C626.091 282.191 624.332 280.725 622.572 280.725H573.6C544.862 280.725 521.403 304.185 521.403 332.923V374.27H495.304C493.251 374.27 491.785 376.029 491.785 377.789V420.603C491.785 422.655 493.545 424.122 495.304 424.122H521.403V426.467L521.989 426.174Z" fill="#F7F7F9"/>
<path opacity="0.05" fill-rule="evenodd" clip-rule="evenodd" d="M520.817 425.001V564.879C520.817 566.932 522.577 568.398 524.336 568.398H576.241C578.293 568.398 579.76 566.638 579.76 564.879V422.655H617.295C619.054 422.655 620.814 421.189 620.814 419.43L624.333 376.616C624.333 374.563 622.866 372.804 620.814 372.804H579.466V342.307C579.466 335.269 585.331 329.404 592.369 329.404H621.4C623.453 329.404 624.919 327.644 624.919 325.885V283.071C624.919 281.018 623.16 279.552 621.4 279.552H572.428C543.691 279.552 520.231 303.012 520.231 331.75V373.097H494.132C492.079 373.097 490.613 374.857 490.613 376.616V419.43C490.613 421.482 492.373 422.949 494.132 422.949H520.231V425.295L520.817 425.001Z" fill="#F4F4F7"/>
<path opacity="0.06" fill-rule="evenodd" clip-rule="evenodd" d="M519.353 423.534V563.412C519.353 565.464 521.112 566.931 522.871 566.931H574.776C576.828 566.931 578.295 565.171 578.295 563.412V421.188H615.83C617.589 421.188 619.349 419.722 619.349 417.962L622.868 375.149C622.868 373.096 621.402 371.337 619.349 371.337H578.001V340.839C578.001 333.801 583.866 327.937 590.904 327.937H619.935C621.988 327.937 623.454 326.177 623.454 324.417V281.604C623.454 279.551 621.695 278.085 619.935 278.085H570.964C542.226 278.085 518.766 301.544 518.766 330.282V371.63H492.667C490.615 371.63 489.148 373.389 489.148 375.149V417.962C489.148 420.015 490.908 421.481 492.667 421.481H518.766V423.827L519.353 423.534Z" fill="#F2F1F5"/>
<path opacity="0.08" fill-rule="evenodd" clip-rule="evenodd" d="M518.177 422.361V562.239C518.177 564.291 519.936 565.758 521.696 565.758H573.6C575.653 565.758 577.119 563.998 577.119 562.239V420.015H614.654C616.414 420.015 618.173 418.549 618.173 416.79L621.692 373.976C621.692 371.923 620.226 370.164 618.173 370.164H576.826V339.666C576.826 332.629 582.691 326.764 589.728 326.764H618.76C620.812 326.764 622.279 325.004 622.279 323.245V280.431C622.279 278.378 620.519 276.912 618.76 276.912H569.788C541.05 276.912 517.59 300.372 517.59 329.11V370.457H491.492C489.439 370.457 487.973 372.217 487.973 373.976V416.79C487.973 418.842 489.732 420.309 491.492 420.309H517.59V422.655L518.177 422.361Z" fill="#EFEFF3"/>
<path opacity="0.09" fill-rule="evenodd" clip-rule="evenodd" d="M517.005 420.895V560.773C517.005 562.826 518.764 564.292 520.524 564.292H572.428C574.481 564.292 575.947 562.532 575.947 560.773V418.55H613.482C615.242 418.55 617.001 417.083 617.001 415.324L620.52 372.51C620.52 370.457 619.054 368.698 617.001 368.698H575.654V338.201C575.654 331.163 581.519 325.298 588.557 325.298H617.588C619.641 325.298 621.107 323.538 621.107 321.779V278.965C621.107 276.912 619.347 275.446 617.588 275.446H568.616C539.878 275.446 516.419 298.906 516.419 327.644V368.991H490.32C488.267 368.991 486.801 370.751 486.801 372.51V415.324C486.801 417.377 488.56 418.843 490.32 418.843H516.419V421.189L517.005 420.895Z" fill="#ECECF1"/>
<path opacity="0.1" fill-rule="evenodd" clip-rule="evenodd" d="M515.536 419.723V559.6C515.536 561.653 517.296 563.119 519.055 563.119H570.959C573.012 563.119 574.478 561.36 574.478 559.6V417.377H612.014C613.773 417.377 615.532 415.91 615.532 414.151L619.051 371.337C619.051 369.285 617.585 367.525 615.532 367.525H574.185V337.028C574.185 329.99 580.05 324.125 587.088 324.125H616.119C618.172 324.125 619.638 322.366 619.638 320.606V277.792C619.638 275.74 617.878 274.273 616.119 274.273H567.147C538.409 274.273 514.95 297.733 514.95 326.471V367.818H488.851C486.798 367.818 485.332 369.578 485.332 371.337V414.151C485.332 416.204 487.091 417.67 488.851 417.67H514.95V420.016L515.536 419.723Z" fill="#EAE9EF"/>
<path opacity="0.11" fill-rule="evenodd" clip-rule="evenodd" d="M514.368 418.256V558.134C514.368 560.186 516.128 561.653 517.887 561.653H569.791C571.844 561.653 573.31 559.893 573.31 558.134V415.91H610.846C612.605 415.91 614.365 414.444 614.365 412.685L617.883 369.871C617.883 367.818 616.417 366.059 614.365 366.059H573.017V335.561C573.017 328.524 578.882 322.659 585.92 322.659H614.951C617.004 322.659 618.47 320.899 618.47 319.14V276.326C618.47 274.273 616.711 272.807 614.951 272.807H565.979C537.241 272.807 513.782 296.267 513.782 325.005V366.352H487.683C485.63 366.352 484.164 368.112 484.164 369.871V412.685C484.164 414.737 485.924 416.204 487.683 416.204H513.782V418.55L514.368 418.256Z" fill="#E7E7ED"/>
<path opacity="0.13" fill-rule="evenodd" clip-rule="evenodd" d="M512.899 417.083V556.96C512.899 559.013 514.659 560.479 516.418 560.479H568.323C570.375 560.479 571.842 558.72 571.842 556.96V414.737H609.377C611.136 414.737 612.896 413.271 612.896 411.511L616.415 368.698C616.415 366.645 614.948 364.885 612.896 364.885H571.548V334.388C571.548 327.35 577.413 321.485 584.451 321.485H613.482C615.535 321.485 617.001 319.726 617.001 317.966V275.153C617.001 273.1 615.242 271.634 613.482 271.634H564.51C535.773 271.634 512.313 295.093 512.313 323.831V365.179H486.214C484.162 365.179 482.695 366.938 482.695 368.698V411.511C482.695 413.564 484.455 415.03 486.214 415.03H512.313V417.376L512.899 417.083Z" fill="#E4E4EA"/>
<path opacity="0.14" fill-rule="evenodd" clip-rule="evenodd" d="M511.728 415.617V555.494C511.728 557.547 513.487 559.013 515.247 559.013H567.151C569.204 559.013 570.67 557.254 570.67 555.494V413.271H608.205C609.964 413.271 611.724 411.804 611.724 410.045L615.243 367.231C615.243 365.179 613.777 363.419 611.724 363.419H570.377V332.922C570.377 325.884 576.241 320.019 583.279 320.019H612.31C614.363 320.019 615.829 318.259 615.829 316.5V273.686C615.829 271.634 614.07 270.167 612.31 270.167H563.339C534.601 270.167 511.141 293.627 511.141 322.365V363.712H485.042C482.99 363.712 481.523 365.472 481.523 367.231V410.045C481.523 412.098 483.283 413.564 485.042 413.564H511.141V415.91L511.728 415.617Z" fill="#E2E1E8"/>
<path opacity="0.15" fill-rule="evenodd" clip-rule="evenodd" d="M510.259 414.444V554.322C510.259 556.374 512.018 557.841 513.778 557.841H565.682C567.735 557.841 569.201 556.081 569.201 554.322V412.098H606.736C608.496 412.098 610.255 410.632 610.255 408.873L613.774 366.059C613.774 364.006 612.308 362.247 610.255 362.247H568.908V331.749C568.908 324.712 574.773 318.847 581.81 318.847H610.842C612.894 318.847 614.361 317.087 614.361 315.328V272.514C614.361 270.461 612.601 268.995 610.842 268.995H561.87C533.132 268.995 509.672 292.455 509.672 321.193V362.54H483.574C481.521 362.54 480.055 364.3 480.055 366.059V408.873C480.055 410.925 481.814 412.392 483.574 412.392H509.672V414.738L510.259 414.444Z" fill="#DFDFE6"/>
<path opacity="0.16" fill-rule="evenodd" clip-rule="evenodd" d="M509.087 412.977V552.855C509.087 554.908 510.846 556.374 512.606 556.374H564.51C566.563 556.374 568.029 554.614 568.029 552.855V410.632H605.564C607.324 410.632 609.083 409.165 609.083 407.406L612.602 364.592C612.602 362.54 611.136 360.78 609.083 360.78H567.736V330.283C567.736 323.245 573.601 317.38 580.639 317.38H609.67C611.723 317.38 613.189 315.62 613.189 313.861V271.047C613.189 268.995 611.429 267.528 609.67 267.528H560.698C531.96 267.528 508.501 290.988 508.501 319.726V361.073H482.402C480.349 361.073 478.883 362.833 478.883 364.592V407.406C478.883 409.459 480.642 410.925 482.402 410.925H508.501V413.271L509.087 412.977Z" fill="#DDDCE4"/>
<path opacity="0.18" fill-rule="evenodd" clip-rule="evenodd" d="M507.622 411.805V551.682C507.622 553.735 509.382 555.201 511.141 555.201H563.045C565.098 555.201 566.564 553.442 566.564 551.682V409.459H604.099C605.859 409.459 607.618 407.992 607.618 406.233L611.137 363.419C611.137 361.367 609.671 359.607 607.618 359.607H566.271V329.11C566.271 322.072 572.136 316.207 579.174 316.207H608.205C610.258 316.207 611.724 314.448 611.724 312.688V269.874C611.724 267.822 609.964 266.355 608.205 266.355H559.233C530.495 266.355 507.036 289.815 507.036 318.553V359.9H480.937C478.884 359.9 477.418 361.66 477.418 363.419V406.233C477.418 408.286 479.177 409.752 480.937 409.752H507.036V412.098L507.622 411.805Z" fill="#DAD9E2"/>
<path opacity="0.19" fill-rule="evenodd" clip-rule="evenodd" d="M506.446 410.338V550.216C506.446 552.269 508.206 553.735 509.965 553.735H561.87C563.922 553.735 565.388 551.975 565.388 550.216V407.992H602.924C604.683 407.992 606.443 406.526 606.443 404.767L609.962 361.953C609.962 359.9 608.495 358.141 606.443 358.141H565.095V327.643C565.095 320.606 570.96 314.741 577.998 314.741H607.029C609.082 314.741 610.548 312.981 610.548 311.222V268.408C610.548 266.355 608.789 264.889 607.029 264.889H558.057C529.319 264.889 505.86 288.349 505.86 317.087V358.434H479.761C477.708 358.434 476.242 360.194 476.242 361.953V404.767C476.242 406.819 478.002 408.286 479.761 408.286H505.86V410.632L506.446 410.338Z" fill="#D7D6E0"/>
<path opacity="0.2" fill-rule="evenodd" clip-rule="evenodd" d="M504.985 409.165V549.042C504.985 551.095 506.745 552.561 508.504 552.561H560.409C562.461 552.561 563.928 550.802 563.928 549.042V406.819H601.463C603.222 406.819 604.982 405.353 604.982 403.593L608.501 360.78C608.501 358.727 607.034 356.968 604.982 356.968H563.634V326.47C563.634 319.432 569.499 313.567 576.537 313.567H605.568C607.621 313.567 609.087 311.808 609.087 310.048V267.235C609.087 265.182 607.328 263.716 605.568 263.716H556.596C527.858 263.716 504.399 287.175 504.399 315.913V357.261H478.3C476.248 357.261 474.781 359.02 474.781 360.78V403.593C474.781 405.646 476.541 407.112 478.3 407.112H504.399V409.458L504.985 409.165Z" fill="#D5D4DE"/>
<path opacity="0.21" fill-rule="evenodd" clip-rule="evenodd" d="M503.81 407.992V547.87C503.81 549.922 505.569 551.389 507.329 551.389H559.233C561.286 551.389 562.752 549.629 562.752 547.87V405.646H600.287C602.047 405.646 603.806 404.18 603.806 402.42L607.325 359.607C607.325 357.554 605.859 355.795 603.806 355.795H562.459V325.297C562.459 318.259 568.323 312.394 575.361 312.394H604.392C606.445 312.394 607.911 310.635 607.911 308.876V266.062C607.911 264.009 606.152 262.543 604.392 262.543H555.421C526.683 262.543 503.223 286.002 503.223 314.74V356.088H477.124C475.072 356.088 473.605 357.847 473.605 359.607V402.42C473.605 404.473 475.365 405.939 477.124 405.939H503.223V408.285L503.81 407.992Z" fill="#D2D1DC"/>
<path opacity="0.23" fill-rule="evenodd" clip-rule="evenodd" d="M502.345 406.526V546.403C502.345 548.456 504.104 549.922 505.864 549.922H557.768C559.821 549.922 561.287 548.163 561.287 546.403V404.18H598.822C600.582 404.18 602.341 402.714 602.341 400.954L605.86 358.141C605.86 356.088 604.394 354.328 602.341 354.328H560.994V323.831C560.994 316.793 566.859 310.928 573.896 310.928H602.928C604.98 310.928 606.447 309.169 606.447 307.409V264.596C606.447 262.543 604.687 261.077 602.928 261.077H553.956C525.218 261.077 501.758 284.536 501.758 313.274V354.622H475.66C473.607 354.622 472.141 356.381 472.141 358.141V400.954C472.141 403.007 473.9 404.473 475.66 404.473H501.758V406.819L502.345 406.526Z" fill="#CFCEDA"/>
<path opacity="0.24" fill-rule="evenodd" clip-rule="evenodd" d="M501.169 405.353V545.231C501.169 547.284 502.928 548.75 504.688 548.75H556.592C558.645 548.75 560.111 546.99 560.111 545.231V403.007H597.646C599.406 403.007 601.165 401.541 601.165 399.782L604.684 356.968C604.684 354.915 603.218 353.156 601.165 353.156H559.818V322.659C559.818 315.621 565.683 309.756 572.721 309.756H601.752C603.804 309.756 605.271 307.996 605.271 306.237V263.423C605.271 261.37 603.511 259.904 601.752 259.904H552.78C524.042 259.904 500.582 283.364 500.582 312.102V353.449H474.484C472.431 353.449 470.965 355.209 470.965 356.968V399.782C470.965 401.834 472.724 403.301 474.484 403.301H500.582V405.647L501.169 405.353Z" fill="#CDCCD8"/>
<path opacity="0.25" fill-rule="evenodd" clip-rule="evenodd" d="M499.704 403.888V543.765C499.704 545.818 501.464 547.284 503.223 547.284H555.127C557.18 547.284 558.646 545.525 558.646 543.765V401.542H596.182C597.941 401.542 599.701 400.075 599.701 398.316L603.219 355.502C603.219 353.45 601.753 351.69 599.701 351.69H558.353V321.193C558.353 314.155 564.218 308.29 571.256 308.29H600.287C602.34 308.29 603.806 306.531 603.806 304.771V261.957C603.806 259.905 602.046 258.438 600.287 258.438H551.315C522.577 258.438 499.118 281.898 499.118 310.636V351.983H473.019C470.966 351.983 469.5 353.743 469.5 355.502V398.316C469.5 400.369 471.26 401.835 473.019 401.835H499.118V404.181L499.704 403.888Z" fill="#CAC9D6"/>
<path opacity="0.26" fill-rule="evenodd" clip-rule="evenodd" d="M498.532 402.715V542.592C498.532 544.645 500.292 546.111 502.051 546.111H553.955C556.008 546.111 557.474 544.352 557.474 542.592V400.369H595.01C596.769 400.369 598.529 398.903 598.529 397.143L602.047 354.329C602.047 352.277 600.581 350.517 598.529 350.517H557.181V320.02C557.181 312.982 563.046 307.117 570.084 307.117H599.115C601.168 307.117 602.634 305.358 602.634 303.598V260.785C602.634 258.732 600.874 257.266 599.115 257.266H550.143C521.405 257.266 497.946 280.725 497.946 309.463V350.811H471.847C469.794 350.811 468.328 352.57 468.328 354.329V397.143C468.328 399.196 470.088 400.662 471.847 400.662H497.946V403.008L498.532 402.715Z" fill="#C7C6D4"/>
<path opacity="0.28" fill-rule="evenodd" clip-rule="evenodd" d="M497.356 401.249V541.126C497.356 543.179 499.116 544.645 500.875 544.645H552.78C554.832 544.645 556.299 542.886 556.299 541.126V398.903H593.834C595.593 398.903 597.353 397.436 597.353 395.677L600.872 352.863C600.872 350.81 599.405 349.051 597.353 349.051H556.005V318.554C556.005 311.516 561.87 305.651 568.908 305.651H597.939C599.992 305.651 601.458 303.891 601.458 302.132V259.318C601.458 257.266 599.699 255.799 597.939 255.799H548.968C520.23 255.799 496.77 279.259 496.77 307.997V349.344H470.671C468.619 349.344 467.152 351.104 467.152 352.863V395.677C467.152 397.73 468.912 399.196 470.671 399.196H496.77V401.542L497.356 401.249Z" fill="#C5C4D2"/>
<path opacity="0.29" fill-rule="evenodd" clip-rule="evenodd" d="M495.892 400.074V539.952C495.892 542.004 497.651 543.471 499.411 543.471H551.315C553.367 543.471 554.834 541.711 554.834 539.952V397.728H592.369C594.128 397.728 595.888 396.262 595.888 394.503L599.407 351.689C599.407 349.636 597.941 347.877 595.888 347.877H554.54V317.379C554.54 310.341 560.405 304.476 567.443 304.476H596.474C598.527 304.476 599.993 302.717 599.993 300.958V258.144C599.993 256.091 598.234 254.625 596.474 254.625H547.503C518.765 254.625 495.305 278.085 495.305 306.822V348.17H469.206C467.154 348.17 465.688 349.929 465.688 351.689V394.503C465.688 396.555 467.447 398.021 469.206 398.021H495.305V400.367L495.892 400.074Z" fill="#C2C1D0"/>
<path opacity="0.3" fill-rule="evenodd" clip-rule="evenodd" d="M494.72 398.608V538.486C494.72 540.539 496.479 542.005 498.239 542.005H550.143C552.196 542.005 553.662 540.245 553.662 538.486V396.262H591.197C592.957 396.262 594.716 394.796 594.716 393.037L598.235 350.223C598.235 348.17 596.769 346.411 594.716 346.411H553.369V315.914C553.369 308.876 559.234 303.011 566.271 303.011H595.303C597.355 303.011 598.821 301.251 598.821 299.492V256.678C598.821 254.625 597.062 253.159 595.303 253.159H546.331C517.593 253.159 494.133 276.619 494.133 305.357V346.704H468.035C465.982 346.704 464.516 348.464 464.516 350.223V393.037C464.516 395.089 466.275 396.556 468.035 396.556H494.133V398.902L494.72 398.608Z" fill="#BFBECE"/>
<path opacity="0.31" fill-rule="evenodd" clip-rule="evenodd" d="M493.255 397.435V537.313C493.255 539.366 495.014 540.832 496.774 540.832H548.678C550.731 540.832 552.197 539.072 552.197 537.313V395.089H589.732C591.492 395.089 593.251 393.623 593.251 391.864L596.77 349.05C596.77 346.997 595.304 345.238 593.251 345.238H551.904V314.741C551.904 307.703 557.769 301.838 564.806 301.838H593.838C595.89 301.838 597.357 300.078 597.357 298.319V255.505C597.357 253.453 595.597 251.986 593.838 251.986H544.866C516.128 251.986 492.668 275.446 492.668 304.184V345.531H466.57C464.517 345.531 463.051 347.291 463.051 349.05V391.864C463.051 393.917 464.81 395.383 466.57 395.383H492.668V397.729L493.255 397.435Z" fill="#BDBBCC"/>
<path opacity="0.33" fill-rule="evenodd" clip-rule="evenodd" d="M492.079 395.97V535.847C492.079 537.9 493.839 539.366 495.598 539.366H547.502C549.555 539.366 551.021 537.607 551.021 535.847V393.624H588.556C590.316 393.624 592.075 392.158 592.075 390.398L595.594 347.584C595.594 345.532 594.128 343.772 592.075 343.772H550.728V313.275C550.728 306.237 556.593 300.372 563.631 300.372H592.662C594.715 300.372 596.181 298.613 596.181 296.853V254.04C596.181 251.987 594.421 250.521 592.662 250.521H543.69C514.952 250.521 491.493 273.98 491.493 302.718V344.066H465.394C463.341 344.066 461.875 345.825 461.875 347.584V390.398C461.875 392.451 463.634 393.917 465.394 393.917H491.493V396.263L492.079 395.97Z" fill="#BAB9CA"/>
<path opacity="0.34" fill-rule="evenodd" clip-rule="evenodd" d="M490.61 394.797V534.675C490.61 536.728 492.37 538.194 494.129 538.194H546.034C548.086 538.194 549.552 536.434 549.552 534.675V392.451H587.088C588.847 392.451 590.607 390.985 590.607 389.226L594.126 346.412C594.126 344.359 592.659 342.6 590.607 342.6H549.259V312.102C549.259 305.065 555.124 299.2 562.162 299.2H591.193C593.246 299.2 594.712 297.44 594.712 295.681V252.867C594.712 250.814 592.953 249.348 591.193 249.348H542.221C513.483 249.348 490.024 272.808 490.024 301.546V342.893H463.925C461.872 342.893 460.406 344.652 460.406 346.412V389.226C460.406 391.278 462.166 392.745 463.925 392.745H490.024V395.09L490.61 394.797Z" fill="#B7B6C8"/>
<path opacity="0.35" fill-rule="evenodd" clip-rule="evenodd" d="M489.438 393.331V533.208C489.438 535.261 491.198 536.727 492.958 536.727H544.862C546.914 536.727 548.381 534.968 548.381 533.208V390.985H585.916C587.675 390.985 589.435 389.519 589.435 387.759L592.954 344.946C592.954 342.893 591.487 341.133 589.435 341.133H548.087V310.636C548.087 303.598 553.952 297.733 560.99 297.733H590.021C592.074 297.733 593.54 295.974 593.54 294.214V251.401C593.54 249.348 591.781 247.882 590.021 247.882H541.05C512.312 247.882 488.852 271.341 488.852 300.079V341.427H462.753C460.701 341.427 459.234 343.186 459.234 344.946V387.759C459.234 389.812 460.994 391.278 462.753 391.278H488.852V393.624L489.438 393.331Z" fill="#B5B3C6"/>
<path opacity="0.36" fill-rule="evenodd" clip-rule="evenodd" d="M487.974 392.157V532.034C487.974 534.087 489.733 535.553 491.493 535.553H543.397C545.45 535.553 546.916 533.794 546.916 532.034V389.811H584.451C586.21 389.811 587.97 388.345 587.97 386.585L591.489 343.771C591.489 341.719 590.023 339.959 587.97 339.959H546.622V309.462C546.622 302.424 552.487 296.559 559.525 296.559H588.556C590.609 296.559 592.075 294.8 592.075 293.04V250.226C592.075 248.174 590.316 246.708 588.556 246.708H539.585C510.847 246.708 487.387 270.167 487.387 298.905V340.252H461.288C459.236 340.252 457.77 342.012 457.77 343.771V386.585C457.77 388.638 459.529 390.104 461.288 390.104H487.387V392.45L487.974 392.157Z" fill="#B2B1C4"/>
<path opacity="0.38" fill-rule="evenodd" clip-rule="evenodd" d="M486.802 390.691V530.569C486.802 532.622 488.561 534.088 490.321 534.088H542.225C544.278 534.088 545.744 532.328 545.744 530.569V388.345H583.279C585.039 388.345 586.798 386.879 586.798 385.12L590.317 342.306C590.317 340.253 588.851 338.494 586.798 338.494H545.451V307.996C545.451 300.959 551.316 295.094 558.353 295.094H587.385C589.437 295.094 590.903 293.334 590.903 291.575V248.761C590.903 246.708 589.144 245.242 587.385 245.242H538.413C509.675 245.242 486.215 268.702 486.215 297.44V338.787H460.117C458.064 338.787 456.598 340.547 456.598 342.306V385.12C456.598 387.172 458.357 388.639 460.117 388.639H486.215V390.985L486.802 390.691Z" fill="#AFAEC1"/>
<path opacity="0.39" fill-rule="evenodd" clip-rule="evenodd" d="M485.333 389.518V529.396C485.333 531.448 487.092 532.914 488.852 532.914H540.756C542.809 532.914 544.275 531.155 544.275 529.396V387.172H581.81C583.57 387.172 585.329 385.706 585.329 383.946L588.848 341.133C588.848 339.08 587.382 337.321 585.329 337.321H543.982V306.823C543.982 299.785 549.847 293.92 556.885 293.92H585.916C587.969 293.92 589.435 292.161 589.435 290.401V247.588C589.435 245.535 587.675 244.069 585.916 244.069H536.944C508.206 244.069 484.747 267.528 484.747 296.266V337.614H458.648C456.595 337.614 455.129 339.373 455.129 341.133V383.946C455.129 385.999 456.888 387.465 458.648 387.465H484.747V389.811L485.333 389.518Z" fill="#ADABBF"/>
<path opacity="0.4" fill-rule="evenodd" clip-rule="evenodd" d="M484.165 388.345V528.222C484.165 530.275 485.925 531.741 487.684 531.741H539.588C541.641 531.741 543.107 529.982 543.107 528.222V385.999H580.642C582.402 385.999 584.161 384.533 584.161 382.773L587.68 339.959C587.68 337.907 586.214 336.147 584.161 336.147H542.814V305.65C542.814 298.612 548.679 292.747 555.717 292.747H584.748C586.801 292.747 588.267 290.988 588.267 289.228V246.414C588.267 244.362 586.507 242.896 584.748 242.896H535.776C507.038 242.896 483.579 266.355 483.579 295.093V336.44H457.48C455.427 336.44 453.961 338.2 453.961 339.959V382.773C453.961 384.826 455.72 386.292 457.48 386.292H483.579V388.638L484.165 388.345Z" fill="#AAA9BD"/>
<path opacity="0.41" fill-rule="evenodd" clip-rule="evenodd" d="M482.696 386.879V526.757C482.696 528.81 484.456 530.276 486.215 530.276H538.119C540.172 530.276 541.638 528.516 541.638 526.757V384.533H579.174C580.933 384.533 582.693 383.067 582.693 381.308L586.211 338.494C586.211 336.441 584.745 334.682 582.693 334.682H541.345V304.184C541.345 297.147 547.21 291.282 554.248 291.282H583.279C585.332 291.282 586.798 289.522 586.798 287.763V244.949C586.798 242.896 585.039 241.43 583.279 241.43H534.307C505.569 241.43 482.11 264.89 482.11 293.628V334.975H456.011C453.958 334.975 452.492 336.734 452.492 338.494V381.308C452.492 383.36 454.252 384.827 456.011 384.827H482.11V387.173L482.696 386.879Z" fill="#A8A6BB"/>
<path opacity="0.43" fill-rule="evenodd" clip-rule="evenodd" d="M481.521 385.706V525.584C481.521 527.637 483.28 529.103 485.04 529.103H536.944C538.997 529.103 540.463 527.343 540.463 525.584V383.361H577.998C579.757 383.361 581.517 381.894 581.517 380.135L585.036 337.321C585.036 335.269 583.57 333.509 581.517 333.509H540.169V303.012C540.169 295.974 546.034 290.109 553.072 290.109H582.103C584.156 290.109 585.622 288.349 585.622 286.59V243.776C585.622 241.724 583.863 240.257 582.103 240.257H533.132C504.394 240.257 480.934 263.717 480.934 292.455V333.802H454.835C452.783 333.802 451.316 335.562 451.316 337.321V380.135C451.316 382.188 453.076 383.654 454.835 383.654H480.934V386L481.521 385.706Z" fill="#A5A3B9"/>
<path opacity="0.44" fill-rule="evenodd" clip-rule="evenodd" d="M480.056 384.239V524.117C480.056 526.169 481.815 527.636 483.575 527.636H535.479C537.532 527.636 538.998 525.876 538.998 524.117V381.893H576.533C578.293 381.893 580.052 380.427 580.052 378.668L583.571 335.854C583.571 333.801 582.105 332.042 580.052 332.042H538.705V301.544C538.705 294.506 544.569 288.642 551.607 288.642H580.638C582.691 288.642 584.157 286.882 584.157 285.123V242.309C584.157 240.256 582.398 238.79 580.638 238.79H531.667C502.929 238.79 479.469 262.25 479.469 290.987V332.335H453.37C451.318 332.335 449.852 334.094 449.852 335.854V378.668C449.852 380.72 451.611 382.186 453.37 382.186H479.469V384.532L480.056 384.239Z" fill="#A2A0B7"/>
<path opacity="0.45" fill-rule="evenodd" clip-rule="evenodd" d="M478.884 383.067V522.944C478.884 524.997 480.643 526.463 482.403 526.463H534.307C536.36 526.463 537.826 524.704 537.826 522.944V380.721H575.361C577.121 380.721 578.88 379.255 578.88 377.495L582.399 334.682C582.399 332.629 580.933 330.869 578.88 330.869H537.533V300.372C537.533 293.334 543.398 287.469 550.435 287.469H579.467C581.519 287.469 582.986 285.71 582.986 283.95V241.137C582.986 239.084 581.226 237.618 579.467 237.618H530.495C501.757 237.618 478.297 261.077 478.297 289.815V331.163H452.199C450.146 331.163 448.68 332.922 448.68 334.682V377.495C448.68 379.548 450.439 381.014 452.199 381.014H478.297V383.36L478.884 383.067Z" fill="#A09EB5"/>
<path opacity="0.46" fill-rule="evenodd" clip-rule="evenodd" d="M477.712 381.6V521.478C477.712 523.531 479.471 524.997 481.231 524.997H533.135C535.188 524.997 536.654 523.237 536.654 521.478V379.255H574.189C575.949 379.255 577.708 377.788 577.708 376.029L581.227 333.215C581.227 331.163 579.761 329.403 577.708 329.403H536.361V298.906C536.361 291.868 542.226 286.003 549.264 286.003H578.295C580.348 286.003 581.814 284.243 581.814 282.484V239.67C581.814 237.618 580.054 236.151 578.295 236.151H529.323C500.585 236.151 477.126 259.611 477.126 288.349V329.696H451.027C448.974 329.696 447.508 331.456 447.508 333.215V376.029C447.508 378.082 449.267 379.548 451.027 379.548H477.126V381.894L477.712 381.6Z" fill="#9D9BB3"/>
<path opacity="0.48" fill-rule="evenodd" clip-rule="evenodd" d="M476.243 380.428V520.306C476.243 522.358 478.003 523.825 479.762 523.825H531.666C533.719 523.825 535.185 522.065 535.185 520.306V378.082H572.721C574.48 378.082 576.239 376.616 576.239 374.857L579.758 332.043C579.758 329.99 578.292 328.231 576.239 328.231H534.892V297.733C534.892 290.695 540.757 284.831 547.795 284.831H576.826C578.879 284.831 580.345 283.071 580.345 281.312V238.498C580.345 236.445 578.585 234.979 576.826 234.979H527.854C499.116 234.979 475.657 258.439 475.657 287.176V328.524H449.558C447.505 328.524 446.039 330.283 446.039 332.043V374.857C446.039 376.909 447.798 378.375 449.558 378.375H475.657V380.721L476.243 380.428Z" fill="#9A98B1"/>
<path opacity="0.49" fill-rule="evenodd" clip-rule="evenodd" d="M475.071 378.962V518.839C475.071 520.892 476.831 522.358 478.59 522.358H530.495C532.547 522.358 534.013 520.599 534.013 518.839V376.616H571.549C573.308 376.616 575.068 375.15 575.068 373.39L578.587 330.577C578.587 328.524 577.12 326.764 575.068 326.764H533.72V296.267C533.72 289.229 539.585 283.364 546.623 283.364H575.654C577.707 283.364 579.173 281.605 579.173 279.845V237.032C579.173 234.979 577.414 233.513 575.654 233.513H526.682C497.944 233.513 474.485 256.972 474.485 285.71V327.058H448.386C446.333 327.058 444.867 328.817 444.867 330.577V373.39C444.867 375.443 446.627 376.909 448.386 376.909H474.485V379.255L475.071 378.962Z" fill="#9896AF"/>
<path opacity="0.5" fill-rule="evenodd" clip-rule="evenodd" d="M473.606 377.788V517.665C473.606 519.718 475.366 521.184 477.125 521.184H529.03C531.082 521.184 532.549 519.425 532.549 517.665V375.442H570.084C571.843 375.442 573.603 373.975 573.603 372.216L577.122 329.402C577.122 327.35 575.656 325.59 573.603 325.59H532.255V295.093C532.255 288.055 538.12 282.19 545.158 282.19H574.189C576.242 282.19 577.708 280.43 577.708 278.671V235.857C577.708 233.805 575.949 232.338 574.189 232.338H525.218C496.48 232.338 473.02 255.798 473.02 284.536V325.883H446.921C444.869 325.883 443.402 327.643 443.402 329.402V372.216C443.402 374.269 445.162 375.735 446.921 375.735H473.02V378.081L473.606 377.788Z" fill="#9593AD"/>
<path opacity="0.51" fill-rule="evenodd" clip-rule="evenodd" d="M472.431 376.322V516.199C472.431 518.252 474.19 519.718 475.95 519.718H527.854C529.907 519.718 531.373 517.959 531.373 516.199V373.976H568.908C570.668 373.976 572.427 372.51 572.427 370.75L575.946 327.936C575.946 325.884 574.48 324.124 572.427 324.124H531.08V293.627C531.08 286.589 536.944 280.724 543.982 280.724H573.014C575.066 280.724 576.532 278.965 576.532 277.205V234.391C576.532 232.339 574.773 230.873 573.014 230.873H524.042C495.304 230.873 471.844 254.332 471.844 283.07V324.417H445.746C443.693 324.417 442.227 326.177 442.227 327.936V370.75C442.227 372.803 443.986 374.269 445.746 374.269H471.844V376.615L472.431 376.322Z" fill="#9290AB"/>
<path opacity="0.52" fill-rule="evenodd" clip-rule="evenodd" d="M470.966 375.149V515.026C470.966 517.079 472.725 518.545 474.485 518.545H526.389C528.442 518.545 529.908 516.786 529.908 515.026V372.803H567.443C569.203 372.803 570.962 371.337 570.962 369.577L574.481 326.764C574.481 324.711 573.015 322.951 570.962 322.951H529.615V292.454C529.615 285.416 535.48 279.551 542.518 279.551H571.549C573.601 279.551 575.068 277.792 575.068 276.032V233.219C575.068 231.166 573.308 229.7 571.549 229.7H522.577C493.839 229.7 470.379 253.159 470.379 281.897V323.245H444.281C442.228 323.245 440.762 325.004 440.762 326.764V369.577C440.762 371.63 442.521 373.096 444.281 373.096H470.379V375.442L470.966 375.149Z" fill="#908EA9"/>
<path opacity="0.54" fill-rule="evenodd" clip-rule="evenodd" d="M469.79 373.683V513.56C469.79 515.613 471.55 517.079 473.309 517.079H525.213C527.266 517.079 528.732 515.32 528.732 513.56V371.337H566.268C568.027 371.337 569.786 369.87 569.786 368.111L573.305 325.297C573.305 323.245 571.839 321.485 569.786 321.485H528.439V290.988C528.439 283.95 534.304 278.085 541.342 278.085H570.373C572.426 278.085 573.892 276.326 573.892 274.566V231.752C573.892 229.7 572.132 228.233 570.373 228.233H521.401C492.663 228.233 469.204 251.693 469.204 280.431V321.778H443.105C441.052 321.778 439.586 323.538 439.586 325.297V368.111C439.586 370.164 441.345 371.63 443.105 371.63H469.204V373.976L469.79 373.683Z" fill="#8D8BA7"/>
<path opacity="0.55" fill-rule="evenodd" clip-rule="evenodd" d="M468.329 372.511V512.388C468.329 514.441 470.089 515.907 471.848 515.907H523.752C525.805 515.907 527.271 514.148 527.271 512.388V370.165H564.807C566.566 370.165 568.326 368.699 568.326 366.939L571.844 324.125C571.844 322.073 570.378 320.313 568.326 320.313H526.978V289.816C526.978 282.778 532.843 276.913 539.881 276.913H568.912C570.965 276.913 572.431 275.154 572.431 273.394V230.581C572.431 228.528 570.671 227.062 568.912 227.062H519.94C491.202 227.062 467.743 250.521 467.743 279.259V320.607H441.644C439.591 320.607 438.125 322.366 438.125 324.125V366.939C438.125 368.992 439.885 370.458 441.644 370.458H467.743V372.804L468.329 372.511Z" fill="#8A88A5"/>
<path opacity="0.56" fill-rule="evenodd" clip-rule="evenodd" d="M467.153 371.044V510.921C467.153 512.974 468.913 514.44 470.672 514.44H522.577C524.629 514.44 526.096 512.681 526.096 510.921V368.698H563.631C565.39 368.698 567.15 367.232 567.15 365.472L570.669 322.659C570.669 320.606 569.202 318.846 567.15 318.846H525.802V288.349C525.802 281.311 531.667 275.446 538.705 275.446H567.736C569.789 275.446 571.255 273.687 571.255 271.927V229.114C571.255 227.061 569.496 225.595 567.736 225.595H518.764C490.026 225.595 466.567 249.054 466.567 277.792V319.14H440.468C438.416 319.14 436.949 320.899 436.949 322.659V365.472C436.949 367.525 438.709 368.991 440.468 368.991H466.567V371.337L467.153 371.044Z" fill="#8886A3"/>
<path opacity="0.57" fill-rule="evenodd" clip-rule="evenodd" d="M465.685 369.871V509.749C465.685 511.801 467.444 513.268 469.204 513.268H521.108C523.161 513.268 524.627 511.508 524.627 509.749V367.525H562.162C563.921 367.525 565.681 366.059 565.681 364.299L569.2 321.486C569.2 319.433 567.734 317.674 565.681 317.674H524.334V287.176C524.334 280.138 530.198 274.273 537.236 274.273H566.267C568.32 274.273 569.786 272.514 569.786 270.755V227.941C569.786 225.888 568.027 224.422 566.267 224.422H517.296C488.558 224.422 465.098 247.881 465.098 276.619V317.967H438.999C436.947 317.967 435.48 319.726 435.48 321.486V364.299C435.48 366.352 437.24 367.818 438.999 367.818H465.098V370.164L465.685 369.871Z" fill="#8583A1"/>
<path opacity="0.59" fill-rule="evenodd" clip-rule="evenodd" d="M464.517 368.698V508.575C464.517 510.628 466.276 512.094 468.036 512.094H519.94C521.992 512.094 523.459 510.335 523.459 508.575V366.352H560.994C562.753 366.352 564.513 364.885 564.513 363.126L568.032 320.312C568.032 318.26 566.566 316.5 564.513 316.5H523.165V286.003C523.165 278.965 529.03 273.1 536.068 273.1H565.099C567.152 273.1 568.618 271.341 568.618 269.581V226.767C568.618 224.715 566.859 223.249 565.099 223.249H516.128C487.39 223.249 463.93 246.708 463.93 275.446V316.793H437.831C435.779 316.793 434.312 318.553 434.312 320.312V363.126C434.312 365.179 436.072 366.645 437.831 366.645H463.93V368.991L464.517 368.698Z" fill="#82809F"/>
<path opacity="0.6" fill-rule="evenodd" clip-rule="evenodd" d="M463.048 367.231V507.109C463.048 509.162 464.807 510.628 466.567 510.628H518.471C520.524 510.628 521.99 508.868 521.99 507.109V364.885H559.525C561.285 364.885 563.044 363.419 563.044 361.66L566.563 318.846C566.563 316.793 565.097 315.034 563.044 315.034H521.697V284.537C521.697 277.499 527.562 271.634 534.6 271.634H563.631C565.683 271.634 567.15 269.874 567.15 268.115V225.301C567.15 223.249 565.39 221.782 563.631 221.782H514.659C485.921 221.782 462.461 245.242 462.461 273.98V315.327H436.363C434.31 315.327 432.844 317.087 432.844 318.846V361.66C432.844 363.712 434.603 365.179 436.363 365.179H462.461V367.525L463.048 367.231Z" fill="#807D9D"/>
<path opacity="0.61" fill-rule="evenodd" clip-rule="evenodd" d="M461.876 366.059V505.936C461.876 507.989 463.635 509.455 465.395 509.455H517.299C519.352 509.455 520.818 507.695 520.818 505.936V363.712H558.353C560.113 363.712 561.872 362.246 561.872 360.487L565.391 317.673C565.391 315.62 563.925 313.861 561.872 313.861H520.525V283.364C520.525 276.326 526.39 270.461 533.428 270.461H562.459C564.511 270.461 565.978 268.701 565.978 266.942V224.128C565.978 222.076 564.218 220.609 562.459 220.609H513.487C484.749 220.609 461.289 244.069 461.289 272.807V314.154H435.191C433.138 314.154 431.672 315.914 431.672 317.673V360.487C431.672 362.54 433.431 364.006 435.191 364.006H461.289V366.352L461.876 366.059Z" fill="#7D7B9B"/>
<path opacity="0.62" fill-rule="evenodd" clip-rule="evenodd" d="M460.407 364.593V504.47C460.407 506.523 462.167 507.989 463.926 507.989H515.831C517.883 507.989 519.349 506.23 519.349 504.47V362.247H556.885C558.644 362.247 560.404 360.781 560.404 359.021L563.923 316.207C563.923 314.155 562.456 312.395 560.404 312.395H519.056V281.898C519.056 274.86 524.921 268.995 531.959 268.995H560.99C563.043 268.995 564.509 267.236 564.509 265.476V222.663C564.509 220.61 562.75 219.144 560.99 219.144H512.018C483.28 219.144 459.821 242.603 459.821 271.341V312.689H433.722C431.669 312.689 430.203 314.448 430.203 316.207V359.021C430.203 361.074 431.963 362.54 433.722 362.54H459.821V364.886L460.407 364.593Z" fill="#7B7899"/>
<path opacity="0.64" fill-rule="evenodd" clip-rule="evenodd" d="M459.239 363.42V503.297C459.239 505.35 460.999 506.816 462.758 506.816H514.662C516.715 506.816 518.181 505.057 518.181 503.297V361.074H555.717C557.476 361.074 559.236 359.608 559.236 357.848L562.754 315.034C562.754 312.982 561.288 311.222 559.236 311.222H517.888V280.725C517.888 273.687 523.753 267.822 530.791 267.822H559.822C561.875 267.822 563.341 266.063 563.341 264.303V221.49C563.341 219.437 561.582 217.971 559.822 217.971H510.85C482.112 217.971 458.653 241.43 458.653 270.168V311.516H432.554C430.501 311.516 429.035 313.275 429.035 315.034V357.848C429.035 359.901 430.795 361.367 432.554 361.367H458.653V363.713L459.239 363.42Z" fill="#787596"/>
<path opacity="0.65" fill-rule="evenodd" clip-rule="evenodd" d="M458.063 361.953V501.831C458.063 503.883 459.823 505.35 461.582 505.35H513.487C515.539 505.35 517.006 503.59 517.006 501.831V359.607H554.541C556.3 359.607 558.06 358.141 558.06 356.381L561.579 313.568C561.579 311.515 560.112 309.756 558.06 309.756H516.712V279.258C516.712 272.22 522.577 266.355 529.615 266.355H558.646C560.699 266.355 562.165 264.596 562.165 262.837V220.023C562.165 217.97 560.406 216.504 558.646 216.504H509.675C480.937 216.504 457.477 239.964 457.477 268.701V310.049H431.378C429.326 310.049 427.859 311.808 427.859 313.568V356.381C427.859 358.434 429.619 359.9 431.378 359.9H457.477V362.246L458.063 361.953Z" fill="#757394"/>
<path opacity="0.66" fill-rule="evenodd" clip-rule="evenodd" d="M456.599 360.781V500.659C456.599 502.711 458.358 504.178 460.118 504.178H512.022C514.075 504.178 515.541 502.418 515.541 500.659V358.435H553.076C554.835 358.435 556.595 356.969 556.595 355.21L560.114 312.396C560.114 310.343 558.648 308.584 556.595 308.584H515.247V278.086C515.247 271.048 521.112 265.183 528.15 265.183H557.181C559.234 265.183 560.7 263.424 560.7 261.665V218.851C560.7 216.798 558.941 215.332 557.181 215.332H508.21C479.472 215.332 456.012 238.792 456.012 267.529V308.877H429.913C427.861 308.877 426.395 310.636 426.395 312.396V355.21C426.395 357.262 428.154 358.728 429.913 358.728H456.012V361.074L456.599 360.781Z" fill="#737092"/>
<path opacity="0.67" fill-rule="evenodd" clip-rule="evenodd" d="M455.423 359.314V499.192C455.423 501.244 457.182 502.71 458.942 502.71H510.846C512.899 502.71 514.365 500.951 514.365 499.192V356.968H551.9C553.66 356.968 555.419 355.502 555.419 353.742L558.938 310.929C558.938 308.876 557.472 307.116 555.419 307.116H514.072V276.619C514.072 269.581 519.937 263.716 526.975 263.716H556.006C558.058 263.716 559.525 261.957 559.525 260.197V217.384C559.525 215.331 557.765 213.865 556.006 213.865H507.034C478.296 213.865 454.836 237.324 454.836 266.062V307.41H428.738C426.685 307.41 425.219 309.169 425.219 310.929V353.742C425.219 355.795 426.978 357.261 428.738 357.261H454.836V359.607L455.423 359.314Z" fill="#706D90"/>
<path opacity="0.69" fill-rule="evenodd" clip-rule="evenodd" d="M453.958 358.141V498.019C453.958 500.071 455.717 501.537 457.477 501.537H509.381C511.434 501.537 512.9 499.778 512.9 498.019V355.795H550.435C552.195 355.795 553.954 354.329 553.954 352.569L557.473 309.756C557.473 307.703 556.007 305.944 553.954 305.944H512.607V275.446C512.607 268.408 518.472 262.543 525.51 262.543H554.541C556.594 262.543 558.06 260.784 558.06 259.024V216.211C558.06 214.158 556.3 212.692 554.541 212.692H505.569C476.831 212.692 453.372 236.151 453.372 264.889V306.237H427.273C425.22 306.237 423.754 307.996 423.754 309.756V352.569C423.754 354.622 425.513 356.088 427.273 356.088H453.372V358.434L453.958 358.141Z" fill="#6D6B8E"/>
<path opacity="0.7" fill-rule="evenodd" clip-rule="evenodd" d="M452.786 356.675V496.553C452.786 498.605 454.546 500.072 456.305 500.072H508.209C510.262 500.072 511.728 498.312 511.728 496.553V354.329H549.264C551.023 354.329 552.782 352.863 552.782 351.103L556.301 308.29C556.301 306.237 554.835 304.478 552.782 304.478H511.435V273.98C511.435 266.942 517.3 261.078 524.338 261.078H553.369C555.422 261.078 556.888 259.318 556.888 257.559V214.745C556.888 212.692 555.128 211.226 553.369 211.226H504.397C475.659 211.226 452.2 234.686 452.2 263.424V304.771H426.101C424.048 304.771 422.582 306.53 422.582 308.29V351.103C422.582 353.156 424.341 354.623 426.101 354.623H452.2V356.968L452.786 356.675Z" fill="#6B688C"/>
<path opacity="0.71" fill-rule="evenodd" clip-rule="evenodd" d="M451.317 355.502V495.38C451.317 497.433 453.077 498.899 454.836 498.899H506.741C508.793 498.899 510.259 497.139 510.259 495.38V353.156H547.795C549.554 353.156 551.314 351.69 551.314 349.931L554.833 307.117C554.833 305.064 553.366 303.305 551.314 303.305H509.966V272.807C509.966 265.77 515.831 259.905 522.869 259.905H551.9C553.953 259.905 555.419 258.145 555.419 256.386V213.572C555.419 211.519 553.66 210.053 551.9 210.053H502.928C474.19 210.053 450.731 233.513 450.731 262.251V303.598H424.632C422.579 303.598 421.113 305.358 421.113 307.117V349.931C421.113 351.983 422.873 353.45 424.632 353.45H450.731V355.796L451.317 355.502Z" fill="#68658A"/>
<path opacity="0.72" fill-rule="evenodd" clip-rule="evenodd" d="M450.146 354.036V493.914C450.146 495.966 451.905 497.432 453.665 497.432H505.569C507.621 497.432 509.088 495.673 509.088 493.914V351.69H546.623C548.382 351.69 550.142 350.224 550.142 348.464L553.661 305.651C553.661 303.598 552.195 301.838 550.142 301.838H508.794V271.341C508.794 264.303 514.659 258.438 521.697 258.438H550.728C552.781 258.438 554.247 256.679 554.247 254.919V212.106C554.247 210.053 552.488 208.587 550.728 208.587H501.757C473.019 208.587 449.559 232.046 449.559 260.784V302.132H423.46C421.408 302.132 419.941 303.891 419.941 305.651V348.464C419.941 350.517 421.701 351.983 423.46 351.983H449.559V354.329L450.146 354.036Z" fill="#656288"/>
<path opacity="0.74" fill-rule="evenodd" clip-rule="evenodd" d="M448.681 352.862V492.739C448.681 494.792 450.44 496.258 452.2 496.258H504.104C506.157 496.258 507.623 494.499 507.623 492.739V350.516H545.158C546.918 350.516 548.677 349.05 548.677 347.29L552.196 304.476C552.196 302.424 550.73 300.664 548.677 300.664H507.33V270.167C507.33 263.129 513.194 257.264 520.232 257.264H549.263C551.316 257.264 552.782 255.505 552.782 253.745V210.931C552.782 208.879 551.023 207.413 549.263 207.413H500.292C471.554 207.413 448.094 230.872 448.094 259.61V300.957H421.995C419.943 300.957 418.477 302.717 418.477 304.476V347.29C418.477 349.343 420.236 350.809 421.995 350.809H448.094V353.155L448.681 352.862Z" fill="#636086"/>
<path opacity="0.75" fill-rule="evenodd" clip-rule="evenodd" d="M447.509 351.396V491.273C447.509 493.326 449.268 494.792 451.028 494.792H502.932C504.985 494.792 506.451 493.033 506.451 491.273V349.05H543.986C545.746 349.05 547.505 347.584 547.505 345.824L551.024 303.011C551.024 300.958 549.558 299.198 547.505 299.198H506.158V268.701C506.158 261.663 512.023 255.798 519.06 255.798H548.092C550.144 255.798 551.611 254.039 551.611 252.279V209.466C551.611 207.413 549.851 205.947 548.092 205.947H499.12C470.382 205.947 446.922 229.406 446.922 258.144V299.492H420.824C418.771 299.492 417.305 301.251 417.305 303.011V345.824C417.305 347.877 419.064 349.343 420.824 349.343H446.922V351.689L447.509 351.396Z" fill="#605D84"/>
<path opacity="0.76" fill-rule="evenodd" clip-rule="evenodd" d="M446.04 350.224V490.101C446.04 492.154 447.799 493.62 449.559 493.62H501.463C503.516 493.62 504.982 491.861 504.982 490.101V347.878H542.517C544.277 347.878 546.036 346.411 546.036 344.652L549.555 301.838C549.555 299.785 548.089 298.026 546.036 298.026H504.689V267.529C504.689 260.491 510.554 254.626 517.592 254.626H546.623C548.676 254.626 550.142 252.866 550.142 251.107V208.293C550.142 206.241 548.382 204.774 546.623 204.774H497.651C468.913 204.774 445.454 228.234 445.454 256.972V298.319H419.355C417.302 298.319 415.836 300.079 415.836 301.838V344.652C415.836 346.705 417.595 348.171 419.355 348.171H445.454V350.517L446.04 350.224Z" fill="#5D5A82"/>
<path opacity="0.77" fill-rule="evenodd" clip-rule="evenodd" d="M444.864 348.757V488.635C444.864 490.687 446.624 492.154 448.383 492.154H500.288C502.34 492.154 503.806 490.394 503.806 488.635V346.411H541.342C543.101 346.411 544.861 344.945 544.861 343.186L548.38 300.372C548.38 298.319 546.913 296.56 544.861 296.56H503.513V266.062C503.513 259.024 509.378 253.16 516.416 253.16H545.447C547.5 253.16 548.966 251.4 548.966 249.641V206.827C548.966 204.774 547.207 203.308 545.447 203.308H496.475C467.737 203.308 444.278 226.768 444.278 255.506V296.853H418.179C416.126 296.853 414.66 298.612 414.66 300.372V343.186C414.66 345.238 416.42 346.705 418.179 346.705H444.278V349.05L444.864 348.757Z" fill="#5B5880"/>
<path opacity="0.79" fill-rule="evenodd" clip-rule="evenodd" d="M443.403 347.585V487.462C443.403 489.515 445.163 490.981 446.922 490.981H498.826C500.879 490.981 502.345 489.222 502.345 487.462V345.239H539.881C541.64 345.239 543.4 343.773 543.4 342.013L546.919 299.2C546.919 297.147 545.452 295.387 543.4 295.387H502.052V264.89C502.052 257.852 507.917 251.987 514.955 251.987H543.986C546.039 251.987 547.505 250.228 547.505 248.468V205.655C547.505 203.602 545.746 202.136 543.986 202.136H495.014C466.276 202.136 442.817 225.595 442.817 254.333V295.681H416.718C414.665 295.681 413.199 297.44 413.199 299.2V342.013C413.199 344.066 414.959 345.532 416.718 345.532H442.817V347.878L443.403 347.585Z" fill="#58557E"/>
<path opacity="0.8" fill-rule="evenodd" clip-rule="evenodd" d="M442.228 346.411V486.288C442.228 488.341 443.987 489.807 445.747 489.807H497.651C499.704 489.807 501.17 488.048 501.17 486.288V344.065H538.705C540.464 344.065 542.224 342.598 542.224 340.839L545.743 298.025C545.743 295.973 544.277 294.213 542.224 294.213H500.876V263.716C500.876 256.678 506.741 250.813 513.779 250.813H542.81C544.863 250.813 546.329 249.054 546.329 247.294V204.48C546.329 202.428 544.57 200.961 542.81 200.961H493.839C465.101 200.961 441.641 224.421 441.641 253.159V294.506H415.542C413.49 294.506 412.023 296.266 412.023 298.025V340.839C412.023 342.892 413.783 344.358 415.542 344.358H441.641V346.704L442.228 346.411Z" fill="#55527C"/>
<path opacity="0.81" fill-rule="evenodd" clip-rule="evenodd" d="M440.763 344.944V484.822C440.763 486.874 442.522 488.341 444.282 488.341H496.186C498.239 488.341 499.705 486.581 499.705 484.822V342.598H537.24C539 342.598 540.759 341.132 540.759 339.373L544.278 296.559C544.278 294.506 542.812 292.747 540.759 292.747H499.412V262.249C499.412 255.212 505.277 249.347 512.314 249.347H541.345C543.398 249.347 544.864 247.587 544.864 245.828V203.014C544.864 200.961 543.105 199.495 541.345 199.495H492.374C463.636 199.495 440.176 222.955 440.176 251.693V293.04H414.077C412.025 293.04 410.559 294.8 410.559 296.559V339.373C410.559 341.425 412.318 342.892 414.077 342.892H440.176V345.238L440.763 344.944Z" fill="#53507A"/>
<path opacity="0.82" fill-rule="evenodd" clip-rule="evenodd" d="M439.587 343.771V483.649C439.587 485.702 441.346 487.168 443.106 487.168H495.01C497.063 487.168 498.529 485.408 498.529 483.649V341.425H536.064C537.824 341.425 539.583 339.959 539.583 338.2L543.102 295.386C543.102 293.333 541.636 291.574 539.583 291.574H498.236V261.077C498.236 254.039 504.101 248.174 511.139 248.174H540.17C542.222 248.174 543.689 246.414 543.689 244.655V201.841C543.689 199.788 541.929 198.322 540.17 198.322H491.198C462.46 198.322 439.001 221.782 439.001 250.52V291.867H412.902C410.849 291.867 409.383 293.627 409.383 295.386V338.2C409.383 340.253 411.142 341.719 412.902 341.719H439.001V344.065L439.587 343.771Z" fill="#504D78"/>
<path opacity="0.84" fill-rule="evenodd" clip-rule="evenodd" d="M438.419 342.306V482.183C438.419 484.236 440.179 485.702 441.938 485.702H493.842C495.895 485.702 497.361 483.943 497.361 482.183V339.96H534.896C536.656 339.96 538.415 338.493 538.415 336.734L541.934 293.92C541.934 291.868 540.468 290.108 538.415 290.108H497.068V259.611C497.068 252.573 502.933 246.708 509.971 246.708H539.002C541.055 246.708 542.521 244.948 542.521 243.189V200.375C542.521 198.323 540.761 196.856 539.002 196.856H490.03C461.292 196.856 437.833 220.316 437.833 249.054V290.401H411.734C409.681 290.401 408.215 292.161 408.215 293.92V336.734C408.215 338.787 409.974 340.253 411.734 340.253H437.833V342.599L438.419 342.306Z" fill="#4D4A76"/>
<path opacity="0.85" fill-rule="evenodd" clip-rule="evenodd" d="M436.95 341.133V481.01C436.95 483.063 438.71 484.529 440.469 484.529H492.373C494.426 484.529 495.892 482.77 495.892 481.01V338.787H533.428C535.187 338.787 536.947 337.321 536.947 335.561L540.466 292.747C540.466 290.695 538.999 288.935 536.947 288.935H495.599V258.438C495.599 251.4 501.464 245.535 508.502 245.535H537.533C539.586 245.535 541.052 243.776 541.052 242.016V199.202C541.052 197.15 539.292 195.684 537.533 195.684H488.561C459.823 195.684 436.364 219.143 436.364 247.881V289.229H410.265C408.212 289.229 406.746 290.988 406.746 292.747V335.561C406.746 337.614 408.506 339.08 410.265 339.08H436.364V341.426L436.95 341.133Z" fill="#4B4774"/>
<path opacity="0.86" fill-rule="evenodd" clip-rule="evenodd" d="M435.775 339.666V479.544C435.775 481.597 437.534 483.063 439.293 483.063H491.198C493.25 483.063 494.717 481.303 494.717 479.544V337.321H532.252C534.011 337.321 535.771 335.854 535.771 334.095L539.29 291.281C539.29 289.228 537.824 287.469 535.771 287.469H494.423V256.972C494.423 249.934 500.288 244.069 507.326 244.069H536.357C538.41 244.069 539.876 242.309 539.876 240.55V197.736C539.876 195.683 538.117 194.217 536.357 194.217H487.385C458.648 194.217 435.188 217.677 435.188 246.415V287.762H409.089C407.037 287.762 405.57 289.522 405.57 291.281V334.095C405.57 336.148 407.33 337.614 409.089 337.614H435.188V339.96L435.775 339.666Z" fill="#484572"/>
<path opacity="0.87" fill-rule="evenodd" clip-rule="evenodd" d="M434.31 338.494V478.372C434.31 480.424 436.069 481.891 437.829 481.891H489.733C491.786 481.891 493.252 480.131 493.252 478.372V336.148H530.787C532.546 336.148 534.306 334.682 534.306 332.922L537.825 290.109C537.825 288.056 536.359 286.297 534.306 286.297H492.959V255.799C492.959 248.761 498.823 242.896 505.861 242.896H534.892C536.945 242.896 538.411 241.137 538.411 239.378V196.564C538.411 194.511 536.652 193.045 534.892 193.045H485.921C457.183 193.045 433.723 216.505 433.723 245.242V286.59H407.624C405.572 286.59 404.105 288.349 404.105 290.109V332.922C404.105 334.975 405.865 336.441 407.624 336.441H433.723V338.787L434.31 338.494Z" fill="#464270"/>
<path opacity="0.89" fill-rule="evenodd" clip-rule="evenodd" d="M433.138 337.028V476.906C433.138 478.958 434.897 480.425 436.657 480.425H488.561C490.614 480.425 492.08 478.665 492.08 476.906V334.682H529.615C531.375 334.682 533.134 333.216 533.134 331.457L536.653 288.643C536.653 286.59 535.187 284.831 533.134 284.831H491.787V254.333C491.787 247.295 497.652 241.431 504.689 241.431H533.721C535.773 241.431 537.24 239.671 537.24 237.912V195.098C537.24 193.045 535.48 191.579 533.721 191.579H484.749C456.011 191.579 432.551 215.039 432.551 243.777V285.124H406.453C404.4 285.124 402.934 286.884 402.934 288.643V331.457C402.934 333.509 404.693 334.976 406.453 334.976H432.551V337.322L433.138 337.028Z" fill="#433F6D"/>
<path opacity="0.9" fill-rule="evenodd" clip-rule="evenodd" d="M431.673 335.855V475.732C431.673 477.785 433.432 479.251 435.192 479.251H487.096C489.149 479.251 490.615 477.491 490.615 475.732V333.509H528.15C529.91 333.509 531.669 332.042 531.669 330.283L535.188 287.469C535.188 285.416 533.722 283.657 531.669 283.657H490.322V253.16C490.322 246.122 496.187 240.257 503.225 240.257H532.256C534.308 240.257 535.775 238.497 535.775 236.738V193.924C535.775 191.872 534.015 190.405 532.256 190.405H483.284C454.546 190.405 431.086 213.865 431.086 242.603V283.95H404.988C402.935 283.95 401.469 285.71 401.469 287.469V330.283C401.469 332.336 403.228 333.802 404.988 333.802H431.086V336.148L431.673 335.855Z" fill="#403D6B"/>
<path opacity="0.91" fill-rule="evenodd" clip-rule="evenodd" d="M430.497 334.388V474.266C430.497 476.318 432.257 477.785 434.016 477.785H485.92C487.973 477.785 489.439 476.025 489.439 474.266V332.042H526.975C528.734 332.042 530.493 330.576 530.493 328.816L534.012 286.003C534.012 283.95 532.546 282.191 530.493 282.191H489.146V251.693C489.146 244.655 495.011 238.791 502.049 238.791H531.08C533.133 238.791 534.599 237.031 534.599 235.272V192.458C534.599 190.405 532.839 188.939 531.08 188.939H482.108C453.37 188.939 429.911 212.398 429.911 241.136V282.484H403.812C401.759 282.484 400.293 284.243 400.293 286.003V328.816C400.293 330.869 402.053 332.335 403.812 332.335H429.911V334.681L430.497 334.388Z" fill="#3E3A69"/>
<path opacity="0.92" fill-rule="evenodd" clip-rule="evenodd" d="M429.028 333.215V473.093C429.028 475.145 430.788 476.612 432.547 476.612H484.452C486.504 476.612 487.971 474.852 487.971 473.093V330.869H525.506C527.265 330.869 529.025 329.403 529.025 327.644L532.544 284.83C532.544 282.777 531.077 281.018 529.025 281.018H487.677V250.52C487.677 243.483 493.542 237.618 500.58 237.618H529.611C531.664 237.618 533.13 235.858 533.13 234.099V191.285C533.13 189.232 531.371 187.766 529.611 187.766H480.639C451.901 187.766 428.442 211.226 428.442 239.964V281.311H402.343C400.291 281.311 398.824 283.071 398.824 284.83V327.644C398.824 329.696 400.584 331.163 402.343 331.163H428.442V333.509L429.028 333.215Z" fill="#3B3767"/>
<path opacity="0.94" fill-rule="evenodd" clip-rule="evenodd" d="M427.86 331.749V471.626C427.86 473.679 429.62 475.145 431.379 475.145H483.284C485.336 475.145 486.802 473.386 486.802 471.626V329.403H524.338C526.097 329.403 527.857 327.937 527.857 326.177L531.376 283.364C531.376 281.311 529.909 279.551 527.857 279.551H486.509V249.054C486.509 242.016 492.374 236.151 499.412 236.151H528.443C530.496 236.151 531.962 234.392 531.962 232.632V189.819C531.962 187.766 530.203 186.3 528.443 186.3H479.471C450.733 186.3 427.274 209.759 427.274 238.497V279.845H401.175C399.122 279.845 397.656 281.604 397.656 283.364V326.177C397.656 328.23 399.416 329.696 401.175 329.696H427.274V332.042L427.86 331.749Z" fill="#383565"/>
<path opacity="0.95" fill-rule="evenodd" clip-rule="evenodd" d="M426.392 330.576V470.454C426.392 472.506 428.151 473.973 429.911 473.973H481.815C483.868 473.973 485.334 472.213 485.334 470.454V328.23H522.869C524.628 328.23 526.388 326.764 526.388 325.004L529.907 282.191C529.907 280.138 528.441 278.379 526.388 278.379H485.041V247.881C485.041 240.843 490.905 234.979 497.943 234.979H526.975C529.027 234.979 530.493 233.219 530.493 231.46V188.646C530.493 186.593 528.734 185.127 526.975 185.127H478.003C449.265 185.127 425.805 208.587 425.805 237.325V278.672H399.707C397.654 278.672 396.188 280.431 396.188 282.191V325.004C396.188 327.057 397.947 328.523 399.707 328.523H425.805V330.869L426.392 330.576Z" fill="#363263"/>
<path opacity="0.96" fill-rule="evenodd" clip-rule="evenodd" d="M425.22 329.11V468.988C425.22 471.041 426.979 472.507 428.739 472.507H480.643C482.696 472.507 484.162 470.747 484.162 468.988V326.764H521.697C523.457 326.764 525.216 325.298 525.216 323.539L528.735 280.725C528.735 278.672 527.269 276.913 525.216 276.913H483.869V246.415C483.869 239.378 489.733 233.513 496.771 233.513H525.803C527.855 233.513 529.321 231.753 529.321 229.994V187.18C529.321 185.127 527.562 183.661 525.803 183.661H476.831C448.093 183.661 424.633 207.121 424.633 235.859V277.206H398.535C396.482 277.206 395.016 278.966 395.016 280.725V323.539C395.016 325.591 396.775 327.058 398.535 327.058H424.633V329.404L425.22 329.11Z" fill="#332F61"/>
<path opacity="0.97" fill-rule="evenodd" clip-rule="evenodd" d="M423.751 327.937V467.815C423.751 469.867 425.511 471.333 427.27 471.333H479.174C481.227 471.333 482.693 469.574 482.693 467.815V325.591H520.228C521.988 325.591 523.747 324.125 523.747 322.365L527.266 279.552C527.266 277.499 525.8 275.739 523.747 275.739H482.4V245.242C482.4 238.204 488.265 232.339 495.303 232.339H524.334C526.387 232.339 527.853 230.58 527.853 228.82V186.007C527.853 183.954 526.093 182.488 524.334 182.488H475.362C446.624 182.488 423.165 205.947 423.165 234.685V276.033H397.066C395.013 276.033 393.547 277.792 393.547 279.552V322.365C393.547 324.418 395.306 325.884 397.066 325.884H423.165V328.23L423.751 327.937Z" fill="#302C5F"/>
<path opacity="0.99" fill-rule="evenodd" clip-rule="evenodd" d="M422.583 326.764V466.641C422.583 468.694 424.342 470.16 426.102 470.16H478.006C480.059 470.16 481.525 468.401 481.525 466.641V324.418H519.06C520.82 324.418 522.579 322.951 522.579 321.192L526.098 278.378C526.098 276.326 524.632 274.566 522.579 274.566H481.232V244.069C481.232 237.031 487.097 231.166 494.135 231.166H523.166C525.219 231.166 526.685 229.406 526.685 227.647V184.833C526.685 182.781 524.925 181.314 523.166 181.314H474.194C445.456 181.314 421.997 204.774 421.997 233.512V274.859H395.898C393.845 274.859 392.379 276.619 392.379 278.378V321.192C392.379 323.245 394.138 324.711 395.898 324.711H421.997V327.057L422.583 326.764Z" fill="#2E2A5D"/>
<path fill-rule="evenodd" clip-rule="evenodd" d="M421.114 325.297V465.175C421.114 467.228 422.874 468.694 424.633 468.694H476.538C478.59 468.694 480.056 466.934 480.056 465.175V322.951H517.592C519.351 322.951 521.111 321.485 521.111 319.726L524.63 276.912C524.63 274.859 523.163 273.1 521.111 273.1H479.763V242.603C479.763 235.565 485.628 229.7 492.666 229.7H521.697C523.75 229.7 525.216 227.94 525.216 226.181V183.367C525.216 181.314 523.457 179.848 521.697 179.848H472.725C443.987 179.848 420.528 203.308 420.528 232.046V273.393H394.429C392.376 273.393 390.91 275.153 390.91 276.912V319.726C390.91 321.778 392.67 323.245 394.429 323.245H420.528V325.591L421.114 325.297Z" fill="#2B275B"/>
</g>
<path fill-rule="evenodd" clip-rule="evenodd" d="M421.114 325.297V465.175C421.114 467.228 422.874 468.694 424.633 468.694H476.538C478.59 468.694 480.056 466.934 480.056 465.175V322.951H517.592C519.351 322.951 521.111 321.485 521.111 319.726L524.63 276.912C524.63 274.859 523.163 273.1 521.111 273.1H479.763V242.603C479.763 235.565 485.628 229.7 492.666 229.7H521.697C523.75 229.7 525.216 227.94 525.216 226.181V183.367C525.216 181.314 523.457 179.848 521.697 179.848H472.725C443.987 179.848 420.528 203.308 420.528 232.046V273.393H394.429C392.376 273.393 390.91 275.153 390.91 276.912V319.726C390.91 321.778 392.67 323.245 394.429 323.245H420.528V325.591L421.114 325.297Z" fill="white"/>
<defs>
<linearGradient id="paint0_linear_203_2" x1="207.341" y1="94.2207" x2="778.287" y2="665.167" gradientUnits="userSpaceOnUse">
<stop stop-color="#48A5D1"/>
<stop offset="0.45" stop-color="#285DB7"/>
<stop offset="1" stop-color="#000398"/>
</linearGradient>
<linearGradient id="paint1_linear_203_2" x1="668.612" y1="541.125" x2="258.363" y2="130.876" gradientUnits="userSpaceOnUse">
<stop stop-color="#48A5D1"/>
<stop offset="0.45" stop-color="#285DB7"/>
<stop offset="1" stop-color="#000398"/>
</linearGradient>
</defs>
</svg>
