<svg width="890" height="749" viewBox="0 0 890 749" fill="none" xmlns="http://www.w3.org/2000/svg">
<path d="M76.2605 568.86C31.9806 551.559 4.70893 503.76 0.896757 456.255C-2.91542 408.749 12.9197 361.83 34.0333 319.016C89.7497 206.117 183.881 112.572 297.073 57.4426C410.266 2.31266 541.932 -13.8158 665.095 11.9897C716.12 22.8398 766.557 41.0209 805.852 75.0372C868.02 128.994 893.825 216.381 888.547 298.489C883.269 380.598 850.719 458.601 812.304 531.618C783.272 587.042 749.549 641.292 702.924 682.932C656.298 724.573 594.716 752.725 532.255 748.033C402.641 738.062 314.082 596.132 185.054 580.59C148.692 576.192 110.277 582.056 75.9672 568.86H76.2605Z" fill="url(#paint0_linear_203_88)"/>
<path d="M174.789 491.151C142.238 478.542 122.298 443.352 119.365 408.456C116.433 373.56 128.163 339.251 143.705 307.873C184.466 225.179 253.378 156.559 336.366 116.092C419.354 75.6239 515.832 63.8941 606.151 82.955C643.393 90.8726 680.635 104.362 709.373 129.288C755.119 168.876 773.886 232.803 770.074 293.211C766.262 353.326 742.216 410.509 714.065 463.879C692.658 504.347 668.025 544.228 634.009 574.726C599.699 605.223 554.833 626.043 509.087 622.524C414.076 615.193 349.269 511.385 254.551 499.655C227.866 496.429 199.714 500.828 174.495 490.858L174.789 491.151Z" fill="url(#paint1_linear_203_88)"/>
<g style="mix-blend-mode:multiply" opacity="0.6">
<path opacity="0.01" d="M669.494 346.288C669.494 355.965 661.576 364.175 651.606 364.175C641.636 364.175 633.718 356.258 633.718 346.288C633.718 336.317 641.636 328.4 651.606 328.4C661.576 328.4 669.494 336.317 669.494 346.288ZM620.522 425.757C620.522 399.365 599.115 377.958 572.723 377.958C546.331 377.958 524.924 399.365 524.924 425.757C524.924 452.149 546.331 473.556 572.723 473.556C599.115 473.556 620.522 452.149 620.522 425.757ZM647.207 425.757C647.207 466.811 613.777 500.241 572.723 500.241C531.669 500.241 498.239 466.811 498.239 425.757C498.239 384.703 531.669 351.273 572.723 351.273C613.777 351.273 647.207 384.703 647.207 425.757ZM694.126 488.511C694.126 523.114 666.268 550.972 631.665 550.972H509.382C474.779 550.972 446.921 523.114 446.921 488.511V366.228C446.921 331.625 474.779 303.767 509.382 303.767H631.665C666.268 303.767 694.126 331.625 694.126 366.228V488.511ZM722.278 366.522C722.278 316.377 681.517 275.616 631.372 275.616H509.382C459.237 275.616 418.477 316.377 418.477 366.522V488.511C418.477 538.656 459.237 579.417 509.382 579.417H631.372C681.517 579.417 722.278 538.656 722.278 488.511V366.522Z" fill="#FDFCFD"/>
<path opacity="0.02" d="M668.318 344.822C668.318 354.499 660.4 362.71 650.43 362.71C640.46 362.71 632.542 354.792 632.542 344.822C632.542 334.851 640.46 326.934 650.43 326.934C660.4 326.934 668.318 334.851 668.318 344.822ZM619.346 424.291C619.346 397.899 597.939 376.492 571.547 376.492C545.155 376.492 523.749 397.899 523.749 424.291C523.749 450.683 545.155 472.09 571.547 472.09C597.939 472.09 619.346 450.683 619.346 424.291ZM646.031 424.291C646.031 465.345 612.602 498.775 571.547 498.775C530.493 498.775 497.063 465.345 497.063 424.291C497.063 383.237 530.493 349.807 571.547 349.807C612.602 349.807 646.031 383.237 646.031 424.291ZM692.95 487.045C692.95 521.648 665.092 549.506 630.489 549.506H508.207C473.604 549.506 445.746 521.648 445.746 487.045V364.762C445.746 330.16 473.604 302.301 508.207 302.301H630.489C665.092 302.301 692.95 330.16 692.95 364.762V487.045ZM721.102 365.056C721.102 314.911 680.341 274.15 630.196 274.15H508.207C458.062 274.15 417.301 314.911 417.301 365.056V487.045C417.301 537.19 458.062 577.951 508.207 577.951H630.196C680.341 577.951 721.102 537.19 721.102 487.045V365.056Z" fill="#FBFAFC"/>
<path opacity="0.04" d="M667.15 343.649C667.15 353.326 659.232 361.537 649.262 361.537C639.292 361.537 631.374 353.619 631.374 343.649C631.374 333.679 639.292 325.761 649.262 325.761C659.232 325.761 667.15 333.679 667.15 343.649ZM618.178 423.118C618.178 396.726 596.771 375.319 570.379 375.319C543.987 375.319 522.581 396.726 522.581 423.118C522.581 449.51 543.987 470.917 570.379 470.917C596.771 470.917 618.178 449.51 618.178 423.118ZM644.863 423.118C644.863 464.172 611.434 497.602 570.379 497.602C529.325 497.602 495.895 464.172 495.895 423.118C495.895 382.064 529.325 348.634 570.379 348.634C611.434 348.634 644.863 382.064 644.863 423.118ZM691.782 485.872C691.782 520.475 663.924 548.333 629.322 548.333H507.039C472.436 548.333 444.578 520.475 444.578 485.872V363.59C444.578 328.987 472.436 301.129 507.039 301.129H629.322C663.924 301.129 691.782 328.987 691.782 363.59V485.872ZM719.934 363.883C719.934 313.738 679.173 272.977 629.028 272.977H507.039C456.894 272.977 416.133 313.738 416.133 363.883V485.872C416.133 536.017 456.894 576.778 507.039 576.778H629.028C679.173 576.778 719.934 536.017 719.934 485.872V363.883Z" fill="#F9F7FA"/>
<path opacity="0.05" d="M665.681 342.476C665.681 352.153 657.763 360.364 647.793 360.364C637.823 360.364 629.905 352.446 629.905 342.476C629.905 332.506 637.823 324.588 647.793 324.588C657.763 324.588 665.681 332.506 665.681 342.476ZM616.709 421.945C616.709 395.553 595.303 374.146 568.911 374.146C542.519 374.146 521.112 395.553 521.112 421.945C521.112 448.337 542.519 469.744 568.911 469.744C595.303 469.744 616.709 448.337 616.709 421.945ZM643.394 421.945C643.394 462.999 609.965 496.429 568.911 496.429C527.856 496.429 494.427 462.999 494.427 421.945C494.427 380.891 527.856 347.461 568.911 347.461C609.965 347.461 643.394 380.891 643.394 421.945ZM690.314 484.7C690.314 519.302 662.455 547.161 627.853 547.161H505.57C470.967 547.161 443.109 519.302 443.109 484.7V362.417C443.109 327.814 470.967 299.956 505.57 299.956H627.853C662.455 299.956 690.314 327.814 690.314 362.417V484.7ZM718.465 362.71C718.465 312.565 677.704 271.804 627.559 271.804H505.57C455.425 271.804 414.664 312.565 414.664 362.71V484.7C414.664 534.844 455.425 575.605 505.57 575.605H627.559C677.704 575.605 718.465 534.844 718.465 484.7V362.71Z" fill="#F7F5F9"/>
<path opacity="0.06" d="M664.509 341.304C664.509 350.981 656.592 359.192 646.621 359.192C636.651 359.192 628.733 351.274 628.733 341.304C628.733 331.333 636.651 323.416 646.621 323.416C656.592 323.416 664.509 331.333 664.509 341.304ZM615.537 420.773C615.537 394.381 594.131 372.974 567.739 372.974C541.347 372.974 519.94 394.381 519.94 420.773C519.94 447.165 541.347 468.572 567.739 468.572C594.131 468.572 615.537 447.165 615.537 420.773ZM642.223 420.773C642.223 461.827 608.793 495.257 567.739 495.257C526.685 495.257 493.255 461.827 493.255 420.773C493.255 379.719 526.685 346.289 567.739 346.289C608.793 346.289 642.223 379.719 642.223 420.773ZM689.142 483.527C689.142 518.13 661.283 545.988 626.681 545.988H504.398C469.795 545.988 441.937 518.13 441.937 483.527V361.244C441.937 326.641 469.795 298.783 504.398 298.783H626.681C661.283 298.783 689.142 326.641 689.142 361.244V483.527ZM717.293 361.538C717.293 311.393 676.532 270.632 626.388 270.632H504.398C454.253 270.632 413.492 311.393 413.492 361.538V483.527C413.492 533.672 454.253 574.433 504.398 574.433H626.388C676.532 574.433 717.293 533.672 717.293 483.527V361.538Z" fill="#F5F2F7"/>
<path opacity="0.07" d="M663.337 339.836C663.337 349.513 655.42 357.724 645.449 357.724C635.479 357.724 627.562 349.807 627.562 339.836C627.562 329.866 635.479 321.948 645.449 321.948C655.42 321.948 663.337 329.866 663.337 339.836ZM614.366 419.306C614.366 392.914 592.959 371.507 566.567 371.507C540.175 371.507 518.768 392.914 518.768 419.306C518.768 445.698 540.175 467.104 566.567 467.104C592.959 467.104 614.366 445.698 614.366 419.306ZM641.051 419.306C641.051 460.36 607.621 493.79 566.567 493.79C525.513 493.79 492.083 460.36 492.083 419.306C492.083 378.251 525.513 344.822 566.567 344.822C607.621 344.822 641.051 378.251 641.051 419.306ZM687.97 482.06C687.97 516.663 660.112 544.521 625.509 544.521H503.226C468.623 544.521 440.765 516.663 440.765 482.06V359.777C440.765 325.174 468.623 297.316 503.226 297.316H625.509C660.112 297.316 687.97 325.174 687.97 359.777V482.06ZM716.121 360.07C716.121 309.925 675.36 269.165 625.216 269.165H503.226C453.081 269.165 412.32 309.925 412.32 360.07V482.06C412.32 532.205 453.081 572.966 503.226 572.966H625.216C675.36 572.966 716.121 532.205 716.121 482.06V360.07Z" fill="#F3F0F6"/>
<path opacity="0.08" d="M661.869 338.663C661.869 348.34 653.951 356.551 643.981 356.551C634.011 356.551 626.093 348.633 626.093 338.663C626.093 328.693 634.011 320.775 643.981 320.775C653.951 320.775 661.869 328.693 661.869 338.663ZM612.897 418.132C612.897 391.74 591.49 370.333 565.098 370.333C538.706 370.333 517.299 391.74 517.299 418.132C517.299 444.524 538.706 465.931 565.098 465.931C591.49 465.931 612.897 444.524 612.897 418.132ZM639.582 418.132C639.582 459.186 606.152 492.616 565.098 492.616C524.044 492.616 490.614 459.186 490.614 418.132C490.614 377.078 524.044 343.648 565.098 343.648C606.152 343.648 639.582 377.078 639.582 418.132ZM686.501 480.886C686.501 515.489 658.643 543.348 624.04 543.348H501.757C467.155 543.348 439.296 515.489 439.296 480.886V358.604C439.296 324.001 467.155 296.143 501.757 296.143H624.04C658.643 296.143 686.501 324.001 686.501 358.604V480.886ZM714.653 358.897C714.653 308.752 673.892 267.991 623.747 267.991H501.757C451.613 267.991 410.852 308.752 410.852 358.897V480.886C410.852 531.031 451.613 571.792 501.757 571.792H623.747C673.892 571.792 714.653 531.031 714.653 480.886V358.897Z" fill="#F1EDF4"/>
<path opacity="0.1" d="M660.697 337.491C660.697 347.168 652.779 355.379 642.809 355.379C632.838 355.379 624.921 347.461 624.921 337.491C624.921 327.521 632.838 319.603 642.809 319.603C652.779 319.603 660.697 327.521 660.697 337.491ZM611.725 416.96C611.725 390.568 590.318 369.162 563.926 369.162C537.534 369.162 516.127 390.568 516.127 416.96C516.127 443.352 537.534 464.759 563.926 464.759C590.318 464.759 611.725 443.352 611.725 416.96ZM638.41 416.96C638.41 458.015 604.98 491.444 563.926 491.444C522.872 491.444 489.442 458.015 489.442 416.96C489.442 375.906 522.872 342.476 563.926 342.476C604.98 342.476 638.41 375.906 638.41 416.96ZM685.329 479.715C685.329 514.318 657.471 542.176 622.868 542.176H500.585C465.983 542.176 438.124 514.318 438.124 479.715V357.432C438.124 322.829 465.983 294.971 500.585 294.971H622.868C657.471 294.971 685.329 322.829 685.329 357.432V479.715ZM713.481 357.725C713.481 307.58 672.72 266.819 622.575 266.819H500.585C450.441 266.819 409.68 307.58 409.68 357.725V479.715C409.68 529.859 450.441 570.62 500.585 570.62H622.575C672.72 570.62 713.481 529.859 713.481 479.715V357.725Z" fill="#EFEBF3"/>
<path opacity="0.11" d="M659.521 336.024C659.521 345.701 651.603 353.912 641.633 353.912C631.663 353.912 623.745 345.995 623.745 336.024C623.745 326.054 631.663 318.136 641.633 318.136C651.603 318.136 659.521 326.054 659.521 336.024ZM610.549 415.494C610.549 389.102 589.142 367.695 562.75 367.695C536.358 367.695 514.951 389.102 514.951 415.494C514.951 441.886 536.358 463.292 562.75 463.292C589.142 463.292 610.549 441.886 610.549 415.494ZM637.234 415.494C637.234 456.548 603.804 489.978 562.75 489.978C521.696 489.978 488.266 456.548 488.266 415.494C488.266 374.439 521.696 341.009 562.75 341.009C603.804 341.009 637.234 374.439 637.234 415.494ZM684.154 478.248C684.154 512.851 656.295 540.709 621.692 540.709H499.41C464.807 540.709 436.949 512.851 436.949 478.248V355.965C436.949 321.362 464.807 293.504 499.41 293.504H621.692C656.295 293.504 684.154 321.362 684.154 355.965V478.248ZM712.305 356.258C712.305 306.113 671.544 265.353 621.399 265.353H499.41C449.265 265.353 408.504 306.113 408.504 356.258V478.248C408.504 528.393 449.265 569.154 499.41 569.154H621.399C671.544 569.154 712.305 528.393 712.305 478.248V356.258Z" fill="#EDE8F1"/>
<path opacity="0.12" d="M658.06 334.852C658.06 344.529 650.143 352.74 640.172 352.74C630.202 352.74 622.284 344.822 622.284 334.852C622.284 324.882 630.202 316.964 640.172 316.964C650.143 316.964 658.06 324.882 658.06 334.852ZM609.088 414.321C609.088 387.929 587.681 366.522 561.29 366.522C534.898 366.522 513.491 387.929 513.491 414.321C513.491 440.713 534.898 462.12 561.29 462.12C587.681 462.12 609.088 440.713 609.088 414.321ZM635.774 414.321C635.774 455.375 602.344 488.805 561.29 488.805C520.235 488.805 486.805 455.375 486.805 414.321C486.805 373.267 520.235 339.837 561.29 339.837C602.344 339.837 635.774 373.267 635.774 414.321ZM682.693 477.076C682.693 511.678 654.834 539.537 620.232 539.537H497.949C463.346 539.537 435.488 511.678 435.488 477.076V354.793C435.488 320.19 463.346 292.332 497.949 292.332H620.232C654.834 292.332 682.693 320.19 682.693 354.793V477.076ZM710.844 355.086C710.844 304.941 670.083 264.18 619.938 264.18H497.949C447.804 264.18 407.043 304.941 407.043 355.086V477.076C407.043 527.22 447.804 567.981 497.949 567.981H619.938C670.083 567.981 710.844 527.22 710.844 477.076V355.086Z" fill="#EBE5F0"/>
<path opacity="0.13" d="M656.884 333.678C656.884 343.355 648.967 351.566 638.996 351.566C629.026 351.566 621.109 343.649 621.109 333.678C621.109 323.708 629.026 315.79 638.996 315.79C648.967 315.79 656.884 323.708 656.884 333.678ZM607.912 413.147C607.912 386.756 586.506 365.349 560.114 365.349C533.722 365.349 512.315 386.756 512.315 413.147C512.315 439.539 533.722 460.946 560.114 460.946C586.506 460.946 607.912 439.539 607.912 413.147ZM634.598 413.147C634.598 454.202 601.168 487.631 560.114 487.631C519.06 487.631 485.63 454.202 485.63 413.147C485.63 372.093 519.06 338.663 560.114 338.663C601.168 338.663 634.598 372.093 634.598 413.147ZM681.517 475.902C681.517 510.505 653.659 538.363 619.056 538.363H496.773C462.17 538.363 434.312 510.505 434.312 475.902V353.619C434.312 319.016 462.17 291.158 496.773 291.158H619.056C653.659 291.158 681.517 319.016 681.517 353.619V475.902ZM709.668 353.912C709.668 303.767 668.907 263.006 618.763 263.006H496.773C446.628 263.006 405.867 303.767 405.867 353.912V475.902C405.867 526.047 446.628 566.807 496.773 566.807H618.763C668.907 566.807 709.668 526.047 709.668 475.902V353.912Z" fill="#E9E3EE"/>
<path opacity="0.14" d="M655.713 332.212C655.713 341.889 647.795 350.1 637.825 350.1C627.854 350.1 619.937 342.183 619.937 332.212C619.937 322.242 627.854 314.324 637.825 314.324C647.795 314.324 655.713 322.242 655.713 332.212ZM606.741 411.682C606.741 385.29 585.334 363.883 558.942 363.883C532.55 363.883 511.143 385.29 511.143 411.682C511.143 438.074 532.55 459.48 558.942 459.48C585.334 459.48 606.741 438.074 606.741 411.682ZM633.426 411.682C633.426 452.736 599.996 486.166 558.942 486.166C517.888 486.166 484.458 452.736 484.458 411.682C484.458 370.627 517.888 337.198 558.942 337.198C599.996 337.198 633.426 370.627 633.426 411.682ZM680.345 474.436C680.345 509.039 652.487 536.897 617.884 536.897H495.601C460.998 536.897 433.14 509.039 433.14 474.436V352.153C433.14 317.55 460.998 289.692 495.601 289.692H617.884C652.487 289.692 680.345 317.55 680.345 352.153V474.436ZM708.496 352.446C708.496 302.302 667.735 261.541 617.591 261.541H495.601C445.456 261.541 404.695 302.302 404.695 352.446V474.436C404.695 524.581 445.456 565.342 495.601 565.342H617.591C667.735 565.342 708.496 524.581 708.496 474.436V352.446Z" fill="#E7E0ED"/>
<path opacity="0.15" d="M654.537 331.04C654.537 340.717 646.619 348.927 636.649 348.927C626.679 348.927 618.761 341.01 618.761 331.04C618.761 321.069 626.679 313.152 636.649 313.152C646.619 313.152 654.537 321.069 654.537 331.04ZM605.565 410.509C605.565 384.117 584.158 362.71 557.766 362.71C531.374 362.71 509.967 384.117 509.967 410.509C509.967 436.901 531.374 458.308 557.766 458.308C584.158 458.308 605.565 436.901 605.565 410.509ZM632.25 410.509C632.25 451.563 598.82 484.993 557.766 484.993C516.712 484.993 483.282 451.563 483.282 410.509C483.282 369.455 516.712 336.025 557.766 336.025C598.82 336.025 632.25 369.455 632.25 410.509ZM679.169 473.263C679.169 507.866 651.311 535.724 616.708 535.724H494.425C459.823 535.724 431.964 507.866 431.964 473.263V350.98C431.964 316.377 459.823 288.519 494.425 288.519H616.708C651.311 288.519 679.169 316.377 679.169 350.98V473.263ZM707.321 351.273C707.321 301.129 666.56 260.368 616.415 260.368H494.425C444.281 260.368 403.52 301.129 403.52 351.273V473.263C403.52 523.408 444.281 564.169 494.425 564.169H616.415C666.56 564.169 707.321 523.408 707.321 473.263V351.273Z" fill="#E5DEEB"/>
<path opacity="0.17" d="M653.076 329.867C653.076 339.544 645.158 347.755 635.188 347.755C625.217 347.755 617.3 339.837 617.3 329.867C617.3 319.896 625.217 311.979 635.188 311.979C645.158 311.979 653.076 319.896 653.076 329.867ZM604.104 409.336C604.104 382.944 582.697 361.537 556.305 361.537C529.913 361.537 508.506 382.944 508.506 409.336C508.506 435.728 529.913 457.135 556.305 457.135C582.697 457.135 604.104 435.728 604.104 409.336ZM630.789 409.336C630.789 450.39 597.359 483.82 556.305 483.82C515.251 483.82 481.821 450.39 481.821 409.336C481.821 368.282 515.251 334.852 556.305 334.852C597.359 334.852 630.789 368.282 630.789 409.336ZM677.708 472.09C677.708 506.693 649.85 534.551 615.247 534.551H492.964C458.361 534.551 430.503 506.693 430.503 472.09V349.807C430.503 315.204 458.361 287.346 492.964 287.346H615.247C649.85 287.346 677.708 315.204 677.708 349.807V472.09ZM705.86 350.1C705.86 299.956 665.099 259.195 614.954 259.195H492.964C442.819 259.195 402.059 299.956 402.059 350.1V472.09C402.059 522.235 442.819 562.996 492.964 562.996H614.954C665.099 562.996 705.86 522.235 705.86 472.09V350.1Z" fill="#E3DBEA"/>
<path opacity="0.18" d="M651.9 328.694C651.9 338.371 643.982 346.582 634.012 346.582C624.042 346.582 616.124 338.664 616.124 328.694C616.124 318.724 624.042 310.806 634.012 310.806C643.982 310.806 651.9 318.724 651.9 328.694ZM602.928 408.163C602.928 381.771 581.521 360.364 555.129 360.364C528.737 360.364 507.33 381.771 507.33 408.163C507.33 434.555 528.737 455.962 555.129 455.962C581.521 455.962 602.928 434.555 602.928 408.163ZM629.613 408.163C629.613 449.217 596.184 482.647 555.129 482.647C514.075 482.647 480.645 449.217 480.645 408.163C480.645 367.109 514.075 333.679 555.129 333.679C596.184 333.679 629.613 367.109 629.613 408.163ZM676.532 470.917C676.532 505.52 648.674 533.378 614.071 533.378H491.788C457.186 533.378 429.328 505.52 429.328 470.917V348.634C429.328 314.032 457.186 286.173 491.788 286.173H614.071C648.674 286.173 676.532 314.032 676.532 348.634V470.917ZM704.684 348.928C704.684 298.783 663.923 258.022 613.778 258.022H491.788C441.644 258.022 400.883 298.783 400.883 348.928V470.917C400.883 521.062 441.644 561.823 491.788 561.823H613.778C663.923 561.823 704.684 521.062 704.684 470.917V348.928Z" fill="#E2D9E8"/>
<path opacity="0.19" d="M650.728 327.226C650.728 336.903 642.811 345.114 632.84 345.114C622.87 345.114 614.952 337.196 614.952 327.226C614.952 317.256 622.87 309.338 632.84 309.338C642.811 309.338 650.728 317.256 650.728 327.226ZM601.756 406.695C601.756 380.303 580.349 358.896 553.957 358.896C527.565 358.896 506.159 380.303 506.159 406.695C506.159 433.087 527.565 454.494 553.957 454.494C580.349 454.494 601.756 433.087 601.756 406.695ZM628.442 406.695C628.442 447.749 595.012 481.179 553.957 481.179C512.903 481.179 479.473 447.749 479.473 406.695C479.473 365.641 512.903 332.211 553.957 332.211C595.012 332.211 628.442 365.641 628.442 406.695ZM675.361 469.449C675.361 504.052 647.502 531.911 612.9 531.911H490.617C456.014 531.911 428.156 504.052 428.156 469.449V347.167C428.156 312.564 456.014 284.706 490.617 284.706H612.9C647.502 284.706 675.361 312.564 675.361 347.167V469.449ZM703.512 347.46C703.512 297.315 662.751 256.554 612.606 256.554H490.617C440.472 256.554 399.711 297.315 399.711 347.46V469.449C399.711 519.594 440.472 560.355 490.617 560.355H612.606C662.751 560.355 703.512 519.594 703.512 469.449V347.46Z" fill="#E0D6E7"/>
<path opacity="0.2" d="M649.259 326.054C649.259 335.731 641.342 343.942 631.371 343.942C621.401 343.942 613.483 336.024 613.483 326.054C613.483 316.083 621.401 308.166 631.371 308.166C641.342 308.166 649.259 316.083 649.259 326.054ZM600.287 405.523C600.287 379.131 578.88 357.724 552.488 357.724C526.097 357.724 504.69 379.131 504.69 405.523C504.69 431.915 526.097 453.322 552.488 453.322C578.88 453.322 600.287 431.915 600.287 405.523ZM626.973 405.523C626.973 446.577 593.543 480.007 552.488 480.007C511.434 480.007 478.004 446.577 478.004 405.523C478.004 364.469 511.434 331.039 552.488 331.039C593.543 331.039 626.973 364.469 626.973 405.523ZM673.892 468.277C673.892 502.88 646.033 530.738 611.431 530.738H489.148C454.545 530.738 426.687 502.88 426.687 468.277V345.994C426.687 311.391 454.545 283.533 489.148 283.533H611.431C646.033 283.533 673.892 311.391 673.892 345.994V468.277ZM702.043 346.288C702.043 296.143 661.282 255.382 611.137 255.382H489.148C439.003 255.382 398.242 296.143 398.242 346.288V468.277C398.242 518.422 439.003 559.183 489.148 559.183H611.137C661.282 559.183 702.043 518.422 702.043 468.277V346.288Z" fill="#DED3E5"/>
<path opacity="0.21" d="M648.087 324.881C648.087 334.558 640.17 342.769 630.199 342.769C620.229 342.769 612.311 334.852 612.311 324.881C612.311 314.911 620.229 306.993 630.199 306.993C640.17 306.993 648.087 314.911 648.087 324.881ZM599.116 404.35C599.116 377.959 577.709 356.552 551.317 356.552C524.925 356.552 503.518 377.959 503.518 404.35C503.518 430.742 524.925 452.149 551.317 452.149C577.709 452.149 599.116 430.742 599.116 404.35ZM625.801 404.35C625.801 445.405 592.371 478.835 551.317 478.835C510.262 478.835 476.833 445.405 476.833 404.35C476.833 363.296 510.262 329.867 551.317 329.867C592.371 329.867 625.801 363.296 625.801 404.35ZM672.72 467.105C672.72 501.708 644.862 529.566 610.259 529.566H487.976C453.373 529.566 425.515 501.708 425.515 467.105V344.822C425.515 310.219 453.373 282.361 487.976 282.361H610.259C644.862 282.361 672.72 310.219 672.72 344.822V467.105ZM700.871 345.115C700.871 294.97 660.11 254.209 609.965 254.209H487.976C437.831 254.209 397.07 294.97 397.07 345.115V467.105C397.07 517.25 437.831 558.011 487.976 558.011H609.965C660.11 558.011 700.871 517.25 700.871 467.105V345.115Z" fill="#DCD1E4"/>
<path opacity="0.23" d="M646.915 323.415C646.915 333.092 638.998 341.303 629.028 341.303C619.057 341.303 611.14 333.385 611.14 323.415C611.14 313.445 619.057 305.527 629.028 305.527C638.998 305.527 646.915 313.445 646.915 323.415ZM597.944 402.884C597.944 376.492 576.537 355.085 550.145 355.085C523.753 355.085 502.346 376.492 502.346 402.884C502.346 429.276 523.753 450.683 550.145 450.683C576.537 450.683 597.944 429.276 597.944 402.884ZM624.629 402.884C624.629 443.938 591.199 477.368 550.145 477.368C509.091 477.368 475.661 443.938 475.661 402.884C475.661 361.83 509.091 328.4 550.145 328.4C591.199 328.4 624.629 361.83 624.629 402.884ZM671.548 465.638C671.548 500.241 643.69 528.099 609.087 528.099H486.804C452.201 528.099 424.343 500.241 424.343 465.638V343.356C424.343 308.753 452.201 280.895 486.804 280.895H609.087C643.69 280.895 671.548 308.753 671.548 343.356V465.638ZM699.699 343.649C699.699 293.504 658.938 252.743 608.794 252.743H486.804C436.659 252.743 395.898 293.504 395.898 343.649V465.638C395.898 515.783 436.659 556.544 486.804 556.544H608.794C658.938 556.544 699.699 515.783 699.699 465.638V343.649Z" fill="#DACEE2"/>
<path opacity="0.24" d="M645.447 322.243C645.447 331.92 637.529 340.131 627.559 340.131C617.589 340.131 609.671 332.213 609.671 322.243C609.671 312.272 617.589 304.355 627.559 304.355C637.529 304.355 645.447 312.272 645.447 322.243ZM596.475 401.712C596.475 375.32 575.068 353.913 548.676 353.913C522.284 353.913 500.877 375.32 500.877 401.712C500.877 428.104 522.284 449.511 548.676 449.511C575.068 449.511 596.475 428.104 596.475 401.712ZM623.16 401.712C623.16 442.766 589.73 476.196 548.676 476.196C507.622 476.196 474.192 442.766 474.192 401.712C474.192 360.658 507.622 327.228 548.676 327.228C589.73 327.228 623.16 360.658 623.16 401.712ZM670.079 464.466C670.079 499.069 642.221 526.927 607.618 526.927H485.335C450.733 526.927 422.874 499.069 422.874 464.466V342.183C422.874 307.58 450.733 279.722 485.335 279.722H607.618C642.221 279.722 670.079 307.58 670.079 342.183V464.466ZM698.231 342.477C698.231 292.332 657.47 251.571 607.325 251.571H485.335C435.191 251.571 394.43 292.332 394.43 342.477V464.466C394.43 514.611 435.191 555.372 485.335 555.372H607.325C657.47 555.372 698.231 514.611 698.231 464.466V342.477Z" fill="#D8CCE1"/>
<path opacity="0.25" d="M644.275 321.069C644.275 330.746 636.357 338.957 626.387 338.957C616.417 338.957 608.499 331.039 608.499 321.069C608.499 311.099 616.417 303.181 626.387 303.181C636.357 303.181 644.275 311.099 644.275 321.069ZM595.303 400.538C595.303 374.146 573.896 352.739 547.504 352.739C521.112 352.739 499.706 374.146 499.706 400.538C499.706 426.93 521.112 448.337 547.504 448.337C573.896 448.337 595.303 426.93 595.303 400.538ZM621.988 400.538C621.988 441.592 588.559 475.022 547.504 475.022C506.45 475.022 473.02 441.592 473.02 400.538C473.02 359.484 506.45 326.054 547.504 326.054C588.559 326.054 621.988 359.484 621.988 400.538ZM668.907 463.292C668.907 497.895 641.049 525.753 606.447 525.753H484.163C449.561 525.753 421.703 497.895 421.703 463.292V341.009C421.703 306.407 449.561 278.549 484.163 278.549H606.447C641.049 278.549 668.907 306.407 668.907 341.009V463.292ZM697.059 341.303C697.059 291.158 656.298 250.397 606.153 250.397H484.163C434.019 250.397 393.258 291.158 393.258 341.303V463.292C393.258 513.437 434.019 554.198 484.163 554.198H606.153C656.298 554.198 697.059 513.437 697.059 463.292V341.303Z" fill="#D6C9DF"/>
<path opacity="0.26" d="M643.099 319.603C643.099 329.28 635.182 337.49 625.211 337.49C615.241 337.49 607.323 329.573 607.323 319.603C607.323 309.632 615.241 301.715 625.211 301.715C635.182 301.715 643.099 309.632 643.099 319.603ZM594.127 399.072C594.127 372.68 572.721 351.273 546.329 351.273C519.937 351.273 498.53 372.68 498.53 399.072C498.53 425.464 519.937 446.871 546.329 446.871C572.721 446.871 594.127 425.464 594.127 399.072ZM620.813 399.072C620.813 440.126 587.383 473.556 546.329 473.556C505.274 473.556 471.845 440.126 471.845 399.072C471.845 358.018 505.274 324.588 546.329 324.588C587.383 324.588 620.813 358.018 620.813 399.072ZM667.732 461.826C667.732 496.429 639.874 524.287 605.271 524.287H482.988C448.385 524.287 420.527 496.429 420.527 461.826V339.543C420.527 304.94 448.385 277.082 482.988 277.082H605.271C639.874 277.082 667.732 304.94 667.732 339.543V461.826ZM695.883 339.836C695.883 289.692 655.122 248.931 604.977 248.931H482.988C432.843 248.931 392.082 289.692 392.082 339.836V461.826C392.082 511.971 432.843 552.732 482.988 552.732H604.977C655.122 552.732 695.883 511.971 695.883 461.826V339.836Z" fill="#D4C7DD"/>
<path opacity="0.27" d="M641.931 318.43C641.931 328.107 634.013 336.317 624.043 336.317C614.073 336.317 606.155 328.4 606.155 318.43C606.155 308.459 614.073 300.542 624.043 300.542C634.013 300.542 641.931 308.459 641.931 318.43ZM592.959 397.899C592.959 371.507 571.552 350.1 545.16 350.1C518.768 350.1 497.362 371.507 497.362 397.899C497.362 424.291 518.768 445.698 545.16 445.698C571.552 445.698 592.959 424.291 592.959 397.899ZM619.644 397.899C619.644 438.953 586.215 472.383 545.16 472.383C504.106 472.383 470.676 438.953 470.676 397.899C470.676 356.845 504.106 323.415 545.16 323.415C586.215 323.415 619.644 356.845 619.644 397.899ZM666.563 460.653C666.563 495.256 638.705 523.114 604.103 523.114H481.82C447.217 523.114 419.359 495.256 419.359 460.653V338.37C419.359 303.767 447.217 275.909 481.82 275.909H604.103C638.705 275.909 666.563 303.767 666.563 338.37V460.653ZM694.715 338.663C694.715 288.519 653.954 247.758 603.809 247.758H481.82C431.675 247.758 390.914 288.519 390.914 338.663V460.653C390.914 510.798 431.675 551.559 481.82 551.559H603.809C653.954 551.559 694.715 510.798 694.715 460.653V338.663Z" fill="#D2C4DC"/>
<path opacity="0.29" d="M640.462 317.257C640.462 326.934 632.545 335.145 622.574 335.145C612.604 335.145 604.686 327.227 604.686 317.257C604.686 307.287 612.604 299.369 622.574 299.369C632.545 299.369 640.462 307.287 640.462 317.257ZM591.491 396.726C591.491 370.334 570.084 348.927 543.692 348.927C517.3 348.927 495.893 370.334 495.893 396.726C495.893 423.118 517.3 444.525 543.692 444.525C570.084 444.525 591.491 423.118 591.491 396.726ZM618.176 396.726C618.176 437.78 584.746 471.21 543.692 471.21C502.638 471.21 469.208 437.78 469.208 396.726C469.208 355.672 502.638 322.242 543.692 322.242C584.746 322.242 618.176 355.672 618.176 396.726ZM665.095 459.48C665.095 494.083 637.237 521.941 602.634 521.941H480.351C445.748 521.941 417.89 494.083 417.89 459.48V337.197C417.89 302.595 445.748 274.736 480.351 274.736H602.634C637.237 274.736 665.095 302.595 665.095 337.197V459.48ZM693.246 337.491C693.246 287.346 652.485 246.585 602.341 246.585H480.351C430.206 246.585 389.445 287.346 389.445 337.491V459.48C389.445 509.625 430.206 550.386 480.351 550.386H602.341C652.485 550.386 693.246 509.625 693.246 459.48V337.491Z" fill="#D0C2DA"/>
<path opacity="0.3" d="M639.29 316.084C639.29 325.762 631.373 333.972 621.403 333.972C611.432 333.972 603.515 326.055 603.515 316.084C603.515 306.114 611.432 298.197 621.403 298.197C631.373 298.197 639.29 306.114 639.29 316.084ZM590.319 395.554C590.319 369.162 568.912 347.755 542.52 347.755C516.128 347.755 494.721 369.162 494.721 395.554C494.721 421.946 516.128 443.352 542.52 443.352C568.912 443.352 590.319 421.946 590.319 395.554ZM617.004 395.554C617.004 436.608 583.574 470.038 542.52 470.038C501.466 470.038 468.036 436.608 468.036 395.554C468.036 354.499 501.466 321.07 542.52 321.07C583.574 321.07 617.004 354.499 617.004 395.554ZM663.923 458.308C663.923 492.911 636.065 520.769 601.462 520.769H479.179C444.576 520.769 416.718 492.911 416.718 458.308V336.025C416.718 301.422 444.576 273.564 479.179 273.564H601.462C636.065 273.564 663.923 301.422 663.923 336.025V458.308ZM692.074 336.318C692.074 286.174 651.314 245.413 601.169 245.413H479.179C429.034 245.413 388.273 286.174 388.273 336.318V458.308C388.273 508.453 429.034 549.214 479.179 549.214H601.169C651.314 549.214 692.074 508.453 692.074 458.308V336.318Z" fill="#CEBFD9"/>
<path opacity="0.31" d="M638.115 314.617C638.115 324.294 630.197 332.505 620.227 332.505C610.257 332.505 602.339 324.587 602.339 314.617C602.339 304.647 610.257 296.729 620.227 296.729C630.197 296.729 638.115 304.647 638.115 314.617ZM589.143 394.086C589.143 367.694 567.736 346.287 541.344 346.287C514.952 346.287 493.545 367.694 493.545 394.086C493.545 420.478 514.952 441.885 541.344 441.885C567.736 441.885 589.143 420.478 589.143 394.086ZM615.828 394.086C615.828 435.141 582.398 468.57 541.344 468.57C500.29 468.57 466.86 435.141 466.86 394.086C466.86 353.032 500.29 319.602 541.344 319.602C582.398 319.602 615.828 353.032 615.828 394.086ZM662.747 456.841C662.747 491.443 634.889 519.302 600.286 519.302H478.003C443.401 519.302 415.542 491.443 415.542 456.841V334.558C415.542 299.955 443.401 272.097 478.003 272.097H600.286C634.889 272.097 662.747 299.955 662.747 334.558V456.841ZM690.899 334.851C690.899 284.706 650.138 243.945 599.993 243.945H478.003C427.859 243.945 387.098 284.706 387.098 334.851V456.841C387.098 506.985 427.859 547.746 478.003 547.746H599.993C650.138 547.746 690.899 506.985 690.899 456.841V334.851Z" fill="#CCBCD7"/>
<path opacity="0.32" d="M636.65 313.444C636.65 323.121 628.732 331.332 618.762 331.332C608.792 331.332 600.874 323.415 600.874 313.444C600.874 303.474 608.792 295.556 618.762 295.556C628.732 295.556 636.65 303.474 636.65 313.444ZM587.678 392.913C587.678 366.522 566.271 345.115 539.879 345.115C513.487 345.115 492.08 366.522 492.08 392.913C492.08 419.305 513.487 440.712 539.879 440.712C566.271 440.712 587.678 419.305 587.678 392.913ZM614.363 392.913C614.363 433.968 580.933 467.398 539.879 467.398C498.825 467.398 465.395 433.968 465.395 392.913C465.395 351.859 498.825 318.43 539.879 318.43C580.933 318.43 614.363 351.859 614.363 392.913ZM661.282 455.668C661.282 490.271 633.424 518.129 598.821 518.129H476.538C441.936 518.129 414.077 490.271 414.077 455.668V333.385C414.077 298.782 441.936 270.924 476.538 270.924H598.821C633.424 270.924 661.282 298.782 661.282 333.385V455.668ZM689.434 333.678C689.434 283.533 648.673 242.772 598.528 242.772H476.538C426.394 242.772 385.633 283.533 385.633 333.678V455.668C385.633 505.813 426.394 546.574 476.538 546.574H598.528C648.673 546.574 689.434 505.813 689.434 455.668V333.678Z" fill="#CABAD6"/>
<path opacity="0.33" d="M635.478 312.271C635.478 321.949 627.56 330.159 617.59 330.159C607.62 330.159 599.702 322.242 599.702 312.271C599.702 302.301 607.62 294.384 617.59 294.384C627.56 294.384 635.478 302.301 635.478 312.271ZM586.506 391.741C586.506 365.349 565.099 343.942 538.707 343.942C512.315 343.942 490.909 365.349 490.909 391.741C490.909 418.133 512.315 439.539 538.707 439.539C565.099 439.539 586.506 418.133 586.506 391.741ZM613.191 391.741C613.191 432.795 579.761 466.225 538.707 466.225C497.653 466.225 464.223 432.795 464.223 391.741C464.223 350.687 497.653 317.257 538.707 317.257C579.761 317.257 613.191 350.687 613.191 391.741ZM660.11 454.495C660.11 489.098 632.252 516.956 597.649 516.956H475.367C440.764 516.956 412.906 489.098 412.906 454.495V332.212C412.906 297.609 440.764 269.751 475.367 269.751H597.649C632.252 269.751 660.11 297.609 660.11 332.212V454.495ZM688.262 332.505C688.262 282.361 647.501 241.6 597.356 241.6H475.367C425.222 241.6 384.461 282.361 384.461 332.505V454.495C384.461 504.64 425.222 545.401 475.367 545.401H597.356C647.501 545.401 688.262 504.64 688.262 454.495V332.505Z" fill="#C8B7D4"/>
<path opacity="0.35" d="M634.302 310.806C634.302 320.483 626.385 328.694 616.414 328.694C606.444 328.694 598.526 320.776 598.526 310.806C598.526 300.835 606.444 292.918 616.414 292.918C626.385 292.918 634.302 300.835 634.302 310.806ZM585.33 390.275C585.33 363.883 563.924 342.476 537.532 342.476C511.14 342.476 489.733 363.883 489.733 390.275C489.733 416.667 511.14 438.074 537.532 438.074C563.924 438.074 585.33 416.667 585.33 390.275ZM612.016 390.275C612.016 431.329 578.586 464.759 537.532 464.759C496.477 464.759 463.048 431.329 463.048 390.275C463.048 349.221 496.477 315.791 537.532 315.791C578.586 315.791 612.016 349.221 612.016 390.275ZM658.935 453.029C658.935 487.632 631.076 515.49 596.474 515.49H474.191C439.588 515.49 411.73 487.632 411.73 453.029V330.746C411.73 296.143 439.588 268.285 474.191 268.285H596.474C631.076 268.285 658.935 296.143 658.935 330.746V453.029ZM687.086 331.039C687.086 280.895 646.325 240.134 596.181 240.134H474.191C424.046 240.134 383.285 280.895 383.285 331.039V453.029C383.285 503.174 424.046 543.935 474.191 543.935H596.181C646.325 543.935 687.086 503.174 687.086 453.029V331.039Z" fill="#C6B5D3"/>
<path opacity="0.36" d="M632.841 309.633C632.841 319.31 624.924 327.521 614.954 327.521C604.983 327.521 597.066 319.603 597.066 309.633C597.066 299.662 604.983 291.745 614.954 291.745C624.924 291.745 632.841 299.662 632.841 309.633ZM583.869 389.102C583.869 362.71 562.463 341.303 536.071 341.303C509.679 341.303 488.272 362.71 488.272 389.102C488.272 415.494 509.679 436.901 536.071 436.901C562.463 436.901 583.869 415.494 583.869 389.102ZM610.555 389.102C610.555 430.156 577.125 463.586 536.071 463.586C495.017 463.586 461.587 430.156 461.587 389.102C461.587 348.048 495.017 314.618 536.071 314.618C577.125 314.618 610.555 348.048 610.555 389.102ZM657.474 451.856C657.474 486.459 629.616 514.317 595.013 514.317H472.73C438.127 514.317 410.269 486.459 410.269 451.856V329.573C410.269 294.971 438.127 267.112 472.73 267.112H595.013C629.616 267.112 657.474 294.971 657.474 329.573V451.856ZM685.625 329.867C685.625 279.722 644.864 238.961 594.72 238.961H472.73C422.585 238.961 381.824 279.722 381.824 329.867V451.856C381.824 502.001 422.585 542.762 472.73 542.762H594.72C644.864 542.762 685.625 502.001 685.625 451.856V329.867Z" fill="#C4B2D1"/>
<path opacity="0.37" d="M631.666 308.459C631.666 318.136 623.748 326.347 613.778 326.347C603.807 326.347 595.89 318.429 595.89 308.459C595.89 298.489 603.807 290.571 613.778 290.571C623.748 290.571 631.666 298.489 631.666 308.459ZM582.694 387.928C582.694 361.536 561.287 340.129 534.895 340.129C508.503 340.129 487.096 361.536 487.096 387.928C487.096 414.32 508.503 435.727 534.895 435.727C561.287 435.727 582.694 414.32 582.694 387.928ZM609.379 387.928C609.379 428.982 575.949 462.412 534.895 462.412C493.841 462.412 460.411 428.982 460.411 387.928C460.411 346.874 493.841 313.444 534.895 313.444C575.949 313.444 609.379 346.874 609.379 387.928ZM656.298 450.682C656.298 485.285 628.44 513.143 593.837 513.143H471.554C436.952 513.143 409.093 485.285 409.093 450.682V328.4C409.093 293.797 436.952 265.939 471.554 265.939H593.837C628.44 265.939 656.298 293.797 656.298 328.4V450.682ZM684.449 328.693C684.449 278.548 643.689 237.787 593.544 237.787H471.554C421.41 237.787 380.648 278.548 380.648 328.693V450.682C380.648 500.827 421.41 541.588 471.554 541.588H593.544C643.689 541.588 684.449 500.827 684.449 450.682V328.693Z" fill="#C2B0D0"/>
<path opacity="0.38" d="M630.494 306.993C630.494 316.67 622.576 324.881 612.606 324.881C602.636 324.881 594.718 316.963 594.718 306.993C594.718 297.023 602.636 289.105 612.606 289.105C622.576 289.105 630.494 297.023 630.494 306.993ZM581.522 386.462C581.522 360.07 560.115 338.664 533.723 338.664C507.331 338.664 485.924 360.07 485.924 386.462C485.924 412.854 507.331 434.261 533.723 434.261C560.115 434.261 581.522 412.854 581.522 386.462ZM608.207 386.462C608.207 427.517 574.777 460.946 533.723 460.946C492.669 460.946 459.239 427.517 459.239 386.462C459.239 345.408 492.669 311.978 533.723 311.978C574.777 311.978 608.207 345.408 608.207 386.462ZM655.126 449.217C655.126 483.819 627.268 511.678 592.665 511.678H470.382C435.78 511.678 407.921 483.819 407.921 449.217V326.934C407.921 292.331 435.78 264.473 470.382 264.473H592.665C627.268 264.473 655.126 292.331 655.126 326.934V449.217ZM683.278 327.227C683.278 277.082 642.517 236.321 592.372 236.321H470.382C420.238 236.321 379.477 277.082 379.477 327.227V449.217C379.477 499.361 420.238 540.122 470.382 540.122H592.372C642.517 540.122 683.278 499.361 683.278 449.217V327.227Z" fill="#C0ADCE"/>
<path opacity="0.39" d="M629.025 305.82C629.025 315.497 621.107 323.708 611.137 323.708C601.167 323.708 593.249 315.791 593.249 305.82C593.249 295.85 601.167 287.932 611.137 287.932C621.107 287.932 629.025 295.85 629.025 305.82ZM580.053 385.289C580.053 358.897 558.646 337.491 532.254 337.491C505.862 337.491 484.455 358.897 484.455 385.289C484.455 411.681 505.862 433.088 532.254 433.088C558.646 433.088 580.053 411.681 580.053 385.289ZM606.738 385.289C606.738 426.344 573.309 459.774 532.254 459.774C491.2 459.774 457.77 426.344 457.77 385.289C457.77 344.235 491.2 310.805 532.254 310.805C573.309 310.805 606.738 344.235 606.738 385.289ZM653.657 448.044C653.657 482.647 625.799 510.505 591.196 510.505H468.913C434.311 510.505 406.453 482.647 406.453 448.044V325.761C406.453 291.158 434.311 263.3 468.913 263.3H591.196C625.799 263.3 653.657 291.158 653.657 325.761V448.044ZM681.809 326.054C681.809 275.909 641.048 235.148 590.903 235.148H468.913C418.769 235.148 378.008 275.909 378.008 326.054V448.044C378.008 498.189 418.769 538.949 468.913 538.949H590.903C641.048 538.949 681.809 498.189 681.809 448.044V326.054Z" fill="#BEABCD"/>
<path opacity="0.4" d="M627.857 304.647C627.857 314.324 619.939 322.535 609.969 322.535C599.999 322.535 592.081 314.617 592.081 304.647C592.081 294.677 599.999 286.759 609.969 286.759C619.939 286.759 627.857 294.677 627.857 304.647ZM578.885 384.116C578.885 357.724 557.478 336.317 531.086 336.317C504.694 336.317 483.287 357.724 483.287 384.116C483.287 410.508 504.694 431.915 531.086 431.915C557.478 431.915 578.885 410.508 578.885 384.116ZM605.57 384.116C605.57 425.17 572.141 458.6 531.086 458.6C490.032 458.6 456.602 425.17 456.602 384.116C456.602 343.062 490.032 309.632 531.086 309.632C572.141 309.632 605.57 343.062 605.57 384.116ZM652.489 446.87C652.489 481.473 624.631 509.331 590.028 509.331H467.746C433.143 509.331 405.285 481.473 405.285 446.87V324.588C405.285 289.985 433.143 262.127 467.746 262.127H590.028C624.631 262.127 652.489 289.985 652.489 324.588V446.87ZM680.641 324.881C680.641 274.736 639.88 233.975 589.735 233.975H467.746C417.601 233.975 376.84 274.736 376.84 324.881V446.87C376.84 497.015 417.601 537.776 467.746 537.776H589.735C639.88 537.776 680.641 497.015 680.641 446.87V324.881Z" fill="#BCA8CB"/>
<path opacity="0.42" d="M626.681 303.475C626.681 313.152 618.763 321.363 608.793 321.363C598.823 321.363 590.905 313.445 590.905 303.475C590.905 293.505 598.823 285.587 608.793 285.587C618.763 285.587 626.681 293.505 626.681 303.475ZM577.709 382.944C577.709 356.552 556.303 335.146 529.911 335.146C503.519 335.146 482.112 356.552 482.112 382.944C482.112 409.336 503.519 430.743 529.911 430.743C556.303 430.743 577.709 409.336 577.709 382.944ZM604.395 382.944C604.395 423.998 570.965 457.428 529.911 457.428C488.856 457.428 455.427 423.998 455.427 382.944C455.427 341.89 488.856 308.46 529.911 308.46C570.965 308.46 604.395 341.89 604.395 382.944ZM651.314 445.699C651.314 480.301 623.456 508.16 588.853 508.16H466.57C431.967 508.16 404.109 480.301 404.109 445.699V323.416C404.109 288.813 431.967 260.955 466.57 260.955H588.853C623.456 260.955 651.314 288.813 651.314 323.416V445.699ZM679.465 323.709C679.465 273.564 638.704 232.803 588.559 232.803H466.57C416.425 232.803 375.664 273.564 375.664 323.709V445.699C375.664 495.843 416.425 536.604 466.57 536.604H588.559C638.704 536.604 679.465 495.843 679.465 445.699V323.709Z" fill="#BAA5CA"/>
<path opacity="0.43" d="M625.509 302.009C625.509 311.686 617.592 319.897 607.621 319.897C597.651 319.897 589.734 311.979 589.734 302.009C589.734 292.038 597.651 284.121 607.621 284.121C617.592 284.121 625.509 292.038 625.509 302.009ZM576.537 381.478C576.537 355.086 555.131 333.679 528.739 333.679C502.347 333.679 480.94 355.086 480.94 381.478C480.94 407.87 502.347 429.277 528.739 429.277C555.131 429.277 576.537 407.87 576.537 381.478ZM603.223 381.478C603.223 422.532 569.793 455.962 528.739 455.962C487.685 455.962 454.255 422.532 454.255 381.478C454.255 340.424 487.685 306.994 528.739 306.994C569.793 306.994 603.223 340.424 603.223 381.478ZM650.142 444.232C650.142 478.835 622.284 506.693 587.681 506.693H465.398C430.795 506.693 402.937 478.835 402.937 444.232V321.949C402.937 287.347 430.795 259.488 465.398 259.488H587.681C622.284 259.488 650.142 287.347 650.142 321.949V444.232ZM678.293 322.243C678.293 272.098 637.532 231.337 587.388 231.337H465.398C415.253 231.337 374.492 272.098 374.492 322.243V444.232C374.492 494.377 415.253 535.138 465.398 535.138H587.388C637.532 535.138 678.293 494.377 678.293 444.232V322.243Z" fill="#B8A3C8"/>
<path opacity="0.44" d="M624.04 300.835C624.04 310.512 616.123 318.723 606.153 318.723C596.182 318.723 588.265 310.805 588.265 300.835C588.265 290.865 596.182 282.947 606.153 282.947C616.123 282.947 624.04 290.865 624.04 300.835ZM575.069 380.304C575.069 353.912 553.662 332.505 527.27 332.505C500.878 332.505 479.471 353.912 479.471 380.304C479.471 406.696 500.878 428.103 527.27 428.103C553.662 428.103 575.069 406.696 575.069 380.304ZM601.754 380.304C601.754 421.358 568.324 454.788 527.27 454.788C486.216 454.788 452.786 421.358 452.786 380.304C452.786 339.25 486.216 305.82 527.27 305.82C568.324 305.82 601.754 339.25 601.754 380.304ZM648.673 443.058C648.673 477.661 620.815 505.519 586.212 505.519H463.929C429.326 505.519 401.468 477.661 401.468 443.058V320.776C401.468 286.173 429.326 258.315 463.929 258.315H586.212C620.815 258.315 648.673 286.173 648.673 320.776V443.058ZM676.824 321.069C676.824 270.924 636.063 230.163 585.919 230.163H463.929C413.784 230.163 373.023 270.924 373.023 321.069V443.058C373.023 493.203 413.784 533.964 463.929 533.964H585.919C636.063 533.964 676.824 493.203 676.824 443.058V321.069Z" fill="#B6A0C7"/>
<path opacity="0.45" d="M622.869 299.662C622.869 309.339 614.951 317.55 604.981 317.55C595.01 317.55 587.093 309.632 587.093 299.662C587.093 289.691 595.01 281.774 604.981 281.774C614.951 281.774 622.869 289.691 622.869 299.662ZM573.897 379.131C573.897 352.739 552.49 331.332 526.098 331.332C499.706 331.332 478.299 352.739 478.299 379.131C478.299 405.523 499.706 426.93 526.098 426.93C552.49 426.93 573.897 405.523 573.897 379.131ZM600.582 379.131C600.582 420.185 567.152 453.615 526.098 453.615C485.044 453.615 451.614 420.185 451.614 379.131C451.614 338.077 485.044 304.647 526.098 304.647C567.152 304.647 600.582 338.077 600.582 379.131ZM647.501 441.885C647.501 476.488 619.643 504.346 585.04 504.346H462.757C428.154 504.346 400.296 476.488 400.296 441.885V319.602C400.296 284.999 428.154 257.141 462.757 257.141H585.04C619.643 257.141 647.501 284.999 647.501 319.602V441.885ZM675.653 319.896C675.653 269.751 634.891 228.99 584.747 228.99H462.757C412.612 228.99 371.852 269.751 371.852 319.896V441.885C371.852 492.03 412.612 532.791 462.757 532.791H584.747C634.891 532.791 675.653 492.03 675.653 441.885V319.896Z" fill="#B49EC5"/>
<path opacity="0.46" d="M621.697 298.196C621.697 307.873 613.779 316.084 603.809 316.084C593.838 316.084 585.921 308.167 585.921 298.196C585.921 288.226 593.838 280.308 603.809 280.308C613.779 280.308 621.697 288.226 621.697 298.196ZM572.725 377.665C572.725 351.273 551.318 329.867 524.926 329.867C498.534 329.867 477.127 351.273 477.127 377.665C477.127 404.057 498.534 425.464 524.926 425.464C551.318 425.464 572.725 404.057 572.725 377.665ZM599.41 377.665C599.41 418.72 565.98 452.15 524.926 452.15C483.872 452.15 450.442 418.72 450.442 377.665C450.442 336.611 483.872 303.181 524.926 303.181C565.98 303.181 599.41 336.611 599.41 377.665ZM646.329 440.42C646.329 475.023 618.471 502.881 583.868 502.881H461.585C426.983 502.881 399.124 475.023 399.124 440.42V318.137C399.124 283.534 426.983 255.676 461.585 255.676H583.868C618.471 255.676 646.329 283.534 646.329 318.137V440.42ZM674.481 318.43C674.481 268.285 633.72 227.524 583.575 227.524H461.585C411.441 227.524 370.68 268.285 370.68 318.43V440.42C370.68 490.565 411.441 531.325 461.585 531.325H583.575C633.72 531.325 674.481 490.565 674.481 440.42V318.43Z" fill="#B29BC4"/>
<path opacity="0.48" d="M620.228 297.023C620.228 306.7 612.311 314.911 602.34 314.911C592.37 314.911 584.452 306.994 584.452 297.023C584.452 287.053 592.37 279.136 602.34 279.136C612.311 279.136 620.228 287.053 620.228 297.023ZM571.256 376.493C571.256 350.101 549.849 328.694 523.457 328.694C497.065 328.694 475.659 350.101 475.659 376.493C475.659 402.885 497.065 424.291 523.457 424.291C549.849 424.291 571.256 402.885 571.256 376.493ZM597.942 376.493C597.942 417.547 564.512 450.977 523.457 450.977C482.403 450.977 448.973 417.547 448.973 376.493C448.973 335.439 482.403 302.009 523.457 302.009C564.512 302.009 597.942 335.439 597.942 376.493ZM644.861 439.247C644.861 473.85 617.002 501.708 582.4 501.708H460.117C425.514 501.708 397.656 473.85 397.656 439.247V316.964C397.656 282.361 425.514 254.503 460.117 254.503H582.4C617.002 254.503 644.861 282.361 644.861 316.964V439.247ZM673.012 317.257C673.012 267.113 632.251 226.352 582.106 226.352H460.117C409.972 226.352 369.211 267.113 369.211 317.257V439.247C369.211 489.392 409.972 530.153 460.117 530.153H582.106C632.251 530.153 673.012 489.392 673.012 439.247V317.257Z" fill="#B099C2"/>
<path opacity="0.49" d="M619.056 295.851C619.056 305.528 611.139 313.739 601.168 313.739C591.198 313.739 583.28 305.821 583.28 295.851C583.28 285.881 591.198 277.963 601.168 277.963C611.139 277.963 619.056 285.881 619.056 295.851ZM570.084 375.32C570.084 348.928 548.678 327.521 522.286 327.521C495.894 327.521 474.487 348.928 474.487 375.32C474.487 401.712 495.894 423.119 522.286 423.119C548.678 423.119 570.084 401.712 570.084 375.32ZM596.77 375.32C596.77 416.374 563.34 449.804 522.286 449.804C481.231 449.804 447.802 416.374 447.802 375.32C447.802 334.266 481.231 300.836 522.286 300.836C563.34 300.836 596.77 334.266 596.77 375.32ZM643.689 438.075C643.689 472.677 615.831 500.536 581.228 500.536H458.945C424.342 500.536 396.484 472.677 396.484 438.075V315.792C396.484 281.189 424.342 253.331 458.945 253.331H581.228C615.831 253.331 643.689 281.189 643.689 315.792V438.075ZM671.84 316.085C671.84 265.94 631.079 225.179 580.934 225.179H458.945C408.8 225.179 368.039 265.94 368.039 316.085V438.075C368.039 488.219 408.8 528.98 458.945 528.98H580.934C631.079 528.98 671.84 488.219 671.84 438.075V316.085Z" fill="#AE96C1"/>
<path opacity="0.5" d="M617.881 294.384C617.881 304.061 609.963 312.272 599.993 312.272C590.022 312.272 582.105 304.354 582.105 294.384C582.105 284.413 590.022 276.496 599.993 276.496C609.963 276.496 617.881 284.413 617.881 294.384ZM568.909 373.853C568.909 347.461 547.502 326.054 521.11 326.054C494.718 326.054 473.311 347.461 473.311 373.853C473.311 400.245 494.718 421.652 521.11 421.652C547.502 421.652 568.909 400.245 568.909 373.853ZM595.594 373.853C595.594 414.907 562.164 448.337 521.11 448.337C480.056 448.337 446.626 414.907 446.626 373.853C446.626 332.799 480.056 299.369 521.11 299.369C562.164 299.369 595.594 332.799 595.594 373.853ZM642.513 436.607C642.513 471.21 614.655 499.068 580.052 499.068H457.769C423.166 499.068 395.308 471.21 395.308 436.607V314.324C395.308 279.722 423.166 251.863 457.769 251.863H580.052C614.655 251.863 642.513 279.722 642.513 314.324V436.607ZM670.664 314.618C670.664 264.473 629.903 223.712 579.759 223.712H457.769C407.624 223.712 366.863 264.473 366.863 314.618V436.607C366.863 486.752 407.624 527.513 457.769 527.513H579.759C629.903 527.513 670.664 486.752 670.664 436.607V314.618Z" fill="#AC93BF"/>
<path opacity="0.51" d="M616.419 293.21C616.419 302.887 608.502 311.098 598.531 311.098C588.561 311.098 580.644 303.181 580.644 293.21C580.644 283.24 588.561 275.323 598.531 275.323C608.502 275.323 616.419 283.24 616.419 293.21ZM567.448 372.68C567.448 346.288 546.041 324.881 519.649 324.881C493.257 324.881 471.85 346.288 471.85 372.68C471.85 399.072 493.257 420.478 519.649 420.478C546.041 420.478 567.448 399.072 567.448 372.68ZM594.133 372.68C594.133 413.734 560.703 447.164 519.649 447.164C478.595 447.164 445.165 413.734 445.165 372.68C445.165 331.625 478.595 298.196 519.649 298.196C560.703 298.196 594.133 331.625 594.133 372.68ZM641.052 435.434C641.052 470.037 613.194 497.895 578.591 497.895H456.308C421.705 497.895 393.847 470.037 393.847 435.434V313.151C393.847 278.548 421.705 250.69 456.308 250.69H578.591C613.194 250.69 641.052 278.548 641.052 313.151V435.434ZM669.203 313.444C669.203 263.299 628.442 222.539 578.298 222.539H456.308C406.163 222.539 365.402 263.299 365.402 313.444V435.434C365.402 485.579 406.163 526.34 456.308 526.34H578.298C628.442 526.34 669.203 485.579 669.203 435.434V313.444Z" fill="#AB91BD"/>
<path opacity="0.52" d="M615.244 292.038C615.244 301.715 607.326 309.926 597.356 309.926C587.385 309.926 579.468 302.008 579.468 292.038C579.468 282.068 587.385 274.15 597.356 274.15C607.326 274.15 615.244 282.068 615.244 292.038ZM566.272 371.507C566.272 345.115 544.865 323.708 518.473 323.708C492.081 323.708 470.674 345.115 470.674 371.507C470.674 397.899 492.081 419.306 518.473 419.306C544.865 419.306 566.272 397.899 566.272 371.507ZM592.957 371.507C592.957 412.561 559.527 445.991 518.473 445.991C477.419 445.991 443.989 412.561 443.989 371.507C443.989 330.453 477.419 297.023 518.473 297.023C559.527 297.023 592.957 330.453 592.957 371.507ZM639.876 434.261C639.876 468.864 612.018 496.723 577.415 496.723H455.132C420.529 496.723 392.671 468.864 392.671 434.261V311.979C392.671 277.376 420.529 249.518 455.132 249.518H577.415C612.018 249.518 639.876 277.376 639.876 311.979V434.261ZM668.028 312.272C668.028 262.127 627.267 221.366 577.122 221.366H455.132C404.987 221.366 364.227 262.127 364.227 312.272V434.261C364.227 484.406 404.987 525.167 455.132 525.167H577.122C627.267 525.167 668.028 484.406 668.028 434.261V312.272Z" fill="#A98EBC"/>
<path opacity="0.54" d="M614.072 290.865C614.072 300.542 606.154 308.753 596.184 308.753C586.214 308.753 578.296 300.836 578.296 290.865C578.296 280.895 586.214 272.977 596.184 272.977C606.154 272.977 614.072 280.895 614.072 290.865ZM565.1 370.334C565.1 343.942 543.693 322.536 517.301 322.536C490.909 322.536 469.502 343.942 469.502 370.334C469.502 396.726 490.909 418.133 517.301 418.133C543.693 418.133 565.1 396.726 565.1 370.334ZM591.785 370.334C591.785 411.389 558.355 444.818 517.301 444.818C476.247 444.818 442.817 411.389 442.817 370.334C442.817 329.28 476.247 295.85 517.301 295.85C558.355 295.85 591.785 329.28 591.785 370.334ZM638.704 433.089C638.704 467.692 610.846 495.55 576.243 495.55H453.96C419.358 495.55 391.499 467.692 391.499 433.089V310.806C391.499 276.203 419.358 248.345 453.96 248.345H576.243C610.846 248.345 638.704 276.203 638.704 310.806V433.089ZM666.856 311.099C666.856 260.954 626.095 220.193 575.95 220.193H453.96C403.816 220.193 363.055 260.954 363.055 311.099V433.089C363.055 483.234 403.816 523.994 453.96 523.994H575.95C626.095 523.994 666.856 483.234 666.856 433.089V311.099Z" fill="#A78CBA"/>
<path opacity="0.55" d="M612.896 289.399C612.896 299.076 604.979 307.287 595.008 307.287C585.038 307.287 577.12 299.37 577.12 289.399C577.12 279.429 585.038 271.511 595.008 271.511C604.979 271.511 612.896 279.429 612.896 289.399ZM563.924 368.869C563.924 342.477 542.517 321.07 516.125 321.07C489.733 321.07 468.327 342.477 468.327 368.869C468.327 395.261 489.733 416.667 516.125 416.667C542.517 416.667 563.924 395.261 563.924 368.869ZM590.61 368.869C590.61 409.923 557.18 443.353 516.125 443.353C475.071 443.353 441.641 409.923 441.641 368.869C441.641 327.814 475.071 294.384 516.125 294.384C557.18 294.384 590.61 327.814 590.61 368.869ZM637.529 431.623C637.529 466.226 609.67 494.084 575.068 494.084H452.785C418.182 494.084 390.324 466.226 390.324 431.623V309.34C390.324 274.737 418.182 246.879 452.785 246.879H575.068C609.67 246.879 637.529 274.737 637.529 309.34V431.623ZM665.68 309.633C665.68 259.488 624.919 218.728 574.774 218.728H452.785C402.64 218.728 361.879 259.488 361.879 309.633V431.623C361.879 481.768 402.64 522.529 452.785 522.529H574.774C624.919 522.529 665.68 481.768 665.68 431.623V309.633Z" fill="#A589B9"/>
<path opacity="0.56" d="M611.431 288.226C611.431 297.903 603.513 306.113 593.543 306.113C583.573 306.113 575.655 298.196 575.655 288.226C575.655 278.255 583.573 270.338 593.543 270.338C603.513 270.338 611.431 278.255 611.431 288.226ZM562.459 367.695C562.459 341.303 541.052 319.896 514.66 319.896C488.268 319.896 466.862 341.303 466.862 367.695C466.862 394.087 488.268 415.494 514.66 415.494C541.052 415.494 562.459 394.087 562.459 367.695ZM589.144 367.695C589.144 408.749 555.715 442.179 514.66 442.179C473.606 442.179 440.176 408.749 440.176 367.695C440.176 326.641 473.606 293.211 514.66 293.211C555.715 293.211 589.144 326.641 589.144 367.695ZM636.063 430.449C636.063 465.052 608.205 492.91 573.603 492.91H451.32C416.717 492.91 388.859 465.052 388.859 430.449V308.166C388.859 273.563 416.717 245.705 451.32 245.705H573.603C608.205 245.705 636.063 273.563 636.063 308.166V430.449ZM664.215 308.459C664.215 258.315 623.454 217.554 573.309 217.554H451.32C401.175 217.554 360.414 258.315 360.414 308.459V430.449C360.414 480.594 401.175 521.355 451.32 521.355H573.309C623.454 521.355 664.215 480.594 664.215 430.449V308.459Z" fill="#A387B7"/>
<path opacity="0.57" d="M610.259 287.052C610.259 296.729 602.342 304.94 592.371 304.94C582.401 304.94 574.483 297.023 574.483 287.052C574.483 277.082 582.401 269.164 592.371 269.164C602.342 269.164 610.259 277.082 610.259 287.052ZM561.287 366.522C561.287 340.13 539.88 318.723 513.489 318.723C487.097 318.723 465.69 340.13 465.69 366.522C465.69 392.913 487.097 414.32 513.489 414.32C539.88 414.32 561.287 392.913 561.287 366.522ZM587.973 366.522C587.973 407.576 554.543 441.005 513.489 441.005C472.434 441.005 439.005 407.576 439.005 366.522C439.005 325.467 472.434 292.037 513.489 292.037C554.543 292.037 587.973 325.467 587.973 366.522ZM634.892 429.276C634.892 463.879 607.033 491.737 572.431 491.737H450.148C415.545 491.737 387.687 463.879 387.687 429.276V306.993C387.687 272.39 415.545 244.532 450.148 244.532H572.431C607.033 244.532 634.892 272.39 634.892 306.993V429.276ZM663.043 307.286C663.043 257.141 622.282 216.38 572.137 216.38H450.148C400.003 216.38 359.242 257.141 359.242 307.286V429.276C359.242 479.421 400.003 520.181 450.148 520.181H572.137C622.282 520.181 663.043 479.421 663.043 429.276V307.286Z" fill="#A184B6"/>
<path opacity="0.58" d="M609.083 285.586C609.083 295.263 601.166 303.474 591.195 303.474C581.225 303.474 573.308 295.557 573.308 285.586C573.308 275.616 581.225 267.698 591.195 267.698C601.166 267.698 609.083 275.616 609.083 285.586ZM560.112 365.056C560.112 338.664 538.705 317.257 512.313 317.257C485.921 317.257 464.514 338.664 464.514 365.056C464.514 391.448 485.921 412.854 512.313 412.854C538.705 412.854 560.112 391.448 560.112 365.056ZM586.797 365.056C586.797 406.11 553.367 439.54 512.313 439.54C471.259 439.54 437.829 406.11 437.829 365.056C437.829 324.001 471.259 290.572 512.313 290.572C553.367 290.572 586.797 324.001 586.797 365.056ZM633.716 427.81C633.716 462.413 605.858 490.271 571.255 490.271H448.972C414.369 490.271 386.511 462.413 386.511 427.81V305.527C386.511 270.924 414.369 243.066 448.972 243.066H571.255C605.858 243.066 633.716 270.924 633.716 305.527V427.81ZM661.867 305.82C661.867 255.676 621.107 214.915 570.962 214.915H448.972C398.827 214.915 358.066 255.676 358.066 305.82V427.81C358.066 477.955 398.827 518.716 448.972 518.716H570.962C621.107 518.716 661.867 477.955 661.867 427.81V305.82Z" fill="#9F82B4"/>
<path opacity="0.6" d="M607.623 284.414C607.623 294.091 599.705 302.302 589.735 302.302C579.764 302.302 571.847 294.384 571.847 284.414C571.847 274.444 579.764 266.526 589.735 266.526C599.705 266.526 607.623 274.444 607.623 284.414ZM558.651 363.883C558.651 337.491 537.244 316.084 510.852 316.084C484.46 316.084 463.053 337.491 463.053 363.883C463.053 390.275 484.46 411.682 510.852 411.682C537.244 411.682 558.651 390.275 558.651 363.883ZM585.336 363.883C585.336 404.938 551.906 438.367 510.852 438.367C469.798 438.367 436.368 404.938 436.368 363.883C436.368 322.829 469.798 289.399 510.852 289.399C551.906 289.399 585.336 322.829 585.336 363.883ZM632.255 426.638C632.255 461.24 604.397 489.099 569.794 489.099H447.511C412.908 489.099 385.05 461.24 385.05 426.638V304.355C385.05 269.752 412.908 241.894 447.511 241.894H569.794C604.397 241.894 632.255 269.752 632.255 304.355V426.638ZM660.407 304.648C660.407 254.503 619.646 213.742 569.501 213.742H447.511C397.366 213.742 356.605 254.503 356.605 304.648V426.638C356.605 476.782 397.366 517.543 447.511 517.543H569.501C619.646 517.543 660.407 476.782 660.407 426.638V304.648Z" fill="#9D7FB3"/>
<path opacity="0.61" d="M606.447 283.241C606.447 292.918 598.529 301.129 588.559 301.129C578.589 301.129 570.671 293.211 570.671 283.241C570.671 273.271 578.589 265.353 588.559 265.353C598.529 265.353 606.447 273.271 606.447 283.241ZM557.475 362.71C557.475 336.318 536.068 314.912 509.676 314.912C483.284 314.912 461.877 336.318 461.877 362.71C461.877 389.102 483.284 410.509 509.676 410.509C536.068 410.509 557.475 389.102 557.475 362.71ZM584.16 362.71C584.16 403.765 550.73 437.194 509.676 437.194C468.622 437.194 435.192 403.765 435.192 362.71C435.192 321.656 468.622 288.226 509.676 288.226C550.73 288.226 584.16 321.656 584.16 362.71ZM631.079 425.465C631.079 460.067 603.221 487.926 568.618 487.926H446.336C411.733 487.926 383.874 460.067 383.874 425.465V303.182C383.874 268.579 411.733 240.721 446.336 240.721H568.618C603.221 240.721 631.079 268.579 631.079 303.182V425.465ZM659.231 303.475C659.231 253.33 618.47 212.569 568.325 212.569H446.336C396.191 212.569 355.43 253.33 355.43 303.475V425.465C355.43 475.609 396.191 516.37 446.336 516.37H568.325C618.47 516.37 659.231 475.609 659.231 425.465V303.475Z" fill="#9B7CB1"/>
<path opacity="0.62" d="M605.275 281.774C605.275 291.451 597.357 299.662 587.387 299.662C577.417 299.662 569.499 291.744 569.499 281.774C569.499 271.804 577.417 263.886 587.387 263.886C597.357 263.886 605.275 271.804 605.275 281.774ZM556.303 361.243C556.303 334.851 534.896 313.444 508.504 313.444C482.112 313.444 460.705 334.851 460.705 361.243C460.705 387.635 482.112 409.042 508.504 409.042C534.896 409.042 556.303 387.635 556.303 361.243ZM582.988 361.243C582.988 402.297 549.558 435.727 508.504 435.727C467.45 435.727 434.02 402.297 434.02 361.243C434.02 320.189 467.45 286.759 508.504 286.759C549.558 286.759 582.988 320.189 582.988 361.243ZM629.907 423.997C629.907 458.6 602.049 486.458 567.446 486.458H445.163C410.561 486.458 382.702 458.6 382.702 423.997V301.714C382.702 267.112 410.561 239.253 445.163 239.253H567.446C602.049 239.253 629.907 267.112 629.907 301.714V423.997ZM658.059 302.008C658.059 251.863 617.298 211.102 567.153 211.102H445.163C395.019 211.102 354.258 251.863 354.258 302.008V423.997C354.258 474.142 395.019 514.903 445.163 514.903H567.153C617.298 514.903 658.059 474.142 658.059 423.997V302.008Z" fill="#997AB0"/>
<path opacity="0.63" d="M603.806 280.601C603.806 290.278 595.888 298.489 585.918 298.489C575.948 298.489 568.03 290.571 568.03 280.601C568.03 270.631 575.948 262.713 585.918 262.713C595.888 262.713 603.806 270.631 603.806 280.601ZM554.834 360.07C554.834 333.678 533.428 312.271 507.036 312.271C480.644 312.271 459.237 333.678 459.237 360.07C459.237 386.462 480.644 407.869 507.036 407.869C533.428 407.869 554.834 386.462 554.834 360.07ZM581.52 360.07C581.52 401.124 548.09 434.554 507.036 434.554C465.981 434.554 432.552 401.124 432.552 360.07C432.552 319.016 465.981 285.586 507.036 285.586C548.09 285.586 581.52 319.016 581.52 360.07ZM628.439 422.824C628.439 457.427 600.58 485.286 565.978 485.286H443.695C409.092 485.286 381.234 457.427 381.234 422.824V300.542C381.234 265.939 409.092 238.081 443.695 238.081H565.978C600.58 238.081 628.439 265.939 628.439 300.542V422.824ZM656.59 300.835C656.59 250.69 615.829 209.929 565.684 209.929H443.695C393.55 209.929 352.789 250.69 352.789 300.835V422.824C352.789 472.969 393.55 513.73 443.695 513.73H565.684C615.829 513.73 656.59 472.969 656.59 422.824V300.835Z" fill="#9777AE"/>
<path opacity="0.64" d="M602.634 279.428C602.634 289.105 594.717 297.316 584.746 297.316C574.776 297.316 566.859 289.399 566.859 279.428C566.859 269.458 574.776 261.54 584.746 261.54C594.717 261.54 602.634 269.458 602.634 279.428ZM553.662 358.897C553.662 332.505 532.256 311.099 505.864 311.099C479.472 311.099 458.065 332.505 458.065 358.897C458.065 385.289 479.472 406.696 505.864 406.696C532.256 406.696 553.662 385.289 553.662 358.897ZM580.348 358.897C580.348 399.952 546.918 433.381 505.864 433.381C464.81 433.381 431.38 399.952 431.38 358.897C431.38 317.843 464.81 284.413 505.864 284.413C546.918 284.413 580.348 317.843 580.348 358.897ZM627.267 421.652C627.267 456.254 599.408 484.113 564.806 484.113H442.523C407.92 484.113 380.062 456.254 380.062 421.652V299.369C380.062 264.766 407.92 236.908 442.523 236.908H564.806C599.408 236.908 627.267 264.766 627.267 299.369V421.652ZM655.418 299.662C655.418 249.517 614.657 208.756 564.513 208.756H442.523C392.378 208.756 351.617 249.517 351.617 299.662V421.652C351.617 471.796 392.378 512.557 442.523 512.557H564.513C614.657 512.557 655.418 471.796 655.418 421.652V299.662Z" fill="#9575AD"/>
<path opacity="0.65" d="M601.462 277.962C601.462 287.639 593.545 295.85 583.575 295.85C573.604 295.85 565.687 287.933 565.687 277.962C565.687 267.992 573.604 260.074 583.575 260.074C593.545 260.074 601.462 267.992 601.462 277.962ZM552.491 357.432C552.491 331.04 531.084 309.633 504.692 309.633C478.3 309.633 456.893 331.04 456.893 357.432C456.893 383.824 478.3 405.23 504.692 405.23C531.084 405.23 552.491 383.824 552.491 357.432ZM579.176 357.432C579.176 398.486 545.746 431.916 504.692 431.916C463.638 431.916 430.208 398.486 430.208 357.432C430.208 316.377 463.638 282.947 504.692 282.947C545.746 282.947 579.176 316.377 579.176 357.432ZM626.095 420.186C626.095 454.789 598.237 482.647 563.634 482.647H441.351C406.748 482.647 378.89 454.789 378.89 420.186V297.903C378.89 263.3 406.748 235.442 441.351 235.442H563.634C598.237 235.442 626.095 263.3 626.095 297.903V420.186ZM654.246 298.196C654.246 248.051 613.485 207.291 563.341 207.291H441.351C391.206 207.291 350.445 248.051 350.445 298.196V420.186C350.445 470.331 391.206 511.092 441.351 511.092H563.341C613.485 511.092 654.246 470.331 654.246 420.186V298.196Z" fill="#9372AB"/>
<path opacity="0.67" d="M600.291 276.79C600.291 286.467 592.373 294.678 582.403 294.678C572.432 294.678 564.515 286.76 564.515 276.79C564.515 266.82 572.432 258.902 582.403 258.902C592.373 258.902 600.291 266.82 600.291 276.79ZM551.319 356.259C551.319 329.867 529.912 308.46 503.52 308.46C477.128 308.46 455.721 329.867 455.721 356.259C455.721 382.651 477.128 404.058 503.52 404.058C529.912 404.058 551.319 382.651 551.319 356.259ZM578.004 356.259C578.004 397.313 544.574 430.743 503.52 430.743C462.466 430.743 429.036 397.313 429.036 356.259C429.036 315.205 462.466 281.775 503.52 281.775C544.574 281.775 578.004 315.205 578.004 356.259ZM624.923 419.013C624.923 453.616 597.065 481.474 562.462 481.474H440.179C405.576 481.474 377.718 453.616 377.718 419.013V296.731C377.718 262.128 405.576 234.27 440.179 234.27H562.462C597.065 234.27 624.923 262.128 624.923 296.731V419.013ZM653.074 297.024C653.074 246.879 612.314 206.118 562.169 206.118H440.179C390.034 206.118 349.273 246.879 349.273 297.024V419.013C349.273 469.158 390.034 509.919 440.179 509.919H562.169C612.314 509.919 653.074 469.158 653.074 419.013V297.024Z" fill="#9170AA"/>
<path opacity="0.68" d="M598.822 275.616C598.822 285.293 590.904 293.504 580.934 293.504C570.963 293.504 563.046 285.586 563.046 275.616C563.046 265.645 570.963 257.728 580.934 257.728C590.904 257.728 598.822 265.645 598.822 275.616ZM549.85 355.085C549.85 328.693 528.443 307.286 502.051 307.286C475.659 307.286 454.252 328.693 454.252 355.085C454.252 381.477 475.659 402.884 502.051 402.884C528.443 402.884 549.85 381.477 549.85 355.085ZM576.535 355.085C576.535 396.139 543.105 429.569 502.051 429.569C460.997 429.569 427.567 396.139 427.567 355.085C427.567 314.031 460.997 280.601 502.051 280.601C543.105 280.601 576.535 314.031 576.535 355.085ZM623.454 417.839C623.454 452.442 595.596 480.3 560.993 480.3H438.71C404.108 480.3 376.249 452.442 376.249 417.839V295.556C376.249 260.954 404.108 233.095 438.71 233.095H560.993C595.596 233.095 623.454 260.954 623.454 295.556V417.839ZM651.606 295.85C651.606 245.705 610.845 204.944 560.7 204.944H438.71C388.566 204.944 347.805 245.705 347.805 295.85V417.839C347.805 467.984 388.566 508.745 438.71 508.745H560.7C610.845 508.745 651.606 467.984 651.606 417.839V295.85Z" fill="#8F6DA8"/>
<path opacity="0.69" d="M597.65 274.443C597.65 284.12 589.732 292.331 579.762 292.331C569.792 292.331 561.874 284.414 561.874 274.443C561.874 264.473 569.792 256.555 579.762 256.555C589.732 256.555 597.65 264.473 597.65 274.443ZM548.678 353.913C548.678 327.521 527.271 306.114 500.879 306.114C474.487 306.114 453.08 327.521 453.08 353.913C453.08 380.305 474.487 401.711 500.879 401.711C527.271 401.711 548.678 380.305 548.678 353.913ZM575.363 353.913C575.363 394.967 541.934 428.397 500.879 428.397C459.825 428.397 426.395 394.967 426.395 353.913C426.395 312.858 459.825 279.428 500.879 279.428C541.934 279.428 575.363 312.858 575.363 353.913ZM622.282 416.667C622.282 451.27 594.424 479.128 559.821 479.128H437.538C402.936 479.128 375.078 451.27 375.078 416.667V294.384C375.078 259.781 402.936 231.923 437.538 231.923H559.821C594.424 231.923 622.282 259.781 622.282 294.384V416.667ZM650.434 294.677C650.434 244.532 609.673 203.771 559.528 203.771H437.538C387.394 203.771 346.633 244.532 346.633 294.677V416.667C346.633 466.812 387.394 507.572 437.538 507.572H559.528C609.673 507.572 650.434 466.812 650.434 416.667V294.677Z" fill="#8D6BA7"/>
<path opacity="0.7" d="M596.478 272.977C596.478 282.654 588.56 290.865 578.59 290.865C568.62 290.865 560.702 282.947 560.702 272.977C560.702 263.007 568.62 255.089 578.59 255.089C588.56 255.089 596.478 263.007 596.478 272.977ZM547.506 352.446C547.506 326.054 526.099 304.647 499.707 304.647C473.315 304.647 451.909 326.054 451.909 352.446C451.909 378.838 473.315 400.245 499.707 400.245C526.099 400.245 547.506 378.838 547.506 352.446ZM574.192 352.446C574.192 393.501 540.762 426.93 499.707 426.93C458.653 426.93 425.223 393.501 425.223 352.446C425.223 311.392 458.653 277.962 499.707 277.962C540.762 277.962 574.192 311.392 574.192 352.446ZM621.111 415.201C621.111 449.803 593.252 477.662 558.649 477.662H436.367C401.764 477.662 373.906 449.803 373.906 415.201V292.918C373.906 258.315 401.764 230.457 436.367 230.457H558.649C593.252 230.457 621.111 258.315 621.111 292.918V415.201ZM649.262 293.211C649.262 243.066 608.501 202.305 558.356 202.305H436.367C386.222 202.305 345.461 243.066 345.461 293.211V415.201C345.461 465.345 386.222 506.106 436.367 506.106H558.356C608.501 506.106 649.262 465.345 649.262 415.201V293.211Z" fill="#8B68A5"/>
<path opacity="0.71" d="M595.009 271.805C595.009 281.482 587.092 289.692 577.121 289.692C567.151 289.692 559.234 281.775 559.234 271.805C559.234 261.834 567.151 253.917 577.121 253.917C587.092 253.917 595.009 261.834 595.009 271.805ZM546.037 351.274C546.037 324.882 524.631 303.475 498.239 303.475C471.847 303.475 450.44 324.882 450.44 351.274C450.44 377.666 471.847 399.073 498.239 399.073C524.631 399.073 546.037 377.666 546.037 351.274ZM572.723 351.274C572.723 392.328 539.293 425.758 498.239 425.758C457.185 425.758 423.755 392.328 423.755 351.274C423.755 310.22 457.185 276.79 498.239 276.79C539.293 276.79 572.723 310.22 572.723 351.274ZM619.642 414.028C619.642 448.631 591.784 476.489 557.181 476.489H434.898C400.295 476.489 372.437 448.631 372.437 414.028V291.745C372.437 257.142 400.295 229.284 434.898 229.284H557.181C591.784 229.284 619.642 257.142 619.642 291.745V414.028ZM647.793 292.038C647.793 241.894 607.032 201.133 556.888 201.133H434.898C384.753 201.133 343.992 241.894 343.992 292.038V414.028C343.992 464.173 384.753 504.934 434.898 504.934H556.888C607.032 504.934 647.793 464.173 647.793 414.028V292.038Z" fill="#8965A4"/>
<path opacity="0.73" d="M593.838 270.631C593.838 280.308 585.92 288.519 575.95 288.519C565.979 288.519 558.062 280.602 558.062 270.631C558.062 260.661 565.979 252.743 575.95 252.743C585.92 252.743 593.838 260.661 593.838 270.631ZM544.866 350.1C544.866 323.709 523.459 302.302 497.067 302.302C470.675 302.302 449.268 323.709 449.268 350.1C449.268 376.492 470.675 397.899 497.067 397.899C523.459 397.899 544.866 376.492 544.866 350.1ZM571.551 350.1C571.551 391.155 538.121 424.585 497.067 424.585C456.013 424.585 422.583 391.155 422.583 350.1C422.583 309.046 456.013 275.616 497.067 275.616C538.121 275.616 571.551 309.046 571.551 350.1ZM618.47 412.855C618.47 447.458 590.612 475.316 556.009 475.316H433.726C399.123 475.316 371.265 447.458 371.265 412.855V290.572C371.265 255.969 399.123 228.111 433.726 228.111H556.009C590.612 228.111 618.47 255.969 618.47 290.572V412.855ZM646.621 290.865C646.621 240.72 605.86 199.959 555.716 199.959H433.726C383.581 199.959 342.82 240.72 342.82 290.865V412.855C342.82 463 383.581 503.761 433.726 503.761H555.716C605.86 503.761 646.621 463 646.621 412.855V290.865Z" fill="#8763A2"/>
<path opacity="0.74" d="M592.662 269.164C592.662 278.841 584.744 287.052 574.774 287.052C564.803 287.052 556.886 279.134 556.886 269.164C556.886 259.194 564.803 251.276 574.774 251.276C584.744 251.276 592.662 259.194 592.662 269.164ZM543.69 348.633C543.69 322.241 522.283 300.834 495.891 300.834C469.499 300.834 448.092 322.241 448.092 348.633C448.092 375.025 469.499 396.432 495.891 396.432C522.283 396.432 543.69 375.025 543.69 348.633ZM570.375 348.633C570.375 389.687 536.945 423.117 495.891 423.117C454.837 423.117 421.407 389.687 421.407 348.633C421.407 307.579 454.837 274.149 495.891 274.149C536.945 274.149 570.375 307.579 570.375 348.633ZM617.294 411.387C617.294 445.99 589.436 473.849 554.833 473.849H432.55C397.947 473.849 370.089 445.99 370.089 411.387V289.105C370.089 254.502 397.947 226.644 432.55 226.644H554.833C589.436 226.644 617.294 254.502 617.294 289.105V411.387ZM645.445 289.398C645.445 239.253 604.684 198.492 554.54 198.492H432.55C382.405 198.492 341.645 239.253 341.645 289.398V411.387C341.645 461.532 382.405 502.293 432.55 502.293H554.54C604.684 502.293 645.445 461.532 645.445 411.387V289.398Z" fill="#8560A1"/>
<path opacity="0.75" d="M591.201 267.991C591.201 277.668 583.283 285.879 573.313 285.879C563.342 285.879 555.425 277.961 555.425 267.991C555.425 258.021 563.342 250.103 573.313 250.103C583.283 250.103 591.201 258.021 591.201 267.991ZM542.229 347.46C542.229 321.068 520.822 299.662 494.43 299.662C468.038 299.662 446.631 321.068 446.631 347.46C446.631 373.852 468.038 395.259 494.43 395.259C520.822 395.259 542.229 373.852 542.229 347.46ZM568.914 347.46C568.914 388.515 535.484 421.944 494.43 421.944C453.376 421.944 419.946 388.515 419.946 347.46C419.946 306.406 453.376 272.976 494.43 272.976C535.484 272.976 568.914 306.406 568.914 347.46ZM615.833 410.215C615.833 444.817 587.975 472.676 553.372 472.676H431.089C396.486 472.676 368.628 444.817 368.628 410.215V287.932C368.628 253.329 396.486 225.471 431.089 225.471H553.372C587.975 225.471 615.833 253.329 615.833 287.932V410.215ZM643.985 288.225C643.985 238.08 603.224 197.319 553.079 197.319H431.089C380.944 197.319 340.184 238.08 340.184 288.225V410.215C340.184 460.359 380.944 501.12 431.089 501.12H553.079C603.224 501.12 643.985 460.359 643.985 410.215V288.225Z" fill="#835E9F"/>
<path opacity="0.76" d="M590.025 266.819C590.025 276.496 582.107 284.707 572.137 284.707C562.167 284.707 554.249 276.789 554.249 266.819C554.249 256.849 562.167 248.931 572.137 248.931C582.107 248.931 590.025 256.849 590.025 266.819ZM541.053 346.288C541.053 319.896 519.646 298.489 493.254 298.489C466.862 298.489 445.455 319.896 445.455 346.288C445.455 372.68 466.862 394.087 493.254 394.087C519.646 394.087 541.053 372.68 541.053 346.288ZM567.738 346.288C567.738 387.342 534.309 420.772 493.254 420.772C452.2 420.772 418.77 387.342 418.77 346.288C418.77 305.234 452.2 271.804 493.254 271.804C534.309 271.804 567.738 305.234 567.738 346.288ZM614.657 409.042C614.657 443.645 586.799 471.503 552.197 471.503H429.913C395.311 471.503 367.453 443.645 367.453 409.042V286.759C367.453 252.157 395.311 224.298 429.913 224.298H552.197C586.799 224.298 614.657 252.157 614.657 286.759V409.042ZM642.809 287.053C642.809 236.908 602.048 196.147 551.903 196.147H429.913C379.769 196.147 339.008 236.908 339.008 287.053V409.042C339.008 459.187 379.769 499.948 429.913 499.948H551.903C602.048 499.948 642.809 459.187 642.809 409.042V287.053Z" fill="#815B9D"/>
<path opacity="0.77" d="M588.853 265.353C588.853 275.03 580.936 283.241 570.965 283.241C560.995 283.241 553.077 275.323 553.077 265.353C553.077 255.383 560.995 247.465 570.965 247.465C580.936 247.465 588.853 255.383 588.853 265.353ZM539.881 344.822C539.881 318.43 518.474 297.023 492.082 297.023C465.69 297.023 444.284 318.43 444.284 344.822C444.284 371.214 465.69 392.621 492.082 392.621C518.474 392.621 539.881 371.214 539.881 344.822ZM566.567 344.822C566.567 385.876 533.137 419.306 492.082 419.306C451.028 419.306 417.598 385.876 417.598 344.822C417.598 303.768 451.028 270.338 492.082 270.338C533.137 270.338 566.567 303.768 566.567 344.822ZM613.486 407.576C613.486 442.179 585.627 470.037 551.025 470.037H428.742C394.139 470.037 366.281 442.179 366.281 407.576V285.294C366.281 250.691 394.139 222.833 428.742 222.833H551.025C585.627 222.833 613.486 250.691 613.486 285.294V407.576ZM641.637 285.587C641.637 235.442 600.876 194.681 550.731 194.681H428.742C378.597 194.681 337.836 235.442 337.836 285.587V407.576C337.836 457.721 378.597 498.482 428.742 498.482H550.731C600.876 498.482 641.637 457.721 641.637 407.576V285.587Z" fill="#7F599C"/>
<path opacity="0.79" d="M587.677 264.18C587.677 273.857 579.76 282.068 569.789 282.068C559.819 282.068 551.902 274.15 551.902 264.18C551.902 254.209 559.819 246.292 569.789 246.292C579.76 246.292 587.677 254.209 587.677 264.18ZM538.705 343.649C538.705 317.257 517.299 295.85 490.907 295.85C464.515 295.85 443.108 317.257 443.108 343.649C443.108 370.041 464.515 391.448 490.907 391.448C517.299 391.448 538.705 370.041 538.705 343.649ZM565.391 343.649C565.391 384.703 531.961 418.133 490.907 418.133C449.852 418.133 416.423 384.703 416.423 343.649C416.423 302.595 449.852 269.165 490.907 269.165C531.961 269.165 565.391 302.595 565.391 343.649ZM612.31 406.403C612.31 441.006 584.452 468.864 549.849 468.864H427.566C392.963 468.864 365.105 441.006 365.105 406.403V284.12C365.105 249.517 392.963 221.659 427.566 221.659H549.849C584.452 221.659 612.31 249.517 612.31 284.12V406.403ZM640.461 284.414C640.461 234.269 599.7 193.508 549.556 193.508H427.566C377.421 193.508 336.66 234.269 336.66 284.414V406.403C336.66 456.548 377.421 497.309 427.566 497.309H549.556C599.7 497.309 640.461 456.548 640.461 406.403V284.414Z" fill="#7D569A"/>
<path opacity="0.8" d="M586.212 263.006C586.212 272.683 578.295 280.894 568.324 280.894C558.354 280.894 550.436 272.977 550.436 263.006C550.436 253.036 558.354 245.119 568.324 245.119C578.295 245.119 586.212 253.036 586.212 263.006ZM537.241 342.476C537.241 316.084 515.834 294.677 489.442 294.677C463.05 294.677 441.643 316.084 441.643 342.476C441.643 368.868 463.05 390.274 489.442 390.274C515.834 390.274 537.241 368.868 537.241 342.476ZM563.926 342.476C563.926 383.53 530.496 416.96 489.442 416.96C448.387 416.96 414.958 383.53 414.958 342.476C414.958 301.421 448.387 267.992 489.442 267.992C530.496 267.992 563.926 301.421 563.926 342.476ZM610.845 405.23C610.845 439.833 582.987 467.691 548.384 467.691H426.101C391.498 467.691 363.64 439.833 363.64 405.23V282.947C363.64 248.344 391.498 220.486 426.101 220.486H548.384C582.987 220.486 610.845 248.344 610.845 282.947V405.23ZM638.996 283.24C638.996 233.095 598.235 192.334 548.09 192.334H426.101C375.956 192.334 335.195 233.095 335.195 283.24V405.23C335.195 455.375 375.956 496.136 426.101 496.136H548.09C598.235 496.136 638.996 455.375 638.996 405.23V283.24Z" fill="#7B5499"/>
<path opacity="0.81" d="M585.04 261.833C585.04 271.511 577.123 279.721 567.153 279.721C557.182 279.721 549.265 271.804 549.265 261.833C549.265 251.863 557.182 243.946 567.153 243.946C577.123 243.946 585.04 251.863 585.04 261.833ZM536.069 341.303C536.069 314.911 514.662 293.504 488.27 293.504C461.878 293.504 440.471 314.911 440.471 341.303C440.471 367.695 461.878 389.102 488.27 389.102C514.662 389.102 536.069 367.695 536.069 341.303ZM562.754 341.303C562.754 382.357 529.324 415.787 488.27 415.787C447.216 415.787 413.786 382.357 413.786 341.303C413.786 300.248 447.216 266.819 488.27 266.819C529.324 266.819 562.754 300.248 562.754 341.303ZM609.673 404.057C609.673 438.66 581.815 466.518 547.212 466.518H424.929C390.326 466.518 362.468 438.66 362.468 404.057V281.774C362.468 247.171 390.326 219.313 424.929 219.313H547.212C581.815 219.313 609.673 247.171 609.673 281.774V404.057ZM637.824 282.067C637.824 231.923 597.064 191.162 546.919 191.162H424.929C374.784 191.162 334.023 231.923 334.023 282.067V404.057C334.023 454.202 374.784 494.963 424.929 494.963H546.919C597.064 494.963 637.824 454.202 637.824 404.057V282.067Z" fill="#795197"/>
<path opacity="0.82" d="M583.865 260.367C583.865 270.044 575.947 278.255 565.977 278.255C556.006 278.255 548.089 270.337 548.089 260.367C548.089 250.397 556.006 242.479 565.977 242.479C575.947 242.479 583.865 250.397 583.865 260.367ZM534.893 339.836C534.893 313.444 513.486 292.038 487.094 292.038C460.702 292.038 439.295 313.444 439.295 339.836C439.295 366.228 460.702 387.635 487.094 387.635C513.486 387.635 534.893 366.228 534.893 339.836ZM561.578 339.836C561.578 380.891 528.148 414.32 487.094 414.32C446.04 414.32 412.61 380.891 412.61 339.836C412.61 298.782 446.04 265.352 487.094 265.352C528.148 265.352 561.578 298.782 561.578 339.836ZM608.497 402.591C608.497 437.194 580.639 465.052 546.036 465.052H423.753C389.151 465.052 361.292 437.194 361.292 402.591V280.308C361.292 245.705 389.151 217.847 423.753 217.847H546.036C580.639 217.847 608.497 245.705 608.497 280.308V402.591ZM636.649 280.601C636.649 230.456 595.888 189.695 545.743 189.695H423.753C373.609 189.695 332.848 230.456 332.848 280.601V402.591C332.848 452.735 373.609 493.496 423.753 493.496H545.743C595.888 493.496 636.649 452.735 636.649 402.591V280.601Z" fill="#774E96"/>
<path opacity="0.83" d="M582.4 259.194C582.4 268.871 574.482 277.082 564.512 277.082C554.542 277.082 546.624 269.165 546.624 259.194C546.624 249.224 554.542 241.306 564.512 241.306C574.482 241.306 582.4 249.224 582.4 259.194ZM533.428 338.664C533.428 312.272 512.021 290.865 485.629 290.865C459.237 290.865 437.831 312.272 437.831 338.664C437.831 365.055 459.237 386.462 485.629 386.462C512.021 386.462 533.428 365.055 533.428 338.664ZM560.113 338.664C560.113 379.718 526.684 413.148 485.629 413.148C444.575 413.148 411.145 379.718 411.145 338.664C411.145 297.609 444.575 264.179 485.629 264.179C526.684 264.179 560.113 297.609 560.113 338.664ZM607.032 401.418C607.032 436.021 579.174 463.879 544.572 463.879H422.289C387.686 463.879 359.828 436.021 359.828 401.418V279.135C359.828 244.532 387.686 216.674 422.289 216.674H544.572C579.174 216.674 607.032 244.532 607.032 279.135V401.418ZM635.184 279.428C635.184 229.283 594.423 188.522 544.278 188.522H422.289C372.144 188.522 331.383 229.283 331.383 279.428V401.418C331.383 451.563 372.144 492.323 422.289 492.323H544.278C594.423 492.323 635.184 451.563 635.184 401.418V279.428Z" fill="#764C94"/>
<path opacity="0.85" d="M581.228 258.022C581.228 267.699 573.311 275.91 563.34 275.91C553.37 275.91 545.452 267.992 545.452 258.022C545.452 248.052 553.37 240.134 563.34 240.134C573.311 240.134 581.228 248.052 581.228 258.022ZM532.256 337.491C532.256 311.099 510.849 289.692 484.457 289.692C458.065 289.692 436.659 311.099 436.659 337.491C436.659 363.883 458.065 385.29 484.457 385.29C510.849 385.29 532.256 363.883 532.256 337.491ZM558.942 337.491C558.942 378.545 525.512 411.975 484.457 411.975C443.403 411.975 409.973 378.545 409.973 337.491C409.973 296.437 443.403 263.007 484.457 263.007C525.512 263.007 558.942 296.437 558.942 337.491ZM605.861 400.245C605.861 434.848 578.002 462.706 543.4 462.706H421.117C386.514 462.706 358.656 434.848 358.656 400.245V277.963C358.656 243.36 386.514 215.502 421.117 215.502H543.4C578.002 215.502 605.861 243.36 605.861 277.963V400.245ZM634.012 278.256C634.012 228.111 593.251 187.35 543.106 187.35H421.117C370.972 187.35 330.211 228.111 330.211 278.256V400.245C330.211 450.39 370.972 491.151 421.117 491.151H543.106C593.251 491.151 634.012 450.39 634.012 400.245V278.256Z" fill="#744993"/>
<path opacity="0.86" d="M580.056 256.555C580.056 266.232 572.138 274.443 562.168 274.443C552.198 274.443 544.28 266.525 544.28 256.555C544.28 246.584 552.198 238.667 562.168 238.667C572.138 238.667 580.056 246.584 580.056 256.555ZM531.084 336.024C531.084 309.632 509.677 288.225 483.285 288.225C456.893 288.225 435.487 309.632 435.487 336.024C435.487 362.416 456.893 383.823 483.285 383.823C509.677 383.823 531.084 362.416 531.084 336.024ZM557.769 336.024C557.769 377.078 524.34 410.508 483.285 410.508C442.231 410.508 408.801 377.078 408.801 336.024C408.801 294.97 442.231 261.54 483.285 261.54C524.34 261.54 557.769 294.97 557.769 336.024ZM604.688 398.778C604.688 433.381 576.83 461.239 542.228 461.239H419.945C385.342 461.239 357.484 433.381 357.484 398.778V276.495C357.484 241.892 385.342 214.034 419.945 214.034H542.228C576.83 214.034 604.688 241.892 604.688 276.495V398.778ZM632.84 276.788C632.84 226.644 592.079 185.883 541.934 185.883H419.945C369.8 185.883 329.039 226.644 329.039 276.788V398.778C329.039 448.923 369.8 489.684 419.945 489.684H541.934C592.079 489.684 632.84 448.923 632.84 398.778V276.788Z" fill="#724791"/>
<path opacity="0.87" d="M578.587 255.381C578.587 265.058 570.67 273.269 560.699 273.269C550.729 273.269 542.811 265.352 542.811 255.381C542.811 245.411 550.729 237.493 560.699 237.493C570.67 237.493 578.587 245.411 578.587 255.381ZM529.616 334.85C529.616 308.459 508.209 287.052 481.817 287.052C455.425 287.052 434.018 308.459 434.018 334.85C434.018 361.242 455.425 382.649 481.817 382.649C508.209 382.649 529.616 361.242 529.616 334.85ZM556.301 334.85C556.301 375.905 522.871 409.335 481.817 409.335C440.763 409.335 407.333 375.905 407.333 334.85C407.333 293.796 440.763 260.366 481.817 260.366C522.871 260.366 556.301 293.796 556.301 334.85ZM603.22 397.605C603.22 432.208 575.362 460.066 540.759 460.066H418.476C383.873 460.066 356.015 432.208 356.015 397.605V275.322C356.015 240.719 383.873 212.861 418.476 212.861H540.759C575.362 212.861 603.22 240.719 603.22 275.322V397.605ZM631.371 275.615C631.371 225.47 590.61 184.709 540.466 184.709H418.476C368.331 184.709 327.57 225.47 327.57 275.615V397.605C327.57 447.75 368.331 488.511 418.476 488.511H540.466C590.61 488.511 631.371 447.75 631.371 397.605V275.615Z" fill="#704490"/>
<path opacity="0.88" d="M577.415 254.209C577.415 263.887 569.498 272.097 559.528 272.097C549.557 272.097 541.64 264.18 541.64 254.209C541.64 244.239 549.557 236.322 559.528 236.322C569.498 236.322 577.415 244.239 577.415 254.209ZM528.444 333.679C528.444 307.287 507.037 285.88 480.645 285.88C454.253 285.88 432.846 307.287 432.846 333.679C432.846 360.071 454.253 381.477 480.645 381.477C507.037 381.477 528.444 360.071 528.444 333.679ZM555.129 333.679C555.129 374.733 521.699 408.163 480.645 408.163C439.591 408.163 406.161 374.733 406.161 333.679C406.161 292.624 439.591 259.195 480.645 259.195C521.699 259.195 555.129 292.624 555.129 333.679ZM602.048 396.433C602.048 431.036 574.19 458.894 539.587 458.894H417.304C382.701 458.894 354.843 431.036 354.843 396.433V274.15C354.843 239.547 382.701 211.689 417.304 211.689H539.587C574.19 211.689 602.048 239.547 602.048 274.15V396.433ZM630.199 274.443C630.199 224.299 589.439 183.538 539.294 183.538H417.304C367.159 183.538 326.398 224.299 326.398 274.443V396.433C326.398 446.578 367.159 487.339 417.304 487.339H539.294C589.439 487.339 630.199 446.578 630.199 396.433V274.443Z" fill="#6E428E"/>
<path opacity="0.89" d="M576.244 252.743C576.244 262.42 568.326 270.631 558.356 270.631C548.386 270.631 540.468 262.713 540.468 252.743C540.468 242.773 548.386 234.855 558.356 234.855C568.326 234.855 576.244 242.773 576.244 252.743ZM527.272 332.212C527.272 305.82 505.865 284.414 479.473 284.414C453.081 284.414 431.674 305.82 431.674 332.212C431.674 358.604 453.081 380.011 479.473 380.011C505.865 380.011 527.272 358.604 527.272 332.212ZM553.957 332.212C553.957 373.267 520.527 406.696 479.473 406.696C438.419 406.696 404.989 373.267 404.989 332.212C404.989 291.158 438.419 257.728 479.473 257.728C520.527 257.728 553.957 291.158 553.957 332.212ZM600.876 394.967C600.876 429.569 573.018 457.428 538.415 457.428H416.132C381.529 457.428 353.671 429.569 353.671 394.967V272.684C353.671 238.081 381.529 210.223 416.132 210.223H538.415C573.018 210.223 600.876 238.081 600.876 272.684V394.967ZM629.028 272.977C629.028 222.832 588.267 182.071 538.122 182.071H416.132C365.987 182.071 325.227 222.832 325.227 272.977V394.967C325.227 445.111 365.987 485.872 416.132 485.872H538.122C588.267 485.872 629.028 445.111 629.028 394.967V272.977Z" fill="#6C3F8D"/>
<path opacity="0.9" d="M575.068 251.57C575.068 261.247 567.15 269.458 557.18 269.458C547.21 269.458 539.292 261.54 539.292 251.57C539.292 241.6 547.21 233.682 557.18 233.682C567.15 233.682 575.068 241.6 575.068 251.57ZM526.096 331.039C526.096 304.647 504.689 283.24 478.297 283.24C451.905 283.24 430.499 304.647 430.499 331.039C430.499 357.431 451.905 378.838 478.297 378.838C504.689 378.838 526.096 357.431 526.096 331.039ZM552.781 331.039C552.781 372.093 519.352 405.523 478.297 405.523C437.243 405.523 403.813 372.093 403.813 331.039C403.813 289.985 437.243 256.555 478.297 256.555C519.352 256.555 552.781 289.985 552.781 331.039ZM599.7 393.793C599.7 428.396 571.842 456.254 537.239 456.254H414.957C380.354 456.254 352.496 428.396 352.496 393.793V271.51C352.496 236.908 380.354 209.049 414.957 209.049H537.239C571.842 209.049 599.7 236.908 599.7 271.51V393.793ZM627.852 271.804C627.852 221.659 587.091 180.898 536.946 180.898H414.957C364.812 180.898 324.051 221.659 324.051 271.804V393.793C324.051 443.938 364.812 484.699 414.957 484.699H536.946C587.091 484.699 627.852 443.938 627.852 393.793V271.804Z" fill="#6A3C8B"/>
<path opacity="0.92" d="M573.603 250.397C573.603 260.074 565.685 268.285 555.715 268.285C545.745 268.285 537.827 260.367 537.827 250.397C537.827 240.427 545.745 232.509 555.715 232.509C565.685 232.509 573.603 240.427 573.603 250.397ZM524.631 329.866C524.631 303.474 503.224 282.067 476.832 282.067C450.44 282.067 429.034 303.474 429.034 329.866C429.034 356.258 450.44 377.665 476.832 377.665C503.224 377.665 524.631 356.258 524.631 329.866ZM551.316 329.866C551.316 370.92 517.886 404.35 476.832 404.35C435.778 404.35 402.348 370.92 402.348 329.866C402.348 288.812 435.778 255.382 476.832 255.382C517.886 255.382 551.316 288.812 551.316 329.866ZM598.236 392.62C598.236 427.223 570.377 455.082 535.774 455.082H413.492C378.889 455.082 351.031 427.223 351.031 392.62V270.338C351.031 235.735 378.889 207.877 413.492 207.877H535.774C570.377 207.877 598.236 235.735 598.236 270.338V392.62ZM626.387 270.631C626.387 220.486 585.626 179.725 535.481 179.725H413.492C363.347 179.725 322.586 220.486 322.586 270.631V392.62C322.586 442.765 363.347 483.526 413.492 483.526H535.481C585.626 483.526 626.387 442.765 626.387 392.62V270.631Z" fill="#683A8A"/>
<path opacity="0.93" d="M572.427 249.224C572.427 258.901 564.51 267.112 554.539 267.112C544.569 267.112 536.651 259.194 536.651 249.224C536.651 239.254 544.569 231.336 554.539 231.336C564.51 231.336 572.427 239.254 572.427 249.224ZM523.455 328.693C523.455 302.301 502.049 280.894 475.657 280.894C449.265 280.894 427.858 302.301 427.858 328.693C427.858 355.085 449.265 376.492 475.657 376.492C502.049 376.492 523.455 355.085 523.455 328.693ZM550.141 328.693C550.141 369.747 516.711 403.177 475.657 403.177C434.602 403.177 401.173 369.747 401.173 328.693C401.173 287.639 434.602 254.209 475.657 254.209C516.711 254.209 550.141 287.639 550.141 328.693ZM597.06 391.448C597.06 426.05 569.201 453.909 534.599 453.909H412.316C377.713 453.909 349.855 426.05 349.855 391.448V269.165C349.855 234.562 377.713 206.704 412.316 206.704H534.599C569.201 206.704 597.06 234.562 597.06 269.165V391.448ZM625.211 269.458C625.211 219.313 584.45 178.552 534.306 178.552H412.316C362.171 178.552 321.41 219.313 321.41 269.458V391.448C321.41 441.592 362.171 482.353 412.316 482.353H534.306C584.45 482.353 625.211 441.592 625.211 391.448V269.458Z" fill="#663788"/>
<path opacity="0.94" d="M571.259 247.758C571.259 257.435 563.342 265.646 553.371 265.646C543.401 265.646 535.483 257.728 535.483 247.758C535.483 237.788 543.401 229.87 553.371 229.87C563.342 229.87 571.259 237.788 571.259 247.758ZM522.287 327.227C522.287 300.835 500.881 279.428 474.489 279.428C448.097 279.428 426.69 300.835 426.69 327.227C426.69 353.619 448.097 375.026 474.489 375.026C500.881 375.026 522.287 353.619 522.287 327.227ZM548.973 327.227C548.973 368.281 515.543 401.711 474.489 401.711C433.435 401.711 400.005 368.281 400.005 327.227C400.005 286.173 433.435 252.743 474.489 252.743C515.543 252.743 548.973 286.173 548.973 327.227ZM595.892 389.981C595.892 424.584 568.033 452.442 533.431 452.442H411.148C376.545 452.442 348.687 424.584 348.687 389.981V267.698C348.687 233.096 376.545 205.237 411.148 205.237H533.431C568.033 205.237 595.892 233.096 595.892 267.698V389.981ZM624.043 267.992C624.043 217.847 583.282 177.086 533.138 177.086H411.148C361.003 177.086 320.242 217.847 320.242 267.992V389.981C320.242 440.126 361.003 480.887 411.148 480.887H533.138C583.282 480.887 624.043 440.126 624.043 389.981V267.992Z" fill="#643587"/>
<path opacity="0.95" d="M569.791 246.585C569.791 256.262 561.873 264.473 551.903 264.473C541.932 264.473 534.015 256.555 534.015 246.585C534.015 236.615 541.932 228.697 551.903 228.697C561.873 228.697 569.791 236.615 569.791 246.585ZM520.819 326.054C520.819 299.662 499.412 278.255 473.02 278.255C446.628 278.255 425.221 299.662 425.221 326.054C425.221 352.446 446.628 373.853 473.02 373.853C499.412 373.853 520.819 352.446 520.819 326.054ZM547.504 326.054C547.504 367.108 514.074 400.538 473.02 400.538C431.966 400.538 398.536 367.108 398.536 326.054C398.536 285 431.966 251.57 473.02 251.57C514.074 251.57 547.504 285 547.504 326.054ZM594.423 388.808C594.423 423.411 566.565 451.269 531.962 451.269H409.679C375.077 451.269 347.218 423.411 347.218 388.808V266.526C347.218 231.923 375.077 204.065 409.679 204.065H531.962C566.565 204.065 594.423 231.923 594.423 266.526V388.808ZM622.574 266.819C622.574 216.674 581.814 175.913 531.669 175.913H409.679C359.535 175.913 318.773 216.674 318.773 266.819V388.808C318.773 438.953 359.535 479.714 409.679 479.714H531.669C581.814 479.714 622.574 438.953 622.574 388.808V266.819Z" fill="#623285"/>
<path opacity="0.96" d="M568.619 245.412C568.619 255.089 560.701 263.3 550.731 263.3C540.76 263.3 532.843 255.382 532.843 245.412C532.843 235.442 540.76 227.524 550.731 227.524C560.701 227.524 568.619 235.442 568.619 245.412ZM519.647 324.881C519.647 298.489 498.24 277.083 471.848 277.083C445.456 277.083 424.049 298.489 424.049 324.881C424.049 351.273 445.456 372.68 471.848 372.68C498.24 372.68 519.647 351.273 519.647 324.881ZM546.332 324.881C546.332 365.935 512.902 399.365 471.848 399.365C430.794 399.365 397.364 365.935 397.364 324.881C397.364 283.827 430.794 250.397 471.848 250.397C512.902 250.397 546.332 283.827 546.332 324.881ZM593.251 387.636C593.251 422.238 565.393 450.097 530.79 450.097H408.507C373.904 450.097 346.046 422.238 346.046 387.636V265.353C346.046 230.75 373.904 202.892 408.507 202.892H530.79C565.393 202.892 593.251 230.75 593.251 265.353V387.636ZM621.402 265.646C621.402 215.501 580.641 174.74 530.497 174.74H408.507C358.362 174.74 317.602 215.501 317.602 265.646V387.636C317.602 437.78 358.362 478.541 408.507 478.541H530.497C580.641 478.541 621.402 437.78 621.402 387.636V265.646Z" fill="#603084"/>
<path opacity="0.98" d="M567.443 243.946C567.443 253.623 559.525 261.834 549.555 261.834C539.585 261.834 531.667 253.917 531.667 243.946C531.667 233.976 539.585 226.058 549.555 226.058C559.525 226.058 567.443 233.976 567.443 243.946ZM518.471 323.415C518.471 297.023 497.064 275.617 470.672 275.617C444.28 275.617 422.873 297.023 422.873 323.415C422.873 349.807 444.28 371.214 470.672 371.214C497.064 371.214 518.471 349.807 518.471 323.415ZM545.156 323.415C545.156 364.47 511.726 397.9 470.672 397.9C429.618 397.9 396.188 364.47 396.188 323.415C396.188 282.361 429.618 248.931 470.672 248.931C511.726 248.931 545.156 282.361 545.156 323.415ZM592.075 386.17C592.075 420.773 564.217 448.631 529.614 448.631H407.331C372.729 448.631 344.87 420.773 344.87 386.17V263.887C344.87 229.284 372.729 201.426 407.331 201.426H529.614C564.217 201.426 592.075 229.284 592.075 263.887V386.17ZM620.227 264.18C620.227 214.035 579.466 173.274 529.321 173.274H407.331C357.187 173.274 316.426 214.035 316.426 264.18V386.17C316.426 436.314 357.187 477.075 407.331 477.075H529.321C579.466 477.075 620.227 436.314 620.227 386.17V264.18Z" fill="#5E2D82"/>
<path opacity="0.99" d="M565.982 242.772C565.982 252.45 558.064 260.66 548.094 260.66C538.124 260.66 530.206 252.743 530.206 242.772C530.206 232.802 538.124 224.885 548.094 224.885C558.064 224.885 565.982 232.802 565.982 242.772ZM517.01 322.242C517.01 295.85 495.603 274.443 469.211 274.443C442.819 274.443 421.412 295.85 421.412 322.242C421.412 348.634 442.819 370.04 469.211 370.04C495.603 370.04 517.01 348.634 517.01 322.242ZM543.695 322.242C543.695 363.296 510.266 396.726 469.211 396.726C428.157 396.726 394.727 363.296 394.727 322.242C394.727 281.187 428.157 247.758 469.211 247.758C510.266 247.758 543.695 281.187 543.695 322.242ZM590.614 384.996C590.614 419.599 562.756 447.457 528.153 447.457H405.871C371.268 447.457 343.41 419.599 343.41 384.996V262.713C343.41 228.11 371.268 200.252 405.871 200.252H528.153C562.756 200.252 590.614 228.11 590.614 262.713V384.996ZM618.766 263.006C618.766 212.861 578.005 172.101 527.86 172.101H405.871C355.726 172.101 314.965 212.861 314.965 263.006V384.996C314.965 435.141 355.726 475.902 405.871 475.902H527.86C578.005 475.902 618.766 435.141 618.766 384.996V263.006Z" fill="#5C2B81"/>
<path d="M564.806 241.6C564.806 251.277 556.889 259.488 546.918 259.488C536.948 259.488 529.03 251.57 529.03 241.6C529.03 231.629 536.948 223.712 546.918 223.712C556.889 223.712 564.806 231.629 564.806 241.6ZM515.834 321.069C515.834 294.677 494.428 273.27 468.036 273.27C441.644 273.27 420.237 294.677 420.237 321.069C420.237 347.461 441.644 368.868 468.036 368.868C494.428 368.868 515.834 347.461 515.834 321.069ZM542.52 321.069C542.52 362.123 509.09 395.553 468.036 395.553C426.981 395.553 393.552 362.123 393.552 321.069C393.552 280.015 426.981 246.585 468.036 246.585C509.09 246.585 542.52 280.015 542.52 321.069ZM589.439 383.823C589.439 418.426 561.581 446.284 526.978 446.284H404.695C370.092 446.284 342.234 418.426 342.234 383.823V261.54C342.234 226.937 370.092 199.079 404.695 199.079H526.978C561.581 199.079 589.439 226.937 589.439 261.54V383.823ZM617.59 261.834C617.59 211.689 576.829 170.928 526.684 170.928H404.695C354.55 170.928 313.789 211.689 313.789 261.834V383.823C313.789 433.968 354.55 474.729 404.695 474.729H526.684C576.829 474.729 617.59 433.968 617.59 383.823V261.834Z" fill="#5A287F"/>
</g>
<path d="M564.806 241.6C564.806 251.277 556.889 259.488 546.919 259.488C536.948 259.488 529.031 251.57 529.031 241.6C529.031 231.63 536.948 223.712 546.919 223.712C556.889 223.712 564.806 231.63 564.806 241.6ZM542.813 321.069C542.813 362.124 509.383 395.553 468.329 395.553C427.275 395.553 393.845 362.124 393.845 321.069C393.845 280.015 427.275 246.585 468.329 246.585C509.383 246.585 542.813 280.015 542.813 321.069ZM516.128 321.069C516.128 294.677 494.721 273.271 468.329 273.271C441.937 273.271 420.53 294.677 420.53 321.069C420.53 347.461 441.937 368.868 468.329 368.868C494.721 368.868 516.128 347.461 516.128 321.069ZM619.35 261.248C619.35 211.103 578.589 170.342 528.444 170.342H404.402C354.257 170.342 313.496 211.103 313.496 261.248V385.29C313.496 435.435 354.257 476.196 404.402 476.196H528.444C578.589 476.196 619.35 435.435 619.35 385.29V261.248ZM589.439 384.117C589.439 418.72 561.581 446.578 526.978 446.578H405.575C370.972 446.578 343.114 418.72 343.114 384.117V262.714C343.114 228.111 370.972 200.253 405.575 200.253H526.978C561.581 200.253 589.439 228.111 589.439 262.714V384.117Z" fill="white"/>
<defs>
<linearGradient id="paint0_linear_203_88" x1="173.911" y1="60.375" x2="770.956" y2="657.42" gradientUnits="userSpaceOnUse">
<stop stop-color="#FCE9A7"/>
<stop offset="0.21" stop-color="#FCBB45"/>
<stop offset="0.38" stop-color="#F75274"/>
<stop offset="0.52" stop-color="#D53692"/>
<stop offset="0.74" stop-color="#6C2C9C"/>
<stop offset="1" stop-color="#483EBA"/>
</linearGradient>
<linearGradient id="paint1_linear_203_88" x1="717.877" y1="590.268" x2="172.442" y2="44.8333" gradientUnits="userSpaceOnUse">
<stop stop-color="#FBE18A"/>
<stop offset="0.21" stop-color="#FCBB45"/>
<stop offset="0.38" stop-color="#F75274"/>
<stop offset="0.52" stop-color="#D53692"/>
<stop offset="0.74" stop-color="#8F39CE"/>
<stop offset="1" stop-color="#5B4FE9"/>
</linearGradient>
</defs>
</svg>
