<svg width="890" height="750" viewBox="0 0 890 750" fill="none" xmlns="http://www.w3.org/2000/svg">
<path d="M76.2605 569.738C31.9806 552.437 4.70893 504.638 0.89675 457.132C-2.91542 409.627 12.9199 362.707 34.0335 319.894C89.7499 206.995 183.881 113.45 297.073 58.32C410.266 3.1901 541.933 -12.9383 665.095 12.8672C716.12 23.7172 766.557 41.8983 805.852 75.9146C868.02 129.872 893.826 217.258 888.547 299.367C883.269 381.475 850.719 459.478 812.304 532.496C783.272 587.919 749.549 642.169 702.924 683.81C656.298 725.451 594.716 753.602 532.255 748.91C402.641 738.94 314.082 597.01 185.054 581.468C148.692 577.069 110.277 582.934 75.9674 569.738H76.2605Z" fill="url(#paint0_linear_203_178)"/>
<path d="M174.5 492.028C141.949 479.419 122.009 444.23 119.076 409.334C116.144 374.438 127.874 340.128 143.416 308.751C184.177 226.056 253.089 157.437 336.077 116.969C419.065 76.5013 515.543 64.7715 605.862 83.8324C643.104 91.75 680.346 105.239 709.084 130.165C754.83 169.753 773.598 233.68 769.785 294.089C765.973 354.204 741.927 411.386 713.776 464.757C692.369 505.224 667.736 545.106 633.72 575.603C599.411 606.1 554.544 626.921 508.798 623.402C413.787 616.071 348.98 512.262 254.262 500.532C227.577 497.307 199.425 501.705 174.206 491.735L174.5 492.028Z" fill="url(#paint1_linear_203_178)"/>
<g style="mix-blend-mode:multiply" opacity="0.6">
<path opacity="0.01" d="M614.956 410.212L545.164 445.401C542.232 446.868 534.314 444.815 534.314 441.589V369.451C534.314 366.225 542.525 364.173 545.458 365.932L612.904 402.881C615.836 404.64 618.182 408.746 615.25 410.212H614.956ZM710.847 372.677C710.847 338.367 682.989 310.802 648.973 310.802H490.328C456.018 310.802 428.453 338.66 428.453 372.677V446.574C428.453 480.884 456.311 508.449 490.328 508.449H648.973C683.283 508.449 710.847 480.591 710.847 446.574V372.677Z" fill="#FDFCFC"/>
<path opacity="0.03" d="M613.781 409.039L543.989 444.229C541.056 445.695 533.139 443.642 533.139 440.417V368.278C533.139 365.053 541.349 363 544.282 364.76L611.728 401.708C614.66 403.468 617.006 407.573 614.074 409.039H613.781ZM709.671 371.504C709.671 337.195 681.813 309.63 647.797 309.63H489.152C454.842 309.63 427.277 337.488 427.277 371.504V445.402C427.277 479.711 455.136 507.276 489.152 507.276H647.797C682.106 507.276 709.671 479.418 709.671 445.402V371.504Z" fill="#FBF8F8"/>
<path opacity="0.04" d="M612.902 408.16L543.11 443.349C540.177 444.815 531.966 442.763 531.966 439.537V367.399C531.966 364.173 540.177 362.12 543.11 363.88L610.556 400.829C613.488 402.588 615.834 406.694 612.902 408.16ZM708.793 370.625C708.793 336.315 680.934 308.75 646.918 308.75H488.273C453.963 308.75 426.398 336.608 426.398 370.625V444.522C426.398 478.832 454.257 506.397 488.273 506.397H646.918C681.228 506.397 708.793 478.538 708.793 444.522V370.625Z" fill="#F9F5F5"/>
<path opacity="0.05" d="M611.726 406.988L541.934 442.177C539.002 443.643 530.791 441.59 530.791 438.365V366.227C530.791 363.001 539.002 360.948 541.934 362.708L609.38 399.657C612.313 401.416 614.659 405.521 611.726 406.988ZM707.324 369.452C707.324 335.143 679.466 307.578 645.449 307.578H486.804C452.495 307.578 424.93 335.436 424.93 369.452V443.35C424.93 477.66 452.788 505.225 486.804 505.225H645.449C679.759 505.225 707.324 477.366 707.324 443.35V369.452Z" fill="#F7F2F2"/>
<path opacity="0.06" d="M610.554 405.814L540.762 441.003C537.83 442.469 529.619 440.416 529.619 437.191V365.053C529.619 361.827 537.83 359.774 540.762 361.534L608.208 398.482C611.141 400.242 613.487 404.347 610.554 405.814ZM706.152 368.278C706.152 333.969 678.294 306.404 644.278 306.404H485.632C451.323 306.404 423.758 334.262 423.758 368.278V442.176C423.758 476.486 451.616 504.05 485.632 504.05H644.278C678.587 504.05 706.152 476.192 706.152 442.176V368.278Z" fill="#F5EFEF"/>
<path opacity="0.08" d="M609.676 404.934L539.884 440.124C536.951 441.59 528.74 439.537 528.74 436.311V364.173C528.74 360.948 536.951 358.895 539.884 360.654L607.33 397.603C610.262 399.363 612.608 403.468 609.676 404.934ZM705.273 367.399C705.273 333.089 677.415 305.524 643.399 305.524H484.753C450.444 305.524 422.879 333.383 422.879 367.399V441.297C422.879 475.606 450.737 503.171 484.753 503.171H643.399C677.708 503.171 705.273 475.313 705.273 441.297V367.399Z" fill="#F3EBEB"/>
<path opacity="0.09" d="M608.504 403.762L538.712 438.951C535.779 440.417 527.568 438.365 527.568 435.139V363.001C527.568 359.775 536.072 357.723 538.712 359.482L606.158 396.431C609.09 398.19 611.436 402.296 608.504 403.762ZM704.101 366.227C704.101 331.917 676.243 304.352 642.227 304.352H483.582C449.272 304.352 421.707 332.21 421.707 366.227V440.124C421.707 474.434 449.565 501.999 483.582 501.999H642.227C676.536 501.999 704.101 474.141 704.101 440.124V366.227Z" fill="#F1E8E8"/>
<path opacity="0.1" d="M607.621 402.881L537.536 438.071C534.603 439.537 526.392 437.484 526.392 434.258V362.12C526.392 358.895 534.896 356.842 537.536 358.601L604.982 395.55C607.914 397.31 610.26 401.415 607.328 402.881H607.621ZM703.218 365.053C703.218 330.743 675.36 303.178 641.344 303.178H482.699C448.389 303.178 420.824 331.036 420.824 365.053V438.95C420.824 473.26 448.682 500.825 482.699 500.825H641.344C675.653 500.825 703.218 472.967 703.218 438.95V365.053Z" fill="#EFE5E5"/>
<path opacity="0.12" d="M606.449 401.708L536.364 436.898C533.431 438.364 525.22 436.311 525.22 433.085V360.947C525.22 357.722 533.724 355.669 536.364 357.429L603.81 394.377C606.742 396.137 609.088 400.242 606.156 401.708H606.449ZM702.047 363.88C702.047 329.57 674.188 302.005 640.172 302.005H481.527C447.217 302.005 419.652 329.863 419.652 363.88V437.777C419.652 472.087 447.511 499.652 481.527 499.652H640.172C674.482 499.652 702.047 471.794 702.047 437.777V363.88Z" fill="#EDE2E2"/>
<path opacity="0.13" d="M605.566 400.83L535.481 436.019C532.548 437.485 524.337 435.432 524.337 432.207V360.069C524.337 356.843 532.842 354.79 535.481 356.55L602.927 393.498C605.859 395.258 608.205 399.363 605.273 400.83H605.566ZM701.164 363.001C701.164 328.691 673.306 301.126 639.289 301.126H480.644C446.335 301.126 418.77 328.985 418.77 363.001V436.899C418.77 471.208 446.628 498.773 480.644 498.773H639.289C673.599 498.773 701.164 470.915 701.164 436.899V363.001Z" fill="#EBDEDE"/>
<path opacity="0.14" d="M604.398 399.655L534.313 434.844C531.381 436.31 523.17 434.258 523.17 431.032V358.894C523.17 355.668 531.674 353.616 534.313 355.375L601.759 392.324C604.692 394.083 607.037 398.189 604.105 399.655H604.398ZM699.703 361.826C699.703 327.517 671.844 299.952 637.828 299.952H479.183C444.874 299.952 417.309 327.81 417.309 361.826V435.724C417.309 470.033 445.167 497.598 479.183 497.598H637.828C672.138 497.598 699.703 469.74 699.703 435.724V361.826Z" fill="#E9DBDB"/>
<path opacity="0.15" d="M603.516 398.483L533.43 433.672C530.498 435.138 522.287 433.086 522.287 429.86V357.722C522.287 354.496 530.791 352.443 533.43 354.203L600.876 391.152C603.809 392.911 606.155 397.017 603.222 398.483H603.516ZM698.82 360.654C698.82 326.345 670.962 298.78 636.946 298.78H478.3C443.991 298.78 416.426 326.638 416.426 360.654V434.552C416.426 468.861 444.284 496.426 478.3 496.426H636.946C671.255 496.426 698.82 468.568 698.82 434.552V360.654Z" fill="#E7D8D8"/>
<path opacity="0.17" d="M602.344 397.603L532.258 432.793C529.326 434.259 521.115 432.206 521.115 428.98V356.842C521.115 353.617 529.619 351.564 532.552 353.323L599.998 390.272C602.93 392.032 605.276 396.137 602.344 397.603ZM697.648 359.775C697.648 325.465 669.79 297.9 635.774 297.9H477.128C442.819 297.9 415.254 325.758 415.254 359.775V433.672C415.254 467.982 443.112 495.547 477.128 495.547H635.774C670.083 495.547 697.648 467.689 697.648 433.672V359.775Z" fill="#E4D4D4"/>
<path opacity="0.18" d="M601.168 396.429L531.083 431.619C528.15 433.085 519.939 431.032 519.939 427.806V355.668C519.939 352.443 528.443 350.39 531.376 352.149L598.822 389.098C601.754 390.858 604.1 394.963 601.168 396.429ZM696.472 358.601C696.472 324.291 668.614 296.726 634.598 296.726H475.953C441.643 296.726 414.078 324.585 414.078 358.601V432.498C414.078 466.808 441.936 494.373 475.953 494.373H634.598C668.907 494.373 696.472 466.515 696.472 432.498V358.601Z" fill="#E2D1D1"/>
<path opacity="0.19" d="M600.293 395.55L530.208 430.74C527.275 432.206 519.064 430.153 519.064 426.927V354.789C519.064 351.564 527.568 349.511 530.501 351.27L597.947 388.219C600.879 389.979 603.225 394.084 600.293 395.55ZM695.597 357.429C695.597 323.119 667.739 295.554 633.723 295.554H475.077C440.768 295.554 413.203 323.412 413.203 357.429V431.326C413.203 465.636 441.061 493.201 475.077 493.201H633.723C668.032 493.201 695.597 465.342 695.597 431.326V357.429Z" fill="#E0CECE"/>
<path opacity="0.21" d="M599.117 394.378L529.032 429.567C526.099 431.033 517.889 428.981 517.889 425.755V353.617C517.889 350.391 526.393 348.339 529.325 350.098L596.771 387.047C599.704 388.806 602.05 392.912 599.117 394.378ZM694.422 356.256C694.422 321.947 666.563 294.382 632.547 294.382H473.902C439.592 294.382 412.027 322.24 412.027 356.256V430.154C412.027 464.463 439.886 492.028 473.902 492.028H632.547C666.857 492.028 694.422 464.17 694.422 430.154V356.256Z" fill="#DECBCB"/>
<path opacity="0.22" d="M598.238 393.498L528.153 428.687C525.22 430.154 516.716 428.101 516.716 424.875V352.737C516.716 349.511 525.22 347.459 528.153 349.218L595.599 386.167C598.531 387.926 600.877 392.032 597.945 393.498H598.238ZM693.542 355.376C693.542 321.067 665.684 293.502 631.668 293.502H473.023C438.713 293.502 411.148 321.36 411.148 355.376V429.274C411.148 463.583 439.006 491.148 473.023 491.148H631.668C665.977 491.148 693.542 463.29 693.542 429.274V355.376Z" fill="#DCC7C7"/>
<path opacity="0.23" d="M597.063 392.324L526.977 427.514C524.045 428.98 515.541 426.927 515.541 423.702V351.563C515.541 348.338 524.045 346.285 526.977 348.045L594.424 384.993C597.356 386.753 599.702 390.858 596.769 392.324H597.063ZM692.074 354.203C692.074 319.893 664.216 292.328 630.2 292.328H471.554C437.245 292.328 409.68 320.186 409.68 354.203V428.1C409.68 462.41 437.538 489.975 471.554 489.975H630.2C664.509 489.975 692.074 462.117 692.074 428.1V354.203Z" fill="#DAC4C4"/>
<path opacity="0.24" d="M596.188 391.445L526.102 426.634C523.17 428.101 514.666 426.048 514.666 422.822V350.684C514.666 347.458 523.17 345.406 526.102 347.165L593.842 384.114C596.774 385.873 599.12 389.979 596.481 391.445H596.188ZM691.199 353.323C691.199 319.014 663.341 291.449 629.325 291.449H470.679C436.37 291.449 408.805 319.307 408.805 353.323V427.221C408.805 461.53 436.663 489.095 470.679 489.095H629.325C663.634 489.095 691.199 461.237 691.199 427.221V353.323Z" fill="#D8C1C1"/>
<path opacity="0.26" d="M595.012 390.273L524.927 425.462C521.994 426.928 513.49 424.875 513.49 421.65V349.512C513.49 346.286 521.994 344.233 524.927 345.993L592.666 382.942C595.598 384.701 597.944 388.806 595.305 390.273H595.012ZM690.023 352.151C690.023 317.841 662.165 290.276 628.148 290.276H469.503C435.194 290.276 407.629 318.135 407.629 352.151V426.048C407.629 460.358 435.487 487.923 469.503 487.923H628.148C662.458 487.923 690.023 460.065 690.023 426.048V352.151Z" fill="#D6BEBE"/>
<path opacity="0.27" d="M593.84 389.099L523.755 424.288C520.822 425.754 512.318 423.702 512.318 420.476V348.338C512.318 345.112 521.116 343.06 523.755 344.819L591.494 381.768C594.427 383.527 596.773 387.633 594.133 389.099H593.84ZM688.851 350.977C688.851 316.668 660.993 289.103 626.977 289.103H468.332C434.022 289.103 406.457 316.961 406.457 350.977V424.875C406.457 459.184 434.315 486.749 468.332 486.749H626.977C661.286 486.749 688.851 458.891 688.851 424.875V350.977Z" fill="#D4BABA"/>
<path opacity="0.28" d="M592.961 388.219L522.583 423.409C519.65 424.875 511.146 422.822 511.146 419.596V347.458C511.146 344.233 519.943 342.18 522.583 343.939L590.322 380.888C593.254 382.648 595.6 386.753 592.961 388.219ZM687.972 349.804C687.972 315.495 660.114 287.93 626.098 287.93H467.453C433.143 287.93 405.578 315.788 405.578 349.804V423.702C405.578 458.011 433.436 485.576 467.453 485.576H626.098C660.408 485.576 687.972 457.718 687.972 423.702V349.804Z" fill="#D2B7B7"/>
<path opacity="0.29" d="M591.785 387.046L521.407 422.236C518.474 423.702 509.97 421.649 509.97 418.423V346.285C509.97 343.06 518.768 341.007 521.407 342.766L589.146 379.715C592.079 381.475 594.718 385.58 591.785 387.046ZM686.796 348.631C686.796 314.322 658.938 286.757 624.922 286.757H466.277C431.967 286.757 404.402 314.615 404.402 348.631V422.529C404.402 456.838 432.261 484.403 466.277 484.403H624.922C659.231 484.403 686.796 456.545 686.796 422.529V348.631Z" fill="#D0B4B4"/>
<path opacity="0.31" d="M590.906 386.166L520.528 421.355C517.595 422.822 509.091 420.769 509.091 417.543V345.405C509.091 342.179 517.889 340.127 520.528 341.886L588.267 378.835C591.2 380.594 593.839 384.7 590.906 386.166ZM685.918 347.751C685.918 313.441 658.059 285.876 624.043 285.876H465.398C431.088 285.876 403.523 313.735 403.523 347.751V421.649C403.523 455.958 431.382 483.523 465.398 483.523H624.043C658.353 483.523 685.918 455.665 685.918 421.649V347.751Z" fill="#CEB1B1"/>
<path opacity="0.32" d="M589.735 384.993L519.356 420.182C516.424 421.649 507.92 419.596 507.92 416.37V344.232C507.92 341.006 516.717 338.954 519.356 340.713L587.096 377.662C590.028 379.421 592.667 383.527 589.735 384.993ZM684.453 346.578C684.453 312.268 656.594 284.704 622.578 284.704H463.933C429.624 284.704 402.059 312.562 402.059 346.578V420.476C402.059 454.785 429.917 482.35 463.933 482.35H622.578C656.888 482.35 684.453 454.492 684.453 420.476V346.578Z" fill="#CCADAD"/>
<path opacity="0.33" d="M588.856 384.114L518.477 419.304C515.545 420.77 507.041 418.717 507.041 415.491V343.353C507.041 340.128 515.838 338.075 518.477 339.834L586.217 376.783C589.149 378.543 591.788 382.648 588.856 384.114ZM683.574 345.699C683.574 311.39 655.716 283.825 621.699 283.825H463.054C428.745 283.825 401.18 311.683 401.18 345.699V419.597C401.18 453.906 429.038 481.471 463.054 481.471H621.699C656.009 481.471 683.574 453.613 683.574 419.597V345.699Z" fill="#CAAAAA"/>
<path opacity="0.35" d="M587.68 382.941L517.302 418.131C514.369 419.597 505.865 417.544 505.865 414.318V342.18C505.865 338.955 514.662 336.902 517.595 338.661L585.334 375.61C588.267 377.37 590.906 381.475 587.974 382.941H587.68ZM682.398 344.526C682.398 310.217 654.54 282.652 620.524 282.652H461.878C427.569 282.652 400.004 310.51 400.004 344.526V418.424C400.004 452.733 427.862 480.298 461.878 480.298H620.524C654.833 480.298 682.398 452.44 682.398 418.424V344.526Z" fill="#C8A7A7"/>
<path opacity="0.36" d="M586.801 382.061L516.423 417.25C513.49 418.716 504.986 416.664 504.986 413.438V341.3C504.986 338.074 513.784 336.021 516.716 337.781L584.455 374.73C587.388 376.489 590.027 380.595 587.095 382.061H586.801ZM681.519 343.353C681.519 309.043 653.661 281.478 619.645 281.478H461C426.69 281.478 399.125 309.336 399.125 343.353V417.25C399.125 451.56 426.983 479.125 461 479.125H619.645C653.954 479.125 681.519 451.266 681.519 417.25V343.353Z" fill="#C6A3A3"/>
<path opacity="0.37" d="M585.629 380.888L515.251 416.077C512.318 417.544 503.814 415.491 503.814 412.265V340.127C503.814 336.901 512.612 334.849 515.544 336.608L583.283 373.557C586.216 375.316 588.855 379.422 585.923 380.888H585.629ZM680.347 342.18C680.347 307.87 652.489 280.305 618.473 280.305H459.828C425.518 280.305 397.953 308.163 397.953 342.18V416.077C397.953 450.387 425.811 477.952 459.828 477.952H618.473C652.782 477.952 680.347 450.094 680.347 416.077V342.18Z" fill="#C4A0A0"/>
<path opacity="0.38" d="M584.458 379.716L514.079 414.905C511.147 416.371 502.642 414.318 502.642 411.093V338.955C502.642 335.729 511.44 333.676 514.372 335.436L582.112 372.384C585.044 374.144 587.683 378.249 584.751 379.716H584.458ZM679.176 341.007C679.176 306.698 651.317 279.133 617.301 279.133H458.656C424.346 279.133 396.781 306.991 396.781 341.007V414.905C396.781 449.215 424.639 476.779 458.656 476.779H617.301C651.611 476.779 679.176 448.921 679.176 414.905V341.007Z" fill="#C29D9D"/>
<path opacity="0.4" d="M583.575 378.835L513.196 414.025C510.264 415.491 501.466 413.438 501.466 410.212V338.074C501.466 334.849 510.264 332.796 513.196 334.555L580.935 371.504C583.868 373.264 586.507 377.369 583.575 378.835ZM678.293 340.127C678.293 305.817 650.435 278.252 616.418 278.252H457.773C423.463 278.252 395.898 306.111 395.898 340.127V414.025C395.898 448.334 423.757 475.899 457.773 475.899H616.418C650.728 475.899 678.293 448.041 678.293 414.025V340.127Z" fill="#C09A9A"/>
<path opacity="0.41" d="M582.403 377.663L512.025 412.852C509.092 414.318 500.295 412.265 500.295 409.04V336.902C500.295 333.676 509.092 331.623 512.025 333.383L579.764 370.332C582.697 372.091 585.336 376.196 582.403 377.663ZM676.828 338.954C676.828 304.645 648.97 277.08 614.953 277.08H456.308C421.999 277.08 394.434 304.938 394.434 338.954V412.852C394.434 447.162 422.292 474.727 456.308 474.727H614.953C649.263 474.727 676.828 446.868 676.828 412.852V338.954Z" fill="#BE9696"/>
<path opacity="0.42" d="M581.52 376.783L511.142 411.973C508.209 413.439 499.412 411.386 499.412 408.16V336.022C499.412 332.797 508.209 330.744 511.142 332.503L578.881 369.452C581.814 371.212 584.453 375.317 581.52 376.783ZM675.945 338.075C675.945 303.765 648.087 276.2 614.071 276.2H455.425C421.116 276.2 393.551 304.059 393.551 338.075V411.973C393.551 446.282 421.409 473.847 455.425 473.847H614.071C648.38 473.847 675.945 445.989 675.945 411.973V338.075Z" fill="#BC9393"/>
<path opacity="0.44" d="M580.352 375.609L509.974 410.799C507.041 412.265 498.244 410.212 498.244 406.987V334.848C498.244 331.623 507.335 329.57 509.974 331.33L577.713 368.278C580.646 370.038 583.285 374.143 580.352 375.609ZM674.777 336.901C674.777 302.592 646.919 275.027 612.903 275.027H454.257C419.948 275.027 392.383 302.885 392.383 336.901V410.799C392.383 445.108 420.241 472.673 454.257 472.673H612.903C647.212 472.673 674.777 444.815 674.777 410.799V336.901Z" fill="#BA9090"/>
<path opacity="0.45" d="M579.47 374.73L509.091 409.919C506.159 411.385 497.361 409.333 497.361 406.107V333.969C497.361 330.743 506.452 328.69 509.091 330.45L576.83 367.399C579.763 369.158 582.402 373.264 579.47 374.73ZM673.894 335.728C673.894 301.419 646.036 273.854 612.02 273.854H453.375C419.065 273.854 391.5 301.712 391.5 335.728V409.626C391.5 443.935 419.358 471.5 453.375 471.5H612.02C646.329 471.5 673.894 443.642 673.894 409.626V335.728Z" fill="#B88D8D"/>
<path opacity="0.46" d="M578.298 373.557L507.626 408.747C504.693 410.213 495.896 408.16 495.896 404.934V332.796C495.896 329.571 504.987 327.518 507.626 329.278L575.365 366.226C578.298 367.986 580.937 372.091 578.005 373.557H578.298ZM672.722 334.556C672.722 300.246 644.864 272.681 610.848 272.681H452.203C417.893 272.681 390.328 300.54 390.328 334.556V408.453C390.328 442.763 418.186 470.328 452.203 470.328H610.848C645.158 470.328 672.722 442.47 672.722 408.453V334.556Z" fill="#B68989"/>
<path opacity="0.47" d="M577.415 372.385L506.743 407.574C503.811 409.04 495.013 406.987 495.013 403.762V331.624C495.013 328.398 504.104 326.345 506.743 328.105L574.483 365.053C577.415 366.813 580.054 370.918 577.122 372.385H577.415ZM671.84 333.383C671.84 299.074 643.981 271.509 609.965 271.509H451.32C417.01 271.509 389.445 299.367 389.445 333.383V407.281C389.445 441.59 417.304 469.155 451.32 469.155H609.965C644.275 469.155 671.84 441.297 671.84 407.281V333.383Z" fill="#B48686"/>
<path opacity="0.49" d="M576.243 371.504L505.571 406.694C502.639 408.16 493.842 406.107 493.842 402.882V330.743C493.842 327.518 502.932 325.465 505.571 327.224L573.311 364.173C576.243 365.933 578.882 370.038 575.95 371.504H576.243ZM670.668 332.503C670.668 298.193 642.81 270.628 608.793 270.628H450.148C415.838 270.628 388.273 298.487 388.273 332.503V406.4C388.273 440.71 416.132 468.275 450.148 468.275H608.793C643.103 468.275 670.668 440.417 670.668 406.4V332.503Z" fill="#B28383"/>
<path opacity="0.5" d="M575.071 370.331L504.399 405.521C501.467 406.987 492.67 404.934 492.67 401.708V329.57C492.67 326.345 501.76 324.292 504.399 326.051L572.139 363C575.071 364.76 577.71 368.865 574.778 370.331H575.071ZM669.203 331.33C669.203 297.02 641.345 269.455 607.328 269.455H448.683C414.374 269.455 386.809 297.314 386.809 331.33V405.227C386.809 439.537 414.667 467.102 448.683 467.102H607.328C641.638 467.102 669.203 439.244 669.203 405.227V331.33Z" fill="#AF7F7F"/>
<path opacity="0.51" d="M574.192 369.451L503.52 404.64C500.588 406.107 491.791 404.054 491.791 400.828V328.69C491.791 325.464 500.881 323.412 503.52 325.171L571.26 362.12C574.192 363.879 576.832 367.985 573.899 369.451H574.192ZM668.324 330.45C668.324 296.14 640.466 268.575 606.449 268.575H447.804C413.495 268.575 385.93 296.433 385.93 330.45V404.347C385.93 438.657 413.788 466.222 447.804 466.222H606.449C640.759 466.222 668.324 438.363 668.324 404.347V330.45Z" fill="#AD7C7C"/>
<path opacity="0.53" d="M573.017 368.279L502.345 403.468C499.412 404.934 490.615 402.881 490.615 399.656V327.518C490.615 324.292 499.706 322.239 502.638 323.999L570.377 360.947C573.31 362.707 575.949 366.812 573.017 368.279ZM667.148 329.277C667.148 294.968 639.29 267.403 605.273 267.403H446.628C412.319 267.403 384.754 295.261 384.754 329.277V403.175C384.754 437.484 412.612 465.049 446.628 465.049H605.273C639.583 465.049 667.148 437.191 667.148 403.175V329.277Z" fill="#AB7979"/>
<path opacity="0.54" d="M572.138 367.399L501.466 402.589C498.533 404.055 489.736 402.002 489.736 398.776V326.638C489.736 323.413 498.827 321.36 501.759 323.119L569.498 360.068C572.431 361.828 575.07 365.933 572.138 367.399ZM666.269 328.105C666.269 293.795 638.411 266.23 604.395 266.23H445.749C411.44 266.23 383.875 294.088 383.875 328.105V402.002C383.875 436.312 411.733 463.877 445.749 463.877H604.395C638.704 463.877 666.269 436.018 666.269 402.002V328.105Z" fill="#A97676"/>
<path opacity="0.55" d="M570.97 366.226L500.298 401.416C497.365 402.882 488.568 400.829 488.568 397.604V325.465C488.568 322.24 497.659 320.187 500.591 321.947L568.33 358.895C571.263 360.655 573.902 364.76 570.97 366.226ZM665.101 326.932C665.101 292.622 637.243 265.057 603.227 265.057H444.582C410.272 265.057 382.707 292.915 382.707 326.932V400.829C382.707 435.139 410.565 462.704 444.582 462.704H603.227C637.536 462.704 665.101 434.846 665.101 400.829V326.932Z" fill="#A77272"/>
<path opacity="0.56" d="M570.087 365.346L499.415 400.535C496.483 402.001 487.685 399.949 487.685 396.723V324.585C487.685 321.359 496.776 319.306 499.708 321.066L567.448 358.015C570.38 359.774 573.019 363.88 570.087 365.346ZM664.218 326.051C664.218 291.741 636.36 264.177 602.344 264.177H443.699C409.389 264.177 381.824 292.035 381.824 326.051V399.949C381.824 434.258 409.682 461.823 443.699 461.823H602.344C636.653 461.823 664.218 433.965 664.218 399.949V326.051Z" fill="#A56F6F"/>
<path opacity="0.58" d="M568.915 364.173L498.243 399.363C495.311 400.829 486.22 398.776 486.22 395.551V323.413C486.22 320.187 495.311 318.134 498.243 319.893L565.983 356.842C568.915 358.602 571.554 362.707 568.622 364.173H568.915ZM663.046 324.879C663.046 290.569 635.188 263.004 601.172 263.004H442.527C408.217 263.004 380.652 290.862 380.652 324.879V398.776C380.652 433.086 408.511 460.651 442.527 460.651H601.172C635.481 460.651 663.046 432.793 663.046 398.776V324.879Z" fill="#A36C6C"/>
<path opacity="0.59" d="M567.74 363.001L497.068 398.19C494.135 399.656 485.045 397.604 485.045 394.378V322.24C485.045 319.014 494.135 316.962 497.068 318.721L564.807 355.67C567.74 357.429 570.379 361.535 567.74 363.001ZM661.578 323.706C661.578 289.397 633.719 261.832 599.703 261.832H441.058C406.749 261.832 379.184 289.69 379.184 323.706V397.604C379.184 431.913 407.042 459.478 441.058 459.478H599.703C634.013 459.478 661.578 431.62 661.578 397.604V323.706Z" fill="#A16969"/>
<path opacity="0.6" d="M566.861 362.12L496.189 397.309C493.256 398.776 484.166 396.723 484.166 393.497V321.359C484.166 318.133 493.256 316.081 496.189 317.84L564.221 354.789C567.154 356.548 569.793 360.654 567.154 362.12H566.861ZM660.699 322.825C660.699 288.516 632.841 260.951 598.824 260.951H440.179C405.87 260.951 378.305 288.809 378.305 322.825V396.723C378.305 431.032 406.163 458.597 440.179 458.597H598.824C633.134 458.597 660.699 430.739 660.699 396.723V322.825Z" fill="#9F6565"/>
<path opacity="0.62" d="M565.689 360.948L495.017 396.137C492.084 397.603 482.994 395.55 482.994 392.325V320.187C482.994 316.961 492.378 314.908 495.017 316.668L563.05 353.617C565.982 355.376 568.621 359.481 565.982 360.948H565.689ZM659.527 321.653C659.527 287.343 631.669 259.778 597.652 259.778H439.007C404.698 259.778 377.133 287.637 377.133 321.653V395.55C377.133 429.86 404.991 457.425 439.007 457.425H597.652C631.962 457.425 659.527 429.567 659.527 395.55V321.653Z" fill="#9D6262"/>
<path opacity="0.63" d="M564.81 360.068L494.138 395.257C491.206 396.724 482.115 394.671 482.115 391.445V319.307C482.115 316.081 491.499 314.029 494.138 315.788L562.171 352.737C565.103 354.496 567.742 358.602 565.103 360.068H564.81ZM658.648 320.48C658.648 286.17 630.79 258.605 596.773 258.605H438.128C403.819 258.605 376.254 286.464 376.254 320.48V394.378C376.254 428.687 404.112 456.252 438.128 456.252H596.773C631.083 456.252 658.648 428.394 658.648 394.378V320.48Z" fill="#9B5F5F"/>
<path opacity="0.64" d="M563.634 358.896L492.669 394.085C489.737 395.551 480.646 393.498 480.646 390.273V318.135C480.646 314.909 490.03 312.856 492.669 314.616L560.702 351.564C563.634 353.324 566.567 357.429 563.634 358.896ZM657.472 319.308C657.472 284.998 629.614 257.433 595.598 257.433H436.953C402.643 257.433 375.078 285.291 375.078 319.308V393.205C375.078 427.515 402.936 455.08 436.953 455.08H595.598C629.907 455.08 657.472 427.221 657.472 393.205V319.308Z" fill="#995C5C"/>
<path opacity="0.65" d="M562.755 358.015L491.79 393.205C488.858 394.671 479.767 392.618 479.767 389.392V317.254C479.767 314.029 489.151 311.976 491.79 313.735L559.823 350.684C562.755 352.444 565.688 356.549 562.755 358.015ZM656.593 318.427C656.593 284.118 628.735 256.553 594.719 256.553H436.074C401.764 256.553 374.199 284.411 374.199 318.427V392.325C374.199 426.634 402.057 454.199 436.074 454.199H594.719C629.028 454.199 656.593 426.341 656.593 392.325V318.427Z" fill="#975858"/>
<path opacity="0.67" d="M561.58 356.842L490.615 392.031C487.682 393.498 478.592 391.445 478.592 388.219V316.081C478.592 312.855 487.976 310.803 490.615 312.562L558.647 349.511C561.58 351.27 564.512 355.376 561.58 356.842ZM655.125 317.254C655.125 282.945 627.267 255.38 593.25 255.38H434.605C400.295 255.38 372.73 283.238 372.73 317.254V391.152C372.73 425.461 400.589 453.026 434.605 453.026H593.25C627.56 453.026 655.125 425.168 655.125 391.152V317.254Z" fill="#955555"/>
<path opacity="0.68" d="M560.705 355.67L489.74 390.859C486.807 392.326 477.717 390.273 477.717 387.047V314.909C477.717 311.683 487.1 309.631 489.74 311.39L557.772 348.339C560.705 350.098 563.637 354.204 560.705 355.67ZM654.25 316.082C654.25 281.772 626.391 254.208 592.375 254.208H433.73C399.42 254.208 371.855 282.066 371.855 316.082V389.98C371.855 424.289 399.714 451.854 433.73 451.854H592.375C626.685 451.854 654.25 423.996 654.25 389.98V316.082Z" fill="#935252"/>
<path opacity="0.69" d="M559.529 354.789L488.564 389.978C485.632 391.445 476.541 389.392 476.541 386.166V314.028C476.541 310.803 485.925 308.75 488.564 310.509L556.597 347.458C559.529 349.217 562.462 353.323 559.529 354.789ZM653.074 315.201C653.074 280.892 625.216 253.327 591.2 253.327H432.554C398.245 253.327 370.68 281.185 370.68 315.201V389.099C370.68 423.408 398.538 450.973 432.554 450.973H591.2C625.509 450.973 653.074 423.115 653.074 389.099V315.201Z" fill="#914E4E"/>
<path opacity="0.71" d="M558.357 353.616L487.392 388.806C484.46 390.272 475.369 388.219 475.369 384.993V312.855C475.369 309.63 484.753 307.577 487.685 309.336L555.718 346.285C558.65 348.045 561.583 352.15 558.65 353.616H558.357ZM651.902 314.028C651.902 279.719 624.044 252.154 590.028 252.154H431.382C397.073 252.154 369.508 280.012 369.508 314.028V387.926C369.508 422.235 397.366 449.8 431.382 449.8H590.028C624.337 449.8 651.902 421.942 651.902 387.926V314.028Z" fill="#8F4B4B"/>
<path opacity="0.72" d="M557.474 352.737L486.509 387.927C483.577 389.393 474.486 387.34 474.486 384.115V311.977C474.486 308.751 483.87 306.698 486.802 308.458L554.835 345.406C557.767 347.166 560.7 351.271 557.768 352.737H557.474ZM651.019 312.856C651.019 278.547 623.161 250.982 589.145 250.982H430.5C396.19 250.982 368.625 278.84 368.625 312.856V386.754C368.625 421.063 396.483 448.628 430.5 448.628H589.145C623.454 448.628 651.019 420.77 651.019 386.754V312.856Z" fill="#8D4848"/>
<path opacity="0.73" d="M556.303 351.563L485.337 386.753C482.405 388.219 473.314 386.166 473.314 382.941V310.802C473.314 307.577 482.698 305.524 485.631 307.284L553.663 344.232C556.596 345.992 559.528 350.097 556.596 351.563H556.303ZM649.847 311.682C649.847 277.373 621.989 249.808 587.973 249.808H429.328C395.018 249.808 367.453 277.666 367.453 311.682V385.58C367.453 419.889 395.311 447.454 429.328 447.454H587.973C622.283 447.454 649.847 419.596 649.847 385.58V311.682Z" fill="#8B4545"/>
<path opacity="0.74" d="M555.424 350.684L484.459 385.873C481.526 387.339 472.435 385.287 472.435 382.061V309.923C472.435 306.697 481.819 304.645 484.752 306.404L552.784 343.353C555.717 345.112 558.649 349.218 555.717 350.684H555.424ZM648.969 310.803C648.969 276.493 621.11 248.928 587.094 248.928H428.449C394.139 248.928 366.574 276.786 366.574 310.803V384.7C366.574 419.01 394.432 446.575 428.449 446.575H587.094C621.404 446.575 648.969 418.717 648.969 384.7V310.803Z" fill="#894141"/>
<path opacity="0.76" d="M554.252 349.512L483.287 384.701C480.355 386.167 470.971 384.114 470.971 380.889V308.751C470.971 305.525 480.355 303.472 483.287 305.232L551.32 342.181C554.252 343.94 557.185 348.045 554.252 349.512ZM647.504 309.63C647.504 275.321 619.646 247.756 585.629 247.756H426.984C392.674 247.756 365.109 275.614 365.109 309.63V383.528C365.109 417.838 392.968 445.403 426.984 445.403H585.629C619.939 445.403 647.504 417.544 647.504 383.528V309.63Z" fill="#873E3E"/>
<path opacity="0.77" d="M553.369 348.631L482.404 383.82C479.472 385.286 470.088 383.234 470.088 380.008V307.87C470.088 304.644 479.472 302.592 482.404 304.351L550.437 341.3C553.369 343.059 556.302 347.165 553.369 348.631ZM646.621 308.75C646.621 274.44 618.763 246.875 584.746 246.875H426.101C391.792 246.875 364.227 274.733 364.227 308.75V382.647C364.227 416.957 392.085 444.522 426.101 444.522H584.746C619.056 444.522 646.621 416.664 646.621 382.647V308.75Z" fill="#853B3B"/>
<path opacity="0.78" d="M552.197 347.458L481.232 382.648C478.3 384.114 468.916 382.061 468.916 378.835V306.697C468.916 303.472 478.3 301.419 481.232 303.178L549.265 340.127C552.197 341.887 555.13 345.992 552.197 347.458ZM645.449 307.577C645.449 273.267 617.591 245.702 583.574 245.702H424.929C390.62 245.702 363.055 273.561 363.055 307.577V381.475C363.055 415.784 390.913 443.349 424.929 443.349H583.574C617.884 443.349 645.449 415.491 645.449 381.475V307.577Z" fill="#833838"/>
<path opacity="0.79" d="M551.025 346.286L480.06 381.475C477.128 382.941 467.744 380.888 467.744 377.663V305.525C467.744 302.299 477.421 300.246 480.06 302.006L548.093 338.954C551.025 340.714 553.958 344.819 551.025 346.286ZM644.277 306.404C644.277 272.095 616.419 244.53 582.402 244.53H423.757C389.448 244.53 361.883 272.388 361.883 306.404V380.302C361.883 414.611 389.741 442.176 423.757 442.176H582.402C616.712 442.176 644.277 414.318 644.277 380.302V306.404Z" fill="#813434"/>
<path opacity="0.81" d="M550.147 345.406L478.888 380.596C475.956 382.062 466.572 380.009 466.572 376.784V304.645C466.572 301.42 476.249 299.367 478.888 301.126L546.921 338.075C549.853 339.835 552.786 343.94 549.853 345.406H550.147ZM643.398 305.232C643.398 270.922 615.54 243.357 581.524 243.357H422.878C388.569 243.357 361.004 271.216 361.004 305.232V379.129C361.004 413.439 388.862 441.004 422.878 441.004H581.524C615.833 441.004 643.398 413.146 643.398 379.129V305.232Z" fill="#7F3131"/>
<path opacity="0.82" d="M548.974 344.232L477.716 379.421C474.784 380.888 465.4 378.835 465.4 375.609V303.471C465.4 300.245 475.077 298.193 477.716 299.952L545.749 336.901C548.681 338.66 551.614 342.766 548.681 344.232H548.974ZM642.226 304.058C642.226 269.748 614.368 242.183 580.352 242.183H421.706C387.397 242.183 359.832 270.041 359.832 304.058V377.955C359.832 412.265 387.69 439.83 421.706 439.83H580.352C614.661 439.83 642.226 411.972 642.226 377.955V304.058Z" fill="#7D2E2E"/>
<path opacity="0.83" d="M548.092 343.353L476.834 378.542C473.901 380.008 464.517 377.956 464.517 374.73V302.592C464.517 299.366 474.194 297.314 476.834 299.073L544.866 336.022C547.799 337.781 550.731 341.887 547.799 343.353H548.092ZM641.343 303.178C641.343 268.869 613.485 241.304 579.469 241.304H420.824C386.514 241.304 358.949 269.162 358.949 303.178V377.076C358.949 411.386 386.807 438.951 420.824 438.951H579.469C613.779 438.951 641.343 411.092 641.343 377.076V303.178Z" fill="#7B2B2B"/>
<path opacity="0.85" d="M546.92 342.18L475.662 377.37C472.729 378.836 463.346 376.783 463.346 373.557V301.419C463.346 298.194 473.023 296.141 475.662 297.9L543.694 334.849C546.627 336.609 549.559 340.714 546.627 342.18H546.92ZM639.879 302.006C639.879 267.696 612.02 240.131 578.004 240.131H419.359C385.049 240.131 357.484 267.99 357.484 302.006V375.903C357.484 410.213 385.343 437.778 419.359 437.778H578.004C612.314 437.778 639.879 409.92 639.879 375.903V302.006Z" fill="#782727"/>
<path opacity="0.86" d="M546.041 341.3L474.783 376.489C471.85 377.956 462.467 375.903 462.467 372.677V300.539C462.467 297.313 472.144 295.261 474.783 297.02L542.816 333.969C545.748 335.728 548.68 339.834 545.748 341.3H546.041ZM638.999 301.126C638.999 266.816 611.141 239.251 577.125 239.251H418.48C384.17 239.251 356.605 267.109 356.605 301.126V375.023C356.605 409.333 384.464 436.898 418.48 436.898H577.125C611.435 436.898 638.999 409.039 638.999 375.023V301.126Z" fill="#762424"/>
<path opacity="0.87" d="M544.869 340.127L473.611 375.317C470.679 376.783 461.295 374.73 461.295 371.504V299.366C461.295 296.141 470.972 294.088 473.611 295.847L541.644 332.796C544.576 334.556 547.508 338.661 544.576 340.127H544.869ZM637.828 299.953C637.828 265.643 609.969 238.078 575.953 238.078H417.308C382.999 238.078 355.434 265.937 355.434 299.953V373.85C355.434 408.16 383.292 435.725 417.308 435.725H575.953C610.263 435.725 637.828 407.867 637.828 373.85V299.953Z" fill="#742121"/>
<path opacity="0.88" d="M543.987 339.247L472.728 374.436C469.796 375.903 460.412 373.85 460.412 370.624V298.486C460.412 295.26 470.089 293.208 473.021 294.967L541.054 331.916C543.986 333.675 546.919 337.781 543.987 339.247ZM636.945 299.073C636.945 264.763 609.087 237.198 575.07 237.198H416.425C382.116 237.198 354.551 265.056 354.551 299.073V372.97C354.551 407.28 382.409 434.845 416.425 434.845H575.07C609.38 434.845 636.945 406.986 636.945 372.97V299.073Z" fill="#721D1D"/>
<path opacity="0.9" d="M542.815 338.074L471.556 373.263C468.624 374.73 459.24 372.677 459.24 369.451V297.313C459.24 294.087 468.917 292.035 471.85 293.794L539.882 330.743C542.815 332.502 545.747 336.608 542.815 338.074ZM635.773 297.606C635.773 263.297 607.915 235.732 573.898 235.732H415.253C380.944 235.732 353.379 263.59 353.379 297.606V371.504C353.379 405.813 381.237 433.378 415.253 433.378H573.898C608.208 433.378 635.773 405.52 635.773 371.504V297.606Z" fill="#701A1A"/>
<path opacity="0.91" d="M541.643 336.901L470.384 372.091C467.452 373.557 458.068 371.504 458.068 368.279V296.14C458.068 292.915 467.745 290.862 470.678 292.622L538.71 329.57C541.643 331.33 544.575 335.435 541.643 336.901ZM634.601 296.434C634.601 262.124 606.743 234.559 572.727 234.559H414.082C379.772 234.559 352.207 262.417 352.207 296.434V370.331C352.207 404.641 380.065 432.206 414.082 432.206H572.727C607.036 432.206 634.601 404.348 634.601 370.331V296.434Z" fill="#6E1717"/>
<path opacity="0.92" d="M540.764 336.022L469.506 371.211C466.573 372.678 456.896 370.625 456.896 367.399V295.261C456.896 292.035 466.573 289.983 469.506 291.742L537.538 328.691C540.471 330.451 543.403 334.556 540.471 336.022H540.764ZM633.722 295.554C633.722 261.245 605.864 233.68 571.848 233.68H413.203C378.893 233.68 351.328 261.538 351.328 295.554V369.452C351.328 403.762 379.186 431.327 413.203 431.327H571.848C606.157 431.327 633.722 403.468 633.722 369.452V295.554Z" fill="#6C1414"/>
<path opacity="0.94" d="M539.588 334.848L468.33 370.038C465.398 371.504 455.721 369.451 455.721 366.226V294.087C455.721 290.862 465.398 288.809 468.33 290.568L536.363 327.517C539.295 329.277 542.228 333.382 539.295 334.848H539.588ZM632.253 294.381C632.253 260.071 604.395 232.506 570.379 232.506H411.734C377.424 232.506 349.859 260.364 349.859 294.381V368.278C349.859 402.588 377.718 430.153 411.734 430.153H570.379C604.689 430.153 632.253 402.295 632.253 368.278V294.381Z" fill="#6A1010"/>
<path opacity="0.95" d="M538.71 333.969L467.451 369.158C464.519 370.625 454.842 368.572 454.842 365.346V293.208C454.842 289.983 464.519 287.93 467.451 289.689L535.777 326.638C538.71 328.398 541.642 332.503 539.003 333.969H538.71ZM631.375 293.502C631.375 259.192 603.516 231.627 569.5 231.627H410.855C376.545 231.627 348.98 259.485 348.98 293.502V367.399C348.98 401.709 376.839 429.274 410.855 429.274H569.5C603.81 429.274 631.375 401.415 631.375 367.399V293.502Z" fill="#680D0D"/>
<path opacity="0.96" d="M537.534 332.797L466.275 367.986C463.343 369.452 453.666 367.399 453.666 364.174V292.036C453.666 288.81 463.343 286.757 466.275 288.517L534.601 325.466C537.534 327.225 540.466 331.33 537.827 332.797H537.534ZM630.199 292.329C630.199 258.019 602.341 230.454 568.324 230.454H409.679C375.37 230.454 347.805 258.313 347.805 292.329V366.226C347.805 400.536 375.663 428.101 409.679 428.101H568.324C602.634 428.101 630.199 400.243 630.199 366.226V292.329Z" fill="#660A0A"/>
<path opacity="0.97" d="M536.659 331.916L465.4 367.105C462.468 368.571 452.791 366.519 452.791 363.293V291.155C452.791 287.929 462.761 285.877 465.4 287.636L533.726 324.585C536.659 326.344 539.591 330.45 536.952 331.916H536.659ZM629.324 291.448C629.324 257.139 601.466 229.574 567.449 229.574H408.804C374.495 229.574 346.93 257.432 346.93 291.448V365.346C346.93 399.655 374.788 427.22 408.804 427.22H567.449C601.759 427.22 629.324 399.362 629.324 365.346V291.448Z" fill="#640707"/>
<path opacity="0.99" d="M535.483 330.743L463.931 365.932C460.999 367.399 451.322 365.346 451.322 362.12V289.982C451.322 286.757 461.292 284.704 463.931 286.463L532.257 323.412C535.19 325.172 538.122 329.277 535.483 330.743ZM628.148 289.982C628.148 255.673 600.29 228.108 566.273 228.108H407.628C373.319 228.108 345.754 255.966 345.754 289.982V363.88C345.754 398.189 373.612 425.754 407.628 425.754H566.273C600.583 425.754 628.148 397.896 628.148 363.88V289.982Z" fill="#620303"/>
<path d="M534.604 329.57L463.052 364.76C460.12 366.226 450.443 364.173 450.443 360.947V288.809C450.443 285.584 460.413 283.531 463.052 285.29L531.378 322.239C534.311 323.999 537.536 328.104 534.604 329.57ZM627.269 288.809C627.269 254.5 599.411 226.935 565.395 226.935H406.75C372.44 226.935 344.875 254.793 344.875 288.809V362.707C344.875 397.017 372.733 424.581 406.75 424.581H565.395C599.704 424.581 627.269 396.723 627.269 362.707V288.809Z" fill="#600000"/>
</g>
<path d="M626.973 289.103C626.973 254.793 599.115 227.229 565.099 227.229H405.574C371.264 227.229 343.699 255.087 343.699 289.103V359.188C343.699 393.498 371.557 421.063 405.574 421.063H565.099C599.408 421.063 626.973 393.205 626.973 359.188V289.103ZM539.293 326.052L468.035 361.241C465.396 362.707 455.425 360.655 455.425 357.429V285.291C455.425 282.065 465.102 280.013 468.035 281.772L536.361 318.721C539.293 320.48 542.226 324.586 539.586 326.052H539.293Z" fill="white"/>
<defs>
<linearGradient id="paint0_linear_203_178" x1="207.341" y1="94.9756" x2="778.287" y2="665.922" gradientUnits="userSpaceOnUse">
<stop stop-color="#FF0000"/>
<stop offset="1" stop-color="#850000"/>
</linearGradient>
<linearGradient id="paint1_linear_203_178" x1="668.616" y1="541.88" x2="258.367" y2="131.631" gradientUnits="userSpaceOnUse">
<stop stop-color="#FF0000"/>
<stop offset="1" stop-color="#850000"/>
</linearGradient>
</defs>
</svg>
