<svg xmlns="http://www.w3.org/2000/svg" xmlns:xlink="http://www.w3.org/1999/xlink" xmlns:inkscape="http://www.inkscape.org/namespaces/inkscape" version="1.1" width="3444.26" height="1080" viewBox="0 0 3444.26 1080">
<defs>
<clipPath id="clip_0">
<path transform="matrix(1,0,0,-1,0,1080)" d="M0 1080H3444.258V0H0Z"/>
</clipPath>
</defs>
<g inkscape:groupmode="layer" inkscape:label="Layer 1">
<g clip-path="url(#clip_0)">
<path transform="matrix(1,0,0,-1,1078.1934,540)" d="M0 0C0-297.236-240.957-538.193-538.193-538.193-835.429-538.193-1076.387-297.236-1076.387 0-1076.387 297.236-835.429 538.193-538.193 538.193-240.957 538.193 0 297.236 0 0" fill="#ffffff"/>
<path transform="matrix(1,0,0,-1,557.9911,1.0036621)" d="M0 0C.055 0 .111-.003 .166-.008 13.826-1.355 27.478-2.802 41.149-4.03 94.842-8.852 146.053-23.16 195.476-44.315 264.438-73.831 324.549-116.198 375.573-170.993 442.665-243.042 487.246-327.249 508.228-423.672 515.399-456.627 518.876-489.901 519.918-523.713 523.985-655.683 484.37-773.357 402.416-875.792 322.378-975.833 218.63-1039.344 92.779-1066.235 44.769-1076.493-3.778-1080.092-52.358-1076.823-148.614-1070.346-237.736-1040.835-317.685-986.122-341.003-970.164-362.789-951.967-385.239-934.74-385.908-934.226-386.088-933.295-385.657-932.57L-385.181-931.767C-384.852-931.214-384.236-930.903-383.595-930.959-382.04-931.095-380.441-931.123-379.07-931.697-328.664-952.819-277.192-949.328-224.948-940.003-162.243-928.812-99.095-922.536-35.418-931.968-.503-937.14 32.607-947.325 62.798-966.325 72.897-972.681 84.037-977.434 94.884-982.532 101.222-985.51 104.459-982.555 103.546-975.976 102.888-971.232 101.737-966.293 99.586-962.061 84.868-933.096 62.766-911.096 34.935-894.642 27.452-890.218 20.027-885.696 12.58-881.212 11.899-880.802 11.602-879.969 11.87-879.221 12.019-878.805 12.168-878.388 12.317-877.972 12.594-877.198 13.391-876.747 14.198-876.9 21.861-878.345 29.718-879.202 37.053-881.636 60.222-889.322 82.95-898.375 106.233-905.672 149.273-919.158 193.18-922.25 237.663-913.803 282.841-905.224 318.813-880.572 349.08-847.418 435.094-753.199 475.84-641.937 466.168-514.69 455.136-369.552 389.878-251.309 278.133-158.943 254.492-139.401 228.112-123.032 202.236-106.378 176.963-90.112 151.107-74.644 124.713-60.286 114.514-54.738 102.316-51.898 90.686-50.259 81.335-48.941 78.768-55.22 84.305-63.063 86.02-65.492 88.205-67.663 90.458-69.627 105.458-82.706 113.764-98.736 113.317-119.045 113.07-130.288 119.937-137.162 129.468-141.371 136.666-144.55 144.298-146.732 151.69-149.486 214.427-172.856 260.085-216.011 292.923-273.268 320.049-320.565 340.531-370.538 346.733-425.283 351.921-471.073 353.36-516.863 340.787-561.899 333.661-587.421 321.406-609.962 300.491-627.04 276.971-646.244 252.864-642.115 236.706-616.451 224.33-596.794 221.109-574.331 216.478-552.321 202.232-484.625 187.203-417.153 162.173-352.396 142.193-300.706 118.741-250.983 86.489-205.422 38.713-137.931-25.258-96.282-105.834-79.593-154.49-69.516-203.588-62.888-253.337-61.726-255.229-61.681-257.117-61.452-259.382-60.241-260.599-59.591-260.516-57.813-259.256-57.252-244.412-50.647-229.681-43.767-214.647-37.631-173.653-20.897-130.844-10.821-87.155-4.49-74.609-2.672-61.796-2.735-49.117-1.771-44.774-1.44-40.467-.62-36.144-.017-36.065-.005-35.984 0-35.904 0Z" fill="#00712d"/>
<path transform="matrix(1,0,0,-1,485.5973,383.23353)" d="M0 0C-.365 .393-.89 .597-1.423 .54-11.5-.54-19.301-.548-18.04-11.681-17.227-18.869-16.754-26.627-7.732-28.023-1.924-28.922 5.648-16.295 4.679-6.7 4.41-4.039 1.526-1.642 0 0M21.594 104.801C41.271 96.351 54.017 105.639 63.839 121.8 64.472 122.84 65.984 122.879 66.655 121.863 76.53 106.901 73.728 89.414 59.428 77.501 52.246 71.519 44.152 66.58 36.212 61.579 30.942 58.259 29.277 55.337 32.45 48.907 37.574 38.526 42.082 27.632 45.145 16.486 50.931-4.567 62.063-21.717 78.32-36.074 91.267-47.508 104.101-59.158 116.043-71.616 125.449-81.428 133.512-92.621 131.809-107.595 131.435-110.886 131.262-114.955 129.307-117.18 120.541-127.154 120.623-139.13 123.07-150.365 129.435-179.583 117.956-200.29 94.236-215.494 87.623-219.734 84.658-224.913 82.526-232.141 79.461-242.527 75.373-252.729 70.61-262.466 64.835-274.27 54.781-281.16 41.408-279.442 20.971-276.816 .666-273.089-19.629-269.462-32.734-267.119-32.08-266.926-34.246-279.759-37.293-297.816-39.885-316.163-45.367-333.534-50.812-350.788-56.439-352.575-74.335-349.54-74.706-349.477-75.089-349.367-75.452-349.406-81.462-350.057-88.476-349.054-93.179-351.887-97.463-354.468-93.335-371.695-88.325-376.687-85.936-379.067-83.39-381.289-80.177-384.146-79.03-385.166-79.747-387.066-81.282-387.066H-99.939C-101.233-387.066-102.042-388.481-101.378-389.591-91.292-406.459-79.883-422.288-77.107-443.854-76.897-445.485-78.923-446.385-80.022-445.162-98.545-424.522-122.775-427.545-145.562-426.327-159.055-425.606-172.641-425.889-186.154-426.454-206.521-427.304-223.601-437.396-239.781-448.288-258.153-460.655-275.267-474.873-293.285-487.789-308.426-498.643-324.892-507.106-344.019-507.348-348.914-507.411-355.817-505.278-358.46-501.692-376.919-476.653-394.655-451.072-412.114-425.319-413.76-422.891-413.333-416.934-411.435-414.576-401.085-401.72-391.049-388.238-378.702-377.509-371.741-371.461-360.536-367.473-351.249-367.484-326.902-367.513-302.516-369.818-278.239-372.174-271.379-372.84-265.012-377.627-258.116-379.095-242.806-382.355-227.396-386.118-211.861-387.13-183.292-388.993-152.82-360.461-154.673-334.663-154.944-330.897-151.224-325.68-147.861-323.021-133.045-311.306-122.303-297.144-115.166-279.442-111.687-270.813-105.201-262.648-98.222-256.318-75.991-236.155-73.58-219.645-91.65-195.549-107.437-174.497-123.627-153.745-139.797-132.984-158.535-108.924-172.031-82.104-179.956-52.823-188.796-20.162-206.017 7.321-230.513 29.74-255.684 52.777-282.665 73.829-308.687 95.945-316.891 102.917-325.56 109.755-332.009 118.191-334.819 121.866-334.161 130.003-332.277 135.071-328.772 144.499-322.997 153.058-318.563 162.172-312.911 173.792-315.164 177.835-327.845 176.296-339.667 174.861-351.237 171.262-362.871 168.421-365.52 167.774-368.1 166.848-371.023 166.388-372.58 166.143-373.568 167.979-372.522 169.158-357.703 185.872-349.735 209.194-322.892 213.721-301.684 217.297-281.92 225.795-264.315 238.79-248.714 250.306-230.58 247.592-213.097 246.213-205.552 245.618-199.942 245.857-196.451 253.393-194.258 258.127-191.567 257.812-186.653 255.599-166.567 246.553-146.123 238.272-125.554 230.379-123.78 229.699-118.383 233.429-117.645 235.974-114.683 246.187-108.874 248.452-98.931 246.252-77.29 241.465-61.412 229.808-51.559 209.867-41.111 188.724-23.847 177.653-.42 176.767 16.878 176.113 30.066 170.376 36.254 152.696 42.535 134.753 36.279 121.226 22.836 109.68 22.004 108.965 21.382 107.991 20.739 107.083 20.64 106.942 20.617 106.746 20.599 106.429 20.559 105.735 20.955 105.076 21.594 104.801" fill="#f96e2a"/>
<path transform="matrix(1,0,0,-1,48.6617,320.81953)" d="M0 0C.542 1.184 2.19 1.319 2.916 .238 18.365-22.753 29.023-45.531 35.758-70.111 39.327-83.136 41.262-96.627 45.143-109.545 52.938-135.489 66.071-157.976 91.085-171.019 116.82-184.438 142.447-185.582 166.806-168.019 169.819-165.846 175.325-162.878 178.979-161.596 180.091-161.206 181.238-162.043 181.204-163.22 181.087-167.329 179.277-172.46 177.866-176.062 167.439-202.699 147.059-221.966 127.764-241.939 124.755-245.053 121.226-247.664 117.736-250.313 118.632-253.676 118.697-253.918 119.593-257.281 121.886-257.583 124.181-257.878 126.483-257.968 168.475-259.601 203.853-242.936 236.656-218.586 242.26-214.427 253.581-208.44 255.229-210.136 262.285-217.396 255.442-225.487 251.485-232.153 228.429-270.994 198.544-304.294 164.036-333.001 134.332-357.712 102.366-379.687 72.284-403.967 61.725-412.49 54.001-424.466 44.593-434.499 36.75-442.863 28.73-451.152 20.027-458.583 14.866-462.991 10.359-461.339 7.034-454.478-11.801-415.613-25.406-375.027-34.853-332.922-45.756-284.328-48.705-234.999-45.809-185.614-42.076-121.973-27.733-60.548 0 0" fill="#f96e2a"/>
<path transform="matrix(1,0,0,-1,287.6812,447.2223)" d="M0 0C1.655-2.795 1.556-6.301-.291-8.974-3.953-14.272-6.681-18.299-11.41-20.876-15.042-22.855-22.02-18.771-26.67-15.443-32.966-10.937-39.791-6.113-45.003-.217-49.202 4.532-47.025 9.711-41.835 9.721-29.655 9.743-19.312 10.232-7.654 6.644-5.536 5.992-1.977 3.34 0 0"/>
<path transform="matrix(1,0,0,-1,349.8906,605.6398)" d="M0 0C4.862 8.192 11.8 12.288 22.299 9.354 28.14 7.571 32.82 7.822 36.283 10.205 33.818-6.001 22.784-14.673 11.528-23.15 12.261-17.737 13.537-12.508 14.695-7.8 15.386-4.995 13.981-2.014 11.288-.966 8.356 .175 4.317 .202 0 0"/>
<path transform="matrix(1,0,0,-1,583.0218,391.92713)" d="M0 0C20.318 .408 38.595-1.985 51.622-11.583 52.009-11.868 52.368-12.202 52.677-12.569 58.56-19.56 58.546-26.274 55.244-32.835 54.848-33.622 54.372-34.369 53.771-35.013 51.019-37.963 46.678-39.5 41.271-40.089 38.299-40.413 35.304-39.921 32.624-38.598 24.051-34.365 18.4-27.021 14.973-17.308 12.758-10.054 6.951-5.349-.386-1.731-1.243-1.309-.955-.019 0 0"/>
<path transform="matrix(1,0,0,-1,469.4614,383.31874)" d="M0 0C6.37 .77 12.334 1.286 17.42 1.25 19.611 1.235 21.397-.51 21.486-2.7 21.951-14.104 18.103-22.405 11.587-28.785 10.021-30.318 7.522-30.31 5.919-28.815 4.764-27.737 3.66-26.607 2.622-25.409-1.519-20.63-3.642-14.427-3.642-8.103V-4.699C-3.642-2.013-2.077-.251 0 0" fill="#ffffff"/>
<text fill="#ffffff" xml:space="preserve" transform="matrix(1 0 -0 1 0 1080)" font-size="364.5038" font-family="Montserrat"><tspan y="-678.7178" x="1251.3613 1636.2774 1851.3346 2097.7393 2344.8729 2565.0333 2708.2833 2806.3348 3051.2813 3239.0008 3459.1612">Wanderluxe </tspan></text>
</g>
<text fill="#ffffff" xml:space="preserve" transform="matrix(1 0 -0 1 0 1080)" font-size="364.5038" font-family="Montserrat"><tspan y="-241.3135" x="1251.3613 1489.7468 1684.3919 1931.5254 2151.6859 2398.8194 2496.8709 2644.8594 2742.911 2971.4549 3217.8594">Expeditions</tspan></text>
</g>
</svg>
